Fira Mono-Regular Italic.ufo
<glyph name="exclam" format="1">
  <advance width="600"/>
  <unicode hex="0021"/>
  <outline>
	<contour>
	  <point x="307" y="689" type="line"/>
	  <point x="253" y="230" type="line"/>
	  <point x="334" y="230" type="line"/>
	  <point x="409" y="689" type="line"/>
	</contour>
	<contour>
	  <point x="239" y="127"/>
	  <point x="207" y="99"/>
	  <point x="202" y="63" type="curve" smooth="yes"/>
	  <point x="196" y="22"/>
	  <point x="223" y="-12"/>
	  <point x="264" y="-12" type="curve" smooth="yes"/>
	  <point x="302" y="-12"/>
	  <point x="334" y="16"/>
	  <point x="339" y="53" type="curve" smooth="yes"/>
	  <point x="345" y="93"/>
	  <point x="318" y="127"/>
	  <point x="276" y="127" type="curve" smooth="yes"/>
	</contour>
  </outline>
</glyph>
<glyph name="quotedbl" format="1">
  <advance width="600"/>
  <unicode hex="0022"/>
  <outline>
	<contour>
	  <point x="284" y="477" type="line"/>
	  <point x="337" y="739" type="line"/>
	  <point x="227" y="739" type="line"/>
	  <point x="206" y="477" type="line"/>
	</contour>
	<contour>
	  <point x="454" y="477" type="line"/>
	  <point x="507" y="739" type="line"/>
	  <point x="397" y="739" type="line"/>
	  <point x="376" y="477" type="line"/>
	</contour>
  </outline>
</glyph>
<glyph name="numbersign" format="1">
  <advance width="600"/>
  <unicode hex="0023"/>
  <outline>
	<contour>
	  <point x="576" y="455" type="line"/>
	  <point x="586" y="525" type="line"/>
	  <point x="508" y="525" type="line"/>
	  <point x="554" y="689" type="line"/>
	  <point x="476" y="689" type="line"/>
	  <point x="431" y="525" type="line"/>
	  <point x="290" y="525" type="line"/>
	  <point x="336" y="689" type="line"/>
	  <point x="258" y="689" type="line"/>
	  <point x="213" y="525" type="line"/>
	  <point x="125" y="525" type="line"/>
	  <point x="115" y="455" type="line"/>
	  <point x="194" y="455" type="line"/>
	  <point x="133" y="236" type="line"/>
	  <point x="47" y="236" type="line"/>
	  <point x="37" y="167" type="line"/>
	  <point x="114" y="167" type="line"/>
	  <point x="69" y="0" type="line"/>
	  <point x="147" y="0" type="line"/>
	  <point x="192" y="167" type="line"/>
	  <point x="332" y="167" type="line"/>
	  <point x="287" y="0" type="line"/>
	  <point x="365" y="0" type="line"/>
	  <point x="409" y="167" type="line"/>
	  <point x="498" y="167" type="line"/>
	  <point x="508" y="236" type="line"/>
	  <point x="429" y="236" type="line"/>
	  <point x="489" y="455" type="line"/>
	</contour>
	<contour>
	  <point x="271" y="455" type="line"/>
	  <point x="412" y="455" type="line"/>
	  <point x="351" y="236" type="line"/>
	  <point x="211" y="236" type="line"/>
	</contour>
  </outline>
</glyph>
<glyph name="dollar" format="1">
  <advance width="600"/>
  <unicode hex="0024"/>
  <outline>
	<contour>
	  <point x="359" y="849" type="line"/>
	  <point x="336" y="699" type="line"/>
	  <point x="212" y="687"/>
	  <point x="141" y="612"/>
	  <point x="130" y="531" type="curve" smooth="yes"/>
	  <point x="116" y="436"/>
	  <point x="175" y="375"/>
	  <point x="289" y="335" type="curve"/>
	  <point x="247" y="65" type="line"/>
	  <point x="183" y="70"/>
	  <point x="137" y="98"/>
	  <point x="101" y="140" type="curve"/>
	  <point x="42" y="85" type="line"/>
	  <point x="81" y="41"/>
	  <point x="146" y="-5"/>
	  <point x="240" y="-11" type="curve"/>
	  <point x="218" y="-154" type="line"/>
	  <point x="287" y="-154" type="line"/>
	  <point x="310" y="-8" type="line"/>
	  <point x="440" y="9"/>
	  <point x="516" y="91"/>
	  <point x="529" y="186" type="curve" smooth="yes"/>
	  <point x="547" y="310"/>
	  <point x="463" y="368"/>
	  <point x="363" y="402" type="curve"/>
	  <point x="399" y="625" type="line"/>
	  <point x="447" y="619"/>
	  <point x="488" y="600"/>
	  <point x="521" y="565" type="curve"/>
	  <point x="580" y="617" type="line"/>
	  <point x="542" y="655"/>
	  <point x="484" y="691"/>
	  <point x="405" y="699" type="curve"/>
	  <point x="428" y="849" type="line"/>
	</contour>
	<contour>
	  <point x="423" y="280"/>
	  <point x="440" y="245"/>
	  <point x="433" y="193" type="curve" smooth="yes"/>
	  <point x="423" y="124"/>
	  <point x="383" y="83"/>
	  <point x="317" y="70" type="curve"/>
	  <point x="355" y="311" type="line"/>
	</contour>
	<contour>
	  <point x="298" y="425" type="line"/>
	  <point x="231" y="454"/>
	  <point x="218" y="481"/>
	  <point x="224" y="524" type="curve" smooth="yes"/>
	  <point x="231" y="580"/>
	  <point x="275" y="614"/>
	  <point x="330" y="623" type="curve"/>
	</contour>
  </outline>
</glyph>
<glyph name="percent" format="1">
  <advance width="600"/>
  <unicode hex="0025"/>
  <outline>
	<contour>
	  <point x="3" y="14" type="line"/>
	  <point x="55" y="-21" type="line"/>
	  <point x="611" y="673" type="line"/>
	  <point x="557" y="708" type="line"/>
	</contour>
	<contour>
	  <point x="478" y="253"/>
	  <point x="499" y="228"/>
	  <point x="489" y="160" type="curve" smooth="yes"/>
	  <point x="479" y="89"/>
	  <point x="446" y="55"/>
	  <point x="405" y="55" type="curve" smooth="yes"/>
	  <point x="367" y="55"/>
	  <point x="346" y="89"/>
	  <point x="355" y="150" type="curve" smooth="yes"/>
	  <point x="365" y="220"/>
	  <point x="400" y="253"/>
	  <point x="441" y="253" type="curve" smooth="yes"/>
	</contour>
	<contour>
	  <point x="258" y="639"/>
	  <point x="279" y="614"/>
	  <point x="270" y="546" type="curve" smooth="yes"/>
	  <point x="260" y="475"/>
	  <point x="226" y="441"/>
	  <point x="185" y="441" type="curve" smooth="yes"/>
	  <point x="147" y="441"/>
	  <point x="127" y="475"/>
	  <point x="135" y="536" type="curve" smooth="yes"/>
	  <point x="145" y="604"/>
	  <point x="180" y="639"/>
	  <point x="221" y="639" type="curve" smooth="yes"/>
	</contour>
	<contour>
	  <point x="130" y="701"/>
	  <point x="69" y="631"/>
	  <point x="57" y="546" type="curve" smooth="yes"/>
	  <point x="44" y="458"/>
	  <point x="89" y="380"/>
	  <point x="184" y="380" type="curve" smooth="yes"/>
	  <point x="275" y="380"/>
	  <point x="336" y="452"/>
	  <point x="348" y="536" type="curve" smooth="yes"/>
	  <point x="361" y="625"/>
	  <point x="316" y="701"/>
	  <point x="221" y="701" type="curve" smooth="yes"/>
	</contour>
	<contour>
	  <point x="350" y="315"/>
	  <point x="288" y="245"/>
	  <point x="276" y="160" type="curve" smooth="yes"/>
	  <point x="264" y="72"/>
	  <point x="309" y="-6"/>
	  <point x="404" y="-6" type="curve" smooth="yes"/>
	  <point x="495" y="-6"/>
	  <point x="556" y="66"/>
	  <point x="568" y="150" type="curve" smooth="yes"/>
	  <point x="581" y="239"/>
	  <point x="536" y="315"/>
	  <point x="441" y="315" type="curve" smooth="yes"/>
	</contour>
  </outline>
</glyph>
<glyph name="ampersand" format="1">
  <advance width="600"/>
  <unicode hex="0026"/>
  <outline>
	<contour>
	  <point x="221" y="700"/>
	  <point x="139" y="627"/>
	  <point x="127" y="540" type="curve" smooth="yes"/>
	  <point x="118" y="474"/>
	  <point x="142" y="412"/>
	  <point x="228" y="391" type="curve"/>
	  <point x="222" y="388" type="line"/>
	  <point x="121" y="367"/>
	  <point x="57" y="302"/>
	  <point x="43" y="200" type="curve" smooth="yes"/>
	  <point x="28" y="93"/>
	  <point x="84" y="-12"/>
	  <point x="242" y="-12" type="curve" smooth="yes"/>
	  <point x="356" y="-12"/>
	  <point x="425" y="39"/>
	  <point x="462" y="78" type="curve"/>
	  <point x="499" y="351" type="line"/>
	  <point x="586" y="351" type="line"/>
	  <point x="596" y="421" type="line"/>
	  <point x="318" y="421" type="line" smooth="yes"/>
	  <point x="250" y="421"/>
	  <point x="207" y="470"/>
	  <point x="215" y="528" type="curve" smooth="yes"/>
	  <point x="224" y="588"/>
	  <point x="266" y="632"/>
	  <point x="336" y="632" type="curve" smooth="yes"/>
	  <point x="383" y="632"/>
	  <point x="412" y="616"/>
	  <point x="440" y="578" type="curve"/>
	  <point x="499" y="623" type="line"/>
	  <point x="452" y="683"/>
	  <point x="400" y="700"/>
	  <point x="336" y="700" type="curve" smooth="yes"/>
	</contour>
	<contour>
	  <point x="381" y="113" type="line"/>
	  <point x="350" y="81"/>
	  <point x="303" y="61"/>
	  <point x="248" y="61" type="curve" smooth="yes"/>
	  <point x="153" y="61"/>
	  <point x="122" y="124"/>
	  <point x="132" y="194" type="curve" smooth="yes"/>
	  <point x="142" y="266"/>
	  <point x="199" y="351"/>
	  <point x="300" y="351" type="curve" smooth="yes"/>
	  <point x="415" y="351" type="line"/>
	</contour>
  </outline>
</glyph>
<glyph name="quotesingle" format="1">
  <advance width="600"/>
  <unicode hex="0027"/>
  <outline>
	<contour>
	  <point x="369" y="477" type="line"/>
	  <point x="422" y="739" type="line"/>
	  <point x="312" y="739" type="line"/>
	  <point x="291" y="477" type="line"/>
	</contour>
  </outline>
</glyph>
<glyph name="parenleft" format="1">
  <advance width="600"/>
  <unicode hex="0028"/>
  <outline>
	<contour>
	  <point x="259" y="552"/>
	  <point x="344" y="660"/>
	  <point x="505" y="790" type="curve"/>
	  <point x="460" y="844" type="line"/>
	  <point x="279" y="711"/>
	  <point x="166" y="580"/>
	  <point x="135" y="355" type="curve" smooth="yes"/>
	  <point x="103" y="126"/>
	  <point x="182" y="-7"/>
	  <point x="325" y="-140" type="curve"/>
	  <point x="378" y="-94" type="line"/>
	  <point x="252" y="36"/>
	  <point x="201" y="143"/>
	  <point x="229" y="345" type="curve" smooth="yes"/>
	</contour>
  </outline>
</glyph>
<glyph name="parenright" format="1">
  <advance width="600"/>
  <unicode hex="0029"/>
  <outline>
	<contour>
	  <point x="366" y="149"/>
	  <point x="281" y="40"/>
	  <point x="119" y="-90" type="curve"/>
	  <point x="165" y="-144" type="line"/>
	  <point x="345" y="-11"/>
	  <point x="458" y="120"/>
	  <point x="489" y="345" type="curve" smooth="yes"/>
	  <point x="522" y="574"/>
	  <point x="442" y="707"/>
	  <point x="299" y="840" type="curve"/>
	  <point x="247" y="794" type="line"/>
	  <point x="372" y="664"/>
	  <point x="423" y="558"/>
	  <point x="395" y="355" type="curve" smooth="yes"/>
	</contour>
  </outline>
</glyph>
<glyph name="asterisk" format="1">
  <advance width="600"/>
  <unicode hex="002A"/>
  <outline>
	<contour>
	  <point x="292" y="527" type="line"/>
	  <point x="284" y="364" type="line"/>
	  <point x="143" y="427" type="line"/>
	  <point x="105" y="342" type="line"/>
	  <point x="257" y="307" type="line"/>
	  <point x="135" y="182" type="line"/>
	  <point x="203" y="131" type="line"/>
	  <point x="304" y="273" type="line"/>
	  <point x="369" y="133" type="line"/>
	  <point x="448" y="188" type="line"/>
	  <point x="354" y="307" type="line"/>
	  <point x="517" y="342" type="line"/>
	  <point x="501" y="427" type="line"/>
	  <point x="343" y="364" type="line"/>
	  <point x="382" y="527" type="line"/>
	</contour>
  </outline>
</glyph>
<glyph name="plus" format="1">
  <advance width="600"/>
  <unicode hex="002B"/>
  <outline>
	<contour>
	  <point x="290" y="499" type="line"/>
	  <point x="269" y="349" type="line"/>
	  <point x="124" y="349" type="line"/>
	  <point x="113" y="273" type="line"/>
	  <point x="258" y="273" type="line"/>
	  <point x="237" y="124" type="line"/>
	  <point x="321" y="124" type="line"/>
	  <point x="342" y="273" type="line"/>
	  <point x="489" y="273" type="line"/>
	  <point x="500" y="349" type="line"/>
	  <point x="353" y="349" type="line"/>
	  <point x="374" y="499" type="line"/>
	</contour>
  </outline>
</glyph>
<glyph name="comma" format="1">
  <advance width="600"/>
  <unicode hex="002C"/>
  <outline>
	<contour>
	  <point x="238" y="169"/>
	  <point x="199" y="135"/>
	  <point x="193" y="91" type="curve" smooth="yes"/>
	  <point x="189" y="61"/>
	  <point x="200" y="33"/>
	  <point x="218" y="18" type="curve"/>
	  <point x="140" y="-182" type="line"/>
	  <point x="220" y="-182" type="line"/>
	  <point x="327" y="-1" type="line" smooth="yes"/>
	  <point x="347" y="34"/>
	  <point x="355" y="57"/>
	  <point x="358" y="81" type="curve" smooth="yes"/>
	  <point x="365" y="129"/>
	  <point x="333" y="169"/>
	  <point x="283" y="169" type="curve" smooth="yes"/>
	</contour>
  </outline>
</glyph>
<glyph name="period" format="1">
  <advance width="600"/>
  <unicode hex="002E"/>
  <outline>
	<contour>
	  <point x="176" y="31"/>
	  <point x="211" y="-12"/>
	  <point x="264" y="-12" type="curve" smooth="yes"/>
	  <point x="314" y="-12"/>
	  <point x="356" y="25"/>
	  <point x="363" y="74" type="curve" smooth="yes"/>
	  <point x="371" y="126"/>
	  <point x="336" y="169"/>
	  <point x="282" y="169" type="curve" smooth="yes"/>
	  <point x="233" y="169"/>
	  <point x="191" y="132"/>
	  <point x="184" y="84" type="curve" smooth="yes"/>
	</contour>
  </outline>
</glyph>
<glyph name="zero" format="1">
  <advance width="600"/>
  <unicode hex="0030"/>
  <outline>
	<contour>
	  <point x="209" y="701"/>
	  <point x="116" y="576"/>
	  <point x="84" y="350" type="curve" smooth="yes"/>
	  <point x="52" y="119"/>
	  <point x="113" y="-12"/>
	  <point x="265" y="-12" type="curve" smooth="yes"/>
	  <point x="413" y="-12"/>
	  <point x="507" y="113"/>
	  <point x="539" y="340" type="curve" smooth="yes"/>
	  <point x="571" y="570"/>
	  <point x="509" y="701"/>
	  <point x="357" y="701" type="curve" smooth="yes"/>
	</contour>
	<contour>
	  <point x="437" y="628"/>
	  <point x="473" y="549"/>
	  <point x="445" y="350" type="curve" smooth="yes"/>
	  <point x="416" y="146"/>
	  <point x="354" y="61"/>
	  <point x="268" y="61" type="curve" smooth="yes"/>
	  <point x="187" y="61"/>
	  <point x="150" y="140"/>
	  <point x="178" y="340" type="curve" smooth="yes"/>
	  <point x="206" y="543"/>
	  <point x="270" y="628"/>
	  <point x="355" y="628" type="curve" smooth="yes"/>
	</contour>
	<contour>
	  <point x="282" y="410"/>
	  <point x="252" y="384"/>
	  <point x="247" y="350" type="curve" smooth="yes"/>
	  <point x="242" y="311"/>
	  <point x="267" y="279"/>
	  <point x="306" y="279" type="curve" smooth="yes"/>
	  <point x="342" y="279"/>
	  <point x="372" y="305"/>
	  <point x="377" y="340" type="curve" smooth="yes"/>
	  <point x="382" y="378"/>
	  <point x="357" y="410"/>
	  <point x="317" y="410" type="curve" smooth="yes"/>
	</contour>
  </outline>
</glyph>
<glyph name="one" format="1">
  <advance width="600"/>
  <unicode hex="0031"/>
  <outline>
	<contour>
	  <point x="358" y="689" type="line"/>
	  <point x="133" y="561" type="line"/>
	  <point x="165" y="496" type="line"/>
	  <point x="333" y="591" type="line"/>
	  <point x="253" y="20" type="line"/>
	  <point x="345" y="20" type="line"/>
	  <point x="439" y="689" type="line"/>
	</contour>
	<contour>
	  <point x="91" y="74" type="line"/>
	  <point x="81" y="0" type="line"/>
	  <point x="484" y="0" type="line"/>
	  <point x="494" y="74" type="line"/>
	</contour>
  </outline>
</glyph>
<glyph name="two" format="1">
  <advance width="600"/>
  <unicode hex="0032"/>
  <outline>
	<contour>
	  <point x="234" y="701"/>
	  <point x="167" y="669"/>
	  <point x="104" y="602" type="curve"/>
	  <point x="161" y="550" type="line"/>
	  <point x="210" y="601"/>
	  <point x="252" y="625"/>
	  <point x="320" y="625" type="curve" smooth="yes"/>
	  <point x="393" y="625"/>
	  <point x="430" y="582"/>
	  <point x="420" y="509" type="curve" smooth="yes"/>
	  <point x="404" y="398"/>
	  <point x="334" y="321"/>
	  <point x="44" y="75" type="curve"/>
	  <point x="34" y="0" type="line"/>
	  <point x="449" y="0" type="line"/>
	  <point x="471" y="77" type="line"/>
	  <point x="152" y="75" type="line"/>
	  <point x="405" y="280"/>
	  <point x="497" y="380"/>
	  <point x="515" y="503" type="curve" smooth="yes"/>
	  <point x="530" y="614"/>
	  <point x="462" y="701"/>
	  <point x="327" y="701" type="curve" smooth="yes"/>
	</contour>
  </outline>
</glyph>
<glyph name="three" format="1">
  <advance width="600"/>
  <unicode hex="0033"/>
  <outline>
	<contour>
	  <point x="255" y="701"/>
	  <point x="185" y="678"/>
	  <point x="118" y="622" type="curve"/>
	  <point x="163" y="563" type="line"/>
	  <point x="213" y="605"/>
	  <point x="258" y="628"/>
	  <point x="319" y="628" type="curve" smooth="yes"/>
	  <point x="388" y="628"/>
	  <point x="437" y="591"/>
	  <point x="427" y="520" type="curve" smooth="yes"/>
	  <point x="416" y="438"/>
	  <point x="346" y="398"/>
	  <point x="280" y="398" type="curve" smooth="yes"/>
	  <point x="241" y="398" type="line"/>
	  <point x="220" y="327" type="line"/>
	  <point x="280" y="327" type="line" smooth="yes"/>
	  <point x="361" y="327"/>
	  <point x="414" y="298"/>
	  <point x="401" y="204" type="curve" smooth="yes"/>
	  <point x="389" y="118"/>
	  <point x="323" y="63"/>
	  <point x="228" y="63" type="curve" smooth="yes"/>
	  <point x="174" y="63"/>
	  <point x="121" y="83"/>
	  <point x="88" y="129" type="curve"/>
	  <point x="24" y="83" type="line"/>
	  <point x="68" y="19"/>
	  <point x="146" y="-12"/>
	  <point x="228" y="-12" type="curve" smooth="yes"/>
	  <point x="371" y="-12"/>
	  <point x="479" y="76"/>
	  <point x="495" y="193" type="curve" smooth="yes"/>
	  <point x="510" y="302"/>
	  <point x="442" y="360"/>
	  <point x="362" y="366" type="curve"/>
	  <point x="441" y="382"/>
	  <point x="508" y="441"/>
	  <point x="519" y="523" type="curve" smooth="yes"/>
	  <point x="533" y="619"/>
	  <point x="460" y="701"/>
	  <point x="326" y="701" type="curve" smooth="yes"/>
	</contour>
  </outline>
</glyph>
<glyph name="five" format="1">
  <advance width="600"/>
  <unicode hex="0035"/>
  <outline>
	<contour>
	  <point x="179" y="689" type="line"/>
	  <point x="130" y="342" type="line"/>
	  <point x="204" y="341" type="line"/>
	  <point x="245" y="356"/>
	  <point x="273" y="365"/>
	  <point x="314" y="365" type="curve" smooth="yes"/>
	  <point x="380" y="365"/>
	  <point x="427" y="332"/>
	  <point x="412" y="226" type="curve" smooth="yes"/>
	  <point x="397" y="121"/>
	  <point x="334" y="63"/>
	  <point x="243" y="63" type="curve" smooth="yes"/>
	  <point x="187" y="63"/>
	  <point x="143" y="82"/>
	  <point x="109" y="125" type="curve"/>
	  <point x="48" y="75" type="line"/>
	  <point x="93" y="22"/>
	  <point x="154" y="-12"/>
	  <point x="241" y="-12" type="curve" smooth="yes"/>
	  <point x="383" y="-12"/>
	  <point x="487" y="78"/>
	  <point x="506" y="214" type="curve" smooth="yes"/>
	  <point x="526" y="354"/>
	  <point x="458" y="436"/>
	  <point x="344" y="436" type="curve" smooth="yes"/>
	  <point x="306" y="436"/>
	  <point x="269" y="430"/>
	  <point x="225" y="408" type="curve"/>
	  <point x="257" y="617" type="line"/>
	  <point x="527" y="617" type="line"/>
	  <point x="550" y="689" type="line"/>
	</contour>
  </outline>
</glyph>
<glyph name="six" format="1">
  <advance width="600"/>
  <unicode hex="0036"/>
  <outline>
	<contour>
	  <point x="232" y="701"/>
	  <point x="117" y="556"/>
	  <point x="85" y="329" type="curve" smooth="yes"/>
	  <point x="57" y="125"/>
	  <point x="102" y="-12"/>
	  <point x="273" y="-12" type="curve" smooth="yes"/>
	  <point x="394" y="-12"/>
	  <point x="502" y="78"/>
	  <point x="523" y="227" type="curve" smooth="yes"/>
	  <point x="544" y="376"/>
	  <point x="463" y="450"/>
	  <point x="355" y="450" type="curve"/>
	  <point x="286" y="450"/>
	  <point x="225" y="421"/>
	  <point x="170" y="347" type="curve"/>
	  <point x="162" y="266" type="line"/>
	  <point x="204" y="330"/>
	  <point x="266" y="377"/>
	  <point x="337" y="377" type="curve"/>
	  <point x="405" y="377"/>
	  <point x="445" y="343"/>
	  <point x="430" y="234" type="curve" smooth="yes"/>
	  <point x="415" y="129"/>
	  <point x="362" y="61"/>
	  <point x="276" y="61" type="curve" smooth="yes"/>
	  <point x="179" y="61"/>
	  <point x="152" y="134"/>
	  <point x="175" y="302" type="curve"/>
	  <point x="179" y="336" type="line"/>
	  <point x="203" y="512"/>
	  <point x="282" y="628"/>
	  <point x="391" y="628" type="curve"/>
	  <point x="426" y="628"/>
	  <point x="460" y="619"/>
	  <point x="488" y="600" type="curve"/>
	  <point x="530" y="659" type="line"/>
	  <point x="493" y="685"/>
	  <point x="450" y="701"/>
	  <point x="394" y="701" type="curve"/>
	</contour>
  </outline>
</glyph>
<glyph name="seven" format="1">
  <advance width="600"/>
  <unicode hex="0037"/>
  <outline>
	<contour>
	  <point x="559" y="620" type="line"/>
	  <point x="568" y="689" type="line"/>
	  <point x="154" y="689" type="line"/>
	  <point x="143" y="614" type="line"/>
	  <point x="463" y="614" type="line"/>
	  <point x="112" y="16" type="line"/>
	  <point x="197" y="-10" type="line"/>
	</contour>
  </outline>
</glyph>
<glyph name="eight" format="1">
  <advance width="600"/>
  <unicode hex="0038"/>
  <outline>
	<contour>
	  <point x="562" y="643"/>
	  <point x="463" y="701"/>
	  <point x="357" y="701" type="curve" smooth="yes"/>
	  <point x="264" y="701"/>
	  <point x="145" y="648"/>
	  <point x="128" y="525" type="curve" smooth="yes"/>
	  <point x="117" y="446"/>
	  <point x="148" y="399"/>
	  <point x="214" y="364" type="curve"/>
	  <point x="124" y="325"/>
	  <point x="64" y="270"/>
	  <point x="52" y="188" type="curve" smooth="yes"/>
	  <point x="37" y="77"/>
	  <point x="111" y="-12"/>
	  <point x="263" y="-12" type="curve" smooth="yes"/>
	  <point x="409" y="-12"/>
	  <point x="510" y="70"/>
	  <point x="525" y="180" type="curve" smooth="yes"/>
	  <point x="537" y="266"/>
	  <point x="488" y="331"/>
	  <point x="406" y="368" type="curve"/>
	  <point x="490" y="411"/>
	  <point x="536" y="455"/>
	  <point x="545" y="520" type="curve" smooth="yes"/>
	</contour>
	<contour>
	  <point x="420" y="117"/>
	  <point x="361" y="61"/>
	  <point x="266" y="61" type="curve" smooth="yes"/>
	  <point x="176" y="61"/>
	  <point x="137" y="105"/>
	  <point x="147" y="179" type="curve" smooth="yes"/>
	  <point x="159" y="264"/>
	  <point x="215" y="309"/>
	  <point x="276" y="336" type="curve"/>
	  <point x="376" y="300"/>
	  <point x="443" y="277"/>
	  <point x="431" y="189" type="curve" smooth="yes"/>
	</contour>
	<contour>
	  <point x="226" y="587"/>
	  <point x="279" y="631"/>
	  <point x="356" y="631" type="curve" smooth="yes"/>
	  <point x="430" y="631"/>
	  <point x="465" y="591"/>
	  <point x="456" y="526" type="curve" smooth="yes"/>
	  <point x="447" y="464"/>
	  <point x="410" y="430"/>
	  <point x="341" y="393" type="curve"/>
	  <point x="256" y="422"/>
	  <point x="206" y="440"/>
	  <point x="216" y="514" type="curve" smooth="yes"/>
	</contour>
  </outline>
</glyph>
<glyph name="nine" format="1">
  <advance width="600"/>
  <unicode hex="0039"/>
  <outline>
	<contour>
	  <point x="223" y="700"/>
	  <point x="114" y="622"/>
	  <point x="94" y="476" type="curve"/>
	  <point x="74" y="337"/>
	  <point x="147" y="250"/>
	  <point x="263" y="251" type="curve" smooth="yes"/>
	  <point x="338" y="252"/>
	  <point x="398" y="290"/>
	  <point x="436" y="336" type="curve"/>
	  <point x="451" y="422" type="line"/>
	  <point x="405" y="364"/>
	  <point x="353" y="324"/>
	  <point x="284" y="323" type="curve" smooth="yes"/>
	  <point x="211" y="322"/>
	  <point x="173" y="363"/>
	  <point x="187" y="464" type="curve"/>
	  <point x="202" y="570"/>
	  <point x="257" y="627"/>
	  <point x="345" y="627" type="curve" smooth="yes"/>
	  <point x="441" y="627"/>
	  <point x="472" y="569"/>
	  <point x="440" y="390" type="curve"/>
	  <point x="432" y="344" type="line"/>
	  <point x="407" y="178"/>
	  <point x="284" y="97"/>
	  <point x="92" y="48" type="curve"/>
	  <point x="108" y="-23" type="line"/>
	  <point x="378" y="48"/>
	  <point x="501" y="139"/>
	  <point x="541" y="428" type="curve" smooth="yes"/>
	  <point x="564" y="594"/>
	  <point x="504" y="700"/>
	  <point x="347" y="700" type="curve" smooth="yes"/>
	</contour>
  </outline>
</glyph>
<glyph name="colon" format="1">
  <advance width="600"/>
  <unicode hex="003A"/>
  <outline>
	<contour>
	  <point x="183" y="28"/>
	  <point x="215" y="-12"/>
	  <point x="264" y="-12" type="curve" smooth="yes"/>
	  <point x="310" y="-12"/>
	  <point x="349" y="22"/>
	  <point x="355" y="67" type="curve" smooth="yes"/>
	  <point x="362" y="114"/>
	  <point x="330" y="155"/>
	  <point x="280" y="155" type="curve" smooth="yes"/>
	  <point x="235" y="155"/>
	  <point x="196" y="120"/>
	  <point x="190" y="77" type="curve" smooth="yes"/>
	</contour>
	<contour>
	  <point x="233" y="388"/>
	  <point x="266" y="347"/>
	  <point x="315" y="347" type="curve" smooth="yes"/>
	  <point x="361" y="347"/>
	  <point x="400" y="382"/>
	  <point x="406" y="426" type="curve" smooth="yes"/>
	  <point x="413" y="474"/>
	  <point x="380" y="514"/>
	  <point x="330" y="514" type="curve" smooth="yes"/>
	  <point x="285" y="514"/>
	  <point x="246" y="480"/>
	  <point x="240" y="436" type="curve" smooth="yes"/>
	</contour>
  </outline>
</glyph>
<glyph name="semicolon" format="1">
  <advance width="600"/>
  <unicode hex="003B"/>
  <outline>
	<contour>
	  <point x="237" y="169"/>
	  <point x="198" y="135"/>
	  <point x="192" y="91" type="curve" smooth="yes"/>
	  <point x="188" y="61"/>
	  <point x="199" y="33"/>
	  <point x="217" y="18" type="curve"/>
	  <point x="139" y="-182" type="line"/>
	  <point x="219" y="-182" type="line"/>
	  <point x="326" y="-1" type="line" smooth="yes"/>
	  <point x="346" y="34"/>
	  <point x="354" y="57"/>
	  <point x="357" y="81" type="curve" smooth="yes"/>
	  <point x="364" y="129"/>
	  <point x="332" y="169"/>
	  <point x="282" y="169" type="curve" smooth="yes"/>
	</contour>
	<contour>
	  <point x="285" y="514"/>
	  <point x="246" y="480"/>
	  <point x="240" y="436" type="curve" smooth="yes"/>
	  <point x="233" y="388"/>
	  <point x="266" y="347"/>
	  <point x="315" y="347" type="curve" smooth="yes"/>
	  <point x="361" y="347"/>
	  <point x="400" y="382"/>
	  <point x="406" y="426" type="curve" smooth="yes"/>
	  <point x="413" y="474"/>
	  <point x="380" y="514"/>
	  <point x="330" y="514" type="curve" smooth="yes"/>
	</contour>
  </outline>
</glyph>
<glyph name="less" format="1">
  <advance width="600"/>
  <unicode hex="003C"/>
  <outline>
	<contour>
	  <point x="99" y="358" type="line"/>
	  <point x="87" y="269" type="line"/>
	  <point x="435" y="31" type="line"/>
	  <point x="492" y="98" type="line"/>
	  <point x="172" y="313" type="line"/>
	  <point x="552" y="527" type="line"/>
	  <point x="517" y="596" type="line"/>
	</contour>
  </outline>
</glyph>
<glyph name="equal" format="1">
  <advance width="600"/>
  <unicode hex="003D"/>
  <outline>
	<contour>
	  <point x="128" y="446" type="line"/>
	  <point x="117" y="368" type="line"/>
	  <point x="513" y="368" type="line"/>
	  <point x="524" y="446" type="line"/>
	</contour>
	<contour>
	  <point x="101" y="254" type="line"/>
	  <point x="90" y="176" type="line"/>
	  <point x="486" y="176" type="line"/>
	  <point x="497" y="254" type="line"/>
	</contour>
  </outline>
</glyph>
<glyph name="greater" format="1">
  <advance width="600"/>
  <unicode hex="003E"/>
  <outline>
	<contour>
	  <point x="123" y="527" type="line"/>
	  <point x="443" y="313" type="line"/>
	  <point x="63" y="98" type="line"/>
	  <point x="102" y="31" type="line"/>
	  <point x="516" y="269" type="line"/>
	  <point x="528" y="358" type="line"/>
	  <point x="176" y="596" type="line"/>
	</contour>
  </outline>
</glyph>
<glyph name="question" format="1">
  <advance width="600"/>
  <unicode hex="003F"/>
  <outline>
	<contour>
	  <point x="275" y="701"/>
	  <point x="200" y="671"/>
	  <point x="133" y="603" type="curve"/>
	  <point x="192" y="551" type="line"/>
	  <point x="239" y="601"/>
	  <point x="296" y="625"/>
	  <point x="345" y="625" type="curve" smooth="yes"/>
	  <point x="408" y="625"/>
	  <point x="451" y="597"/>
	  <point x="443" y="544" type="curve" smooth="yes"/>
	  <point x="428" y="432"/>
	  <point x="252" y="434"/>
	  <point x="229" y="271" type="curve" smooth="yes"/>
	  <point x="223" y="230" type="line"/>
	  <point x="314" y="230" type="line"/>
	  <point x="319" y="260" type="line" smooth="yes"/>
	  <point x="339" y="403"/>
	  <point x="517" y="382"/>
	  <point x="539" y="540" type="curve" smooth="yes"/>
	  <point x="550" y="622"/>
	  <point x="484" y="701"/>
	  <point x="356" y="701" type="curve" smooth="yes"/>
	</contour>
	<contour>
	  <point x="216" y="127"/>
	  <point x="184" y="99"/>
	  <point x="179" y="63" type="curve" smooth="yes"/>
	  <point x="173" y="22"/>
	  <point x="200" y="-12"/>
	  <point x="241" y="-12" type="curve" smooth="yes"/>
	  <point x="279" y="-12"/>
	  <point x="311" y="16"/>
	  <point x="316" y="53" type="curve" smooth="yes"/>
	  <point x="322" y="93"/>
	  <point x="295" y="127"/>
	  <point x="253" y="127" type="curve" smooth="yes"/>
	</contour>
  </outline>
</glyph>
<glyph name="at" format="1">
  <advance width="600"/>
  <unicode hex="0040"/>
  <outline>
	<contour>
	  <point x="252" y="701"/>
	  <point x="153" y="671"/>
	  <point x="52" y="593" type="curve"/>
	  <point x="98" y="531" type="line"/>
	  <point x="192" y="605"/>
	  <point x="271" y="625"/>
	  <point x="339" y="625" type="curve" smooth="yes"/>
	  <point x="518" y="625"/>
	  <point x="527" y="480"/>
	  <point x="501" y="289" type="curve" smooth="yes"/>
	  <point x="476" y="112"/>
	  <point x="455" y="-20"/>
	  <point x="393" y="-20" type="curve" smooth="yes"/>
	  <point x="357" y="-20"/>
	  <point x="333" y="1"/>
	  <point x="348" y="105" type="curve" smooth="yes"/>
	  <point x="388" y="403" type="line"/>
	  <point x="336" y="433"/>
	  <point x="296" y="442"/>
	  <point x="247" y="442" type="curve" smooth="yes"/>
	  <point x="123" y="442"/>
	  <point x="41" y="359"/>
	  <point x="17" y="188" type="curve" smooth="yes"/>
	  <point x="-1" y="54"/>
	  <point x="29" y="-46"/>
	  <point x="141" y="-46" type="curve" smooth="yes"/>
	  <point x="218" y="-46"/>
	  <point x="262" y="2"/>
	  <point x="288" y="49" type="curve"/>
	  <point x="292" y="54" type="line"/>
	  <point x="284" y="2"/>
	  <point x="308" y="-91"/>
	  <point x="393" y="-91" type="curve" smooth="yes"/>
	  <point x="512" y="-91"/>
	  <point x="554" y="31"/>
	  <point x="589" y="281" type="curve" smooth="yes"/>
	  <point x="619" y="492"/>
	  <point x="599" y="701"/>
	  <point x="341" y="701" type="curve" smooth="yes"/>
	</contour>
	<contour>
	  <point x="270" y="376"/>
	  <point x="287" y="373"/>
	  <point x="306" y="363" type="curve"/>
	  <point x="267" y="109" type="line"/>
	  <point x="252" y="80"/>
	  <point x="223" y="21"/>
	  <point x="154" y="21" type="curve" smooth="yes"/>
	  <point x="98" y="21"/>
	  <point x="91" y="83"/>
	  <point x="104" y="178" type="curve" smooth="yes"/>
	  <point x="122" y="309"/>
	  <point x="160" y="376"/>
	  <point x="249" y="376" type="curve" smooth="yes"/>
	</contour>
  </outline>
</glyph>
<glyph name="A" format="1">
  <advance width="600"/>
  <unicode hex="0041"/>
  <outline>
	<contour>
	  <point x="447" y="0" type="line"/>
	  <point x="545" y="0" type="line"/>
	  <point x="419" y="689" type="line"/>
	  <point x="299" y="689" type="line"/>
	  <point x="-21" y="0" type="line"/>
	  <point x="76" y="0" type="line"/>
	  <point x="153" y="173" type="line"/>
	  <point x="418" y="173" type="line"/>
	</contour>
	<contour>
	  <point x="348" y="611" type="line"/>
	  <point x="406" y="250" type="line"/>
	  <point x="187" y="250" type="line"/>
	</contour>
	<contour>
	  <point x="474" y="0" type="move" name="ogonek"/>
	</contour>
	<contour>
	  <point x="420" y="689" type="move" name="top"/>
	</contour>
	<contour>
	  <point x="316" y="689" type="move" name="topleft"/>
	</contour>
  </outline>
</glyph>
<glyph name="B" format="1">
  <advance width="600"/>
  <unicode hex="0042"/>
  <outline>
	<contour>
	  <point x="420" y="99"/>
	  <point x="334" y="77"/>
	  <point x="267" y="77" type="curve" smooth="yes"/>
	  <point x="161" y="77" type="line"/>
	  <point x="195" y="322" type="line"/>
	  <point x="309" y="322" type="line" smooth="yes"/>
	  <point x="388" y="322"/>
	  <point x="448" y="299"/>
	  <point x="434" y="200" type="curve" smooth="yes"/>
	</contour>
	<contour>
	  <point x="440" y="434"/>
	  <point x="389" y="398"/>
	  <point x="309" y="398" type="curve" smooth="yes"/>
	  <point x="206" y="398" type="line"/>
	  <point x="236" y="614" type="line"/>
	  <point x="335" y="614" type="line" smooth="yes"/>
	  <point x="417" y="614"/>
	  <point x="462" y="588"/>
	  <point x="451" y="514" type="curve" smooth="yes"/>
	</contour>
	<contour>
	  <point x="550" y="310"/>
	  <point x="471" y="352"/>
	  <point x="399" y="364" type="curve"/>
	  <point x="469" y="379"/>
	  <point x="536" y="424"/>
	  <point x="548" y="510" type="curve" smooth="yes"/>
	  <point x="567" y="647"/>
	  <point x="448" y="689"/>
	  <point x="325" y="689" type="curve" smooth="yes"/>
	  <point x="152" y="689" type="line"/>
	  <point x="55" y="0" type="line"/>
	  <point x="247" y="0" type="line" smooth="yes"/>
	  <point x="376" y="0"/>
	  <point x="512" y="43"/>
	  <point x="533" y="192" type="curve" smooth="yes"/>
	</contour>
  </outline>
</glyph>
<glyph name="C" format="2">
  <advance width="600"/>
  <unicode hex="0043"/>
  <anchor x="262" y="0" name="Anchor-1"/>
  <anchor x="471" y="689" name="Anchor-0"/>
  <outline>
    <contour>
      <point x="58" y="350" type="curve" smooth="yes"/>
      <point x="90" y="580"/>
      <point x="241" y="701"/>
      <point x="401" y="701" type="curve" smooth="yes"/>
      <point x="494" y="701"/>
      <point x="547" y="675"/>
      <point x="597" y="631" type="curve"/>
      <point x="540" y="574" type="line"/>
      <point x="502" y="610"/>
      <point x="456" y="623"/>
      <point x="405" y="623" type="curve" smooth="yes"/>
      <point x="293" y="623"/>
      <point x="185" y="548"/>
      <point x="156" y="340" type="curve" smooth="yes"/>
      <point x="128" y="141"/>
      <point x="205" y="68"/>
      <point x="318" y="68" type="curve" smooth="yes"/>
      <point x="396" y="68"/>
      <point x="446" y="98"/>
      <point x="487" y="128" type="curve"/>
      <point x="529" y="63" type="line"/>
      <point x="480" y="21"/>
      <point x="409" y="-12"/>
      <point x="312" y="-12" type="curve" smooth="yes"/>
      <point x="140" y="-12"/>
      <point x="25" y="116"/>
    </contour>
  </outline>
</glyph>
<glyph name="D" format="1">
  <advance width="600"/>
  <unicode hex="0044"/>
  <outline>
	<contour>
	  <point x="435" y="128"/>
	  <point x="322" y="75"/>
	  <point x="224" y="75" type="curve" smooth="yes"/>
	  <point x="149" y="75" type="line"/>
	  <point x="224" y="613" type="line"/>
	  <point x="302" y="613" type="line" smooth="yes"/>
	  <point x="396" y="613"/>
	  <point x="499" y="585"/>
	  <point x="467" y="353" type="curve" smooth="yes"/>
	</contour>
	<contour>
	  <point x="607" y="631"/>
	  <point x="451" y="689"/>
	  <point x="288" y="689" type="curve" smooth="yes"/>
	  <point x="140" y="689" type="line"/>
	  <point x="43" y="0" type="line"/>
	  <point x="206" y="0" type="line" smooth="yes"/>
	  <point x="352" y="0"/>
	  <point x="526" y="57"/>
	  <point x="566" y="343" type="curve" smooth="yes"/>
	</contour>
	<contour>
	  <point x="322" y="345" type="move" name="center"/>
	</contour>
	<contour>
	  <point x="404" y="689" type="move" name="top"/>
	</contour>
  </outline>
</glyph>
<glyph name="E" format="1">
  <advance width="600"/>
  <unicode hex="0045"/>
  <outline>
	<contour>
	  <point x="558" y="613" type="line"/>
	  <point x="580" y="689" type="line"/>
	  <point x="182" y="689" type="line"/>
	  <point x="85" y="0" type="line"/>
	  <point x="491" y="0" type="line"/>
	  <point x="502" y="75" type="line"/>
	  <point x="191" y="75" type="line"/>
	  <point x="224" y="312" type="line"/>
	  <point x="478" y="312" type="line"/>
	  <point x="488" y="388" type="line"/>
	  <point x="234" y="388" type="line"/>
	  <point x="266" y="613" type="line"/>
	</contour>
	<contour>
	  <point x="404" y="0" type="move" name="ogonek"/>
	</contour>
	<contour>
	  <point x="441" y="689" type="move" name="top"/>
	</contour>
	<contour>
	  <point x="232" y="689" type="move" name="topleft"/>
	</contour>
	<contour>
	  <point x="251" y="0" type="move" name="bottom"/>
	</contour>
  </outline>
</glyph>
<glyph name="F" format="2">
  <advance width="600"/>
  <unicode hex="0046"/>
  <outline>
    <contour>
      <point x="574" y="613" type="line"/>
      <point x="269" y="613" type="line"/>
      <point x="236" y="378" type="line"/>
      <point x="503" y="378" type="line"/>
      <point x="493" y="303" type="line"/>
      <point x="226" y="303" type="line"/>
      <point x="183" y="0" type="line"/>
      <point x="88" y="0" type="line"/>
      <point x="185" y="689" type="line"/>
      <point x="596" y="689" type="line"/>
    </contour>
  </outline>
</glyph>
<glyph name="G" format="1">
  <advance width="600"/>
  <unicode hex="0047"/>
  <outline>
	<contour>
	  <point x="375" y="-12"/>
	  <point x="446" y="13"/>
	  <point x="514" y="48" type="curve"/>
	  <point x="558" y="379" type="line"/>
	  <point x="323" y="379" type="line"/>
	  <point x="323" y="302" type="line"/>
	  <point x="453" y="302" type="line"/>
	  <point x="423" y="99" type="line"/>
	  <point x="382" y="78"/>
	  <point x="338" y="66"/>
	  <point x="290" y="66" type="curve" smooth="yes"/>
	  <point x="175" y="66"/>
	  <point x="127" y="144"/>
	  <point x="155" y="340" type="curve" smooth="yes"/>
	  <point x="184" y="550"/>
	  <point x="290" y="623"/>
	  <point x="391" y="623" type="curve" smooth="yes"/>
	  <point x="445" y="623"/>
	  <point x="486" y="607"/>
	  <point x="523" y="568" type="curve"/>
	  <point x="583" y="622" type="line"/>
	  <point x="535" y="672"/>
	  <point x="485" y="701"/>
	  <point x="392" y="701" type="curve" smooth="yes"/>
	  <point x="242" y="701"/>
	  <point x="88" y="585"/>
	  <point x="55" y="350" type="curve" smooth="yes"/>
	  <point x="21" y="110"/>
	  <point x="111" y="-12"/>
	  <point x="280" y="-12" type="curve" smooth="yes"/>
	</contour>
	<contour>
	  <point x="450" y="689" type="move" name="top"/>
	</contour>
	<contour>
	  <point x="256" y="0" type="move" name="bottom"/>
	</contour>
  </outline>
</glyph>
<glyph name="H" format="1">
  <advance width="600"/>
  <unicode hex="0048"/>
  <outline>
	<contour>
	  <point x="483" y="0" type="line"/>
	  <point x="580" y="689" type="line"/>
	  <point x="485" y="689" type="line"/>
	  <point x="444" y="401" type="line"/>
	  <point x="194" y="401" type="line"/>
	  <point x="235" y="689" type="line"/>
	  <point x="140" y="689" type="line"/>
	  <point x="43" y="0" type="line"/>
	  <point x="138" y="0" type="line"/>
	  <point x="183" y="323" type="line"/>
	  <point x="433" y="323" type="line"/>
	  <point x="388" y="0" type="line"/>
	</contour>
	<contour>
	  <point x="322" y="345" type="move" name="center"/>
	</contour>
	<contour>
	  <point x="456" y="0" type="move" name="bottomright"/>
	</contour>
	<contour>
	  <point x="420" y="689" type="move" name="top"/>
	</contour>
  </outline>
</glyph>
<glyph name="I" format="1">
  <advance width="600"/>
  <unicode hex="0049"/>
  <outline>
	<contour>
	  <point x="160" y="689" type="line"/>
	  <point x="149" y="614" type="line"/>
	  <point x="301" y="614" type="line"/>
	  <point x="226" y="75" type="line"/>
	  <point x="74" y="75" type="line"/>
	  <point x="63" y="0" type="line"/>
	  <point x="463" y="0" type="line"/>
	  <point x="474" y="75" type="line"/>
	  <point x="322" y="75" type="line"/>
	  <point x="397" y="614" type="line"/>
	  <point x="549" y="614" type="line"/>
	  <point x="560" y="689" type="line"/>
	</contour>
	<contour>
	  <point x="284" y="0" type="move" name="ogonek"/>
	</contour>
	<contour>
	  <point x="420" y="689" type="move" name="top"/>
	</contour>
  </outline>
</glyph>
<glyph name="J" format="1">
  <advance width="600"/>
  <unicode hex="004A"/>
  <outline>
	<contour>
	  <point x="260" y="689" type="line"/>
	  <point x="249" y="613" type="line"/>
	  <point x="454" y="613" type="line"/>
	  <point x="401" y="238" type="line" smooth="yes"/>
	  <point x="387" y="132"/>
	  <point x="321" y="66"/>
	  <point x="226" y="66" type="curve" smooth="yes"/>
	  <point x="186" y="66"/>
	  <point x="140" y="75"/>
	  <point x="87" y="112" type="curve"/>
	  <point x="40" y="53" type="line"/>
	  <point x="91" y="12"/>
	  <point x="153" y="-12"/>
	  <point x="225" y="-12" type="curve" smooth="yes"/>
	  <point x="404" y="-12"/>
	  <point x="478" y="108"/>
	  <point x="495" y="228" type="curve" smooth="yes"/>
	  <point x="560" y="689" type="line"/>
	</contour>
	<contour>
	  <point x="470" y="689" type="move" name="top"/>
	</contour>
  </outline>
</glyph>
<glyph name="K" format="2">
  <advance width="600"/>
  <unicode hex="004B"/>
  <anchor x="209" y="0" name="Anchor-1"/>
  <anchor x="407" y="689" name="Anchor-0"/>
  <outline>
    <contour>
      <point x="218" y="689" type="line"/>
      <point x="121" y="0" type="line"/>
      <point x="26" y="0" type="line"/>
      <point x="123" y="689" type="line"/>
    </contour>
    <contour>
      <point x="399" y="0" type="line"/>
      <point x="178" y="368" type="line"/>
      <point x="484" y="689" type="line"/>
      <point x="594" y="689" type="line"/>
      <point x="288" y="374" type="line"/>
      <point x="514" y="0" type="line"/>
    </contour>
  </outline>
</glyph>
<glyph name="L" format="1">
  <advance width="600"/>
  <unicode hex="004C"/>
  <outline>
	<contour>
	  <point x="491" y="0" type="line"/>
	  <point x="514" y="83" type="line"/>
	  <point x="201" y="83" type="line"/>
	  <point x="286" y="689" type="line"/>
	  <point x="191" y="689" type="line"/>
	  <point x="94" y="0" type="line"/>
	</contour>
	<contour>
	  <point x="503" y="380" type="move" name="center"/>
	</contour>
	<contour>
	  <point x="299" y="689" type="move" name="top"/>
	</contour>
	<contour>
	  <point x="396" y="689" type="move" name="topright"/>
	</contour>
	<contour>
	  <point x="256" y="0" type="move" name="bottom"/>
	</contour>
  </outline>
</glyph>
<glyph name="M" format="1">
  <advance width="600"/>
  <unicode hex="004D"/>
  <outline>
	<contour>
	  <point x="465" y="689" type="line"/>
	  <point x="295" y="220" type="line"/>
	  <point x="254" y="689" type="line"/>
	  <point x="128" y="689" type="line"/>
	  <point x="-8" y="0" type="line"/>
	  <point x="80" y="0" type="line"/>
	  <point x="146" y="350" type="line" smooth="yes"/>
	  <point x="163" y="439"/>
	  <point x="178" y="557"/>
	  <point x="181" y="581" type="curve"/>
	  <point x="186" y="584" type="line"/>
	  <point x="234" y="123" type="line"/>
	  <point x="325" y="123" type="line"/>
	  <point x="499" y="584" type="line"/>
	  <point x="502" y="587" type="line"/>
	  <point x="498" y="565"/>
	  <point x="483" y="453"/>
	  <point x="474" y="356" type="curve" smooth="yes"/>
	  <point x="444" y="0" type="line"/>
	  <point x="534" y="0" type="line"/>
	  <point x="592" y="689" type="line"/>
	</contour>
  </outline>
</glyph>
<glyph name="O" format="1">
  <advance width="600"/>
  <unicode hex="004F"/>
  <outline>
	<contour>
	  <point x="597" y="555"/>
	  <point x="528" y="701"/>
	  <point x="357" y="701" type="curve" smooth="yes"/>
	  <point x="190" y="701"/>
	  <point x="85" y="556"/>
	  <point x="56" y="348" type="curve" smooth="yes"/>
	  <point x="26" y="132"/>
	  <point x="94" y="-12"/>
	  <point x="265" y="-12" type="curve" smooth="yes"/>
	  <point x="432" y="-12"/>
	  <point x="537" y="131"/>
	  <point x="567" y="339" type="curve" smooth="yes"/>
	</contour>
	<contour>
	  <point x="443" y="165"/>
	  <point x="382" y="66"/>
	  <point x="268" y="66" type="curve" smooth="yes"/>
	  <point x="161" y="66"/>
	  <point x="128" y="158"/>
	  <point x="153" y="338" type="curve" smooth="yes"/>
	  <point x="179" y="522"/>
	  <point x="241" y="623"/>
	  <point x="355" y="623" type="curve" smooth="yes"/>
	  <point x="465" y="623"/>
	  <point x="494" y="529"/>
	  <point x="469" y="349" type="curve" smooth="yes"/>
	</contour>
	<contour>
	  <point x="420" y="689" type="move" name="top"/>
	</contour>
  </outline>
</glyph>
<glyph name="P" format="1">
  <advance width="600"/>
  <unicode hex="0050"/>
  <outline>
	<contour>
	  <point x="472" y="364"/>
	  <point x="398" y="328"/>
	  <point x="305" y="328" type="curve" smooth="yes"/>
	  <point x="214" y="328" type="line"/>
	  <point x="254" y="615" type="line"/>
	  <point x="351" y="615" type="line" smooth="yes"/>
	  <point x="443" y="615"/>
	  <point x="503" y="581"/>
	  <point x="488" y="480" type="curve" smooth="yes"/>
	</contour>
	<contour>
	  <point x="609" y="618"/>
	  <point x="515" y="689"/>
	  <point x="348" y="689" type="curve" smooth="yes"/>
	  <point x="170" y="689" type="line"/>
	  <point x="73" y="0" type="line"/>
	  <point x="168" y="0" type="line"/>
	  <point x="204" y="253" type="line"/>
	  <point x="293" y="253" type="line" smooth="yes"/>
	  <point x="449" y="253"/>
	  <point x="566" y="312"/>
	  <point x="588" y="471" type="curve" smooth="yes"/>
	</contour>
  </outline>
</glyph>
<glyph name="R" format="1">
  <advance width="600"/>
  <unicode hex="0052"/>
  <outline>
	<contour>
	  <point x="590" y="620"/>
	  <point x="508" y="689"/>
	  <point x="336" y="689" type="curve" smooth="yes"/>
	  <point x="157" y="689" type="line"/>
	  <point x="60" y="0" type="line"/>
	  <point x="155" y="0" type="line"/>
	  <point x="196" y="292" type="line"/>
	  <point x="285" y="292" type="line"/>
	  <point x="428" y="0" type="line"/>
	  <point x="539" y="0" type="line"/>
	  <point x="382" y="303" type="line"/>
	  <point x="479" y="327"/>
	  <point x="557" y="388"/>
	  <point x="572" y="489" type="curve" smooth="yes"/>
	</contour>
	<contour>
	  <point x="459" y="404"/>
	  <point x="396" y="365"/>
	  <point x="300" y="365" type="curve" smooth="yes"/>
	  <point x="206" y="365" type="line"/>
	  <point x="241" y="615" type="line"/>
	  <point x="338" y="615" type="line" smooth="yes"/>
	  <point x="441" y="615"/>
	  <point x="484" y="583"/>
	  <point x="472" y="499" type="curve" smooth="yes"/>
	</contour>
	<contour>
	  <point x="420" y="689" type="move" name="top"/>
	</contour>
	<contour>
	  <point x="226" y="0" type="move" name="bottom"/>
	</contour>
  </outline>
</glyph>
<glyph name="S" format="1">
  <advance width="600"/>
  <unicode hex="0053"/>
  <outline>
	<contour>
	  <point x="548" y="320"/>
	  <point x="461" y="368"/>
	  <point x="353" y="400" type="curve" smooth="yes"/>
	  <point x="232" y="438"/>
	  <point x="196" y="464"/>
	  <point x="204" y="520" type="curve" smooth="yes"/>
	  <point x="214" y="588"/>
	  <point x="281" y="623"/>
	  <point x="357" y="623" type="curve" smooth="yes"/>
	  <point x="413" y="623"/>
	  <point x="468" y="606"/>
	  <point x="511" y="563" type="curve"/>
	  <point x="570" y="619" type="line"/>
	  <point x="518" y="670"/>
	  <point x="453" y="701"/>
	  <point x="355" y="701" type="curve" smooth="yes"/>
	  <point x="224" y="701"/>
	  <point x="123" y="630"/>
	  <point x="108" y="526" type="curve" smooth="yes"/>
	  <point x="92" y="415"/>
	  <point x="170" y="362"/>
	  <point x="305" y="321" type="curve" smooth="yes"/>
	  <point x="414" y="287"/>
	  <point x="440" y="257"/>
	  <point x="431" y="194" type="curve" smooth="yes"/>
	  <point x="419" y="109"/>
	  <point x="338" y="66"/>
	  <point x="254" y="66" type="curve" smooth="yes"/>
	  <point x="173" y="66"/>
	  <point x="117" y="92"/>
	  <point x="75" y="137" type="curve"/>
	  <point x="15" y="79" type="line"/>
	  <point x="65" y="23"/>
	  <point x="144" y="-12"/>
	  <point x="250" y="-12" type="curve" smooth="yes"/>
	  <point x="410" y="-12"/>
	  <point x="513" y="69"/>
	  <point x="529" y="187" type="curve" smooth="yes"/>
	</contour>
	<contour>
	  <point x="426" y="689" type="move" name="top"/>
	</contour>
	<contour>
	  <point x="223" y="0" type="move" name="bottom"/>
	</contour>
  </outline>
</glyph>
<glyph name="T" format="2">
  <advance width="600"/>
  <unicode hex="0054"/>
  <anchor x="204" y="0" name="Anchor-1"/>
  <anchor x="398" y="689" name="Anchor-0"/>
  <outline>
    <contour>
      <point x="580" y="609" type="line"/>
      <point x="374" y="609" type="line"/>
      <point x="288" y="0" type="line"/>
      <point x="193" y="0" type="line"/>
      <point x="279" y="609" type="line"/>
      <point x="66" y="609" type="line"/>
      <point x="77" y="689" type="line"/>
      <point x="601" y="689" type="line"/>
    </contour>
  </outline>
</glyph>
<glyph name="U" format="1">
  <advance width="600"/>
  <unicode hex="0055"/>
  <outline>
	<contour>
	  <point x="495" y="689" type="line"/>
	  <point x="430" y="231" type="line" smooth="yes"/>
	  <point x="415" y="124"/>
	  <point x="359" y="68"/>
	  <point x="268" y="68" type="curve" smooth="yes"/>
	  <point x="182" y="68"/>
	  <point x="144" y="118"/>
	  <point x="159" y="225" type="curve" smooth="yes"/>
	  <point x="224" y="689" type="line"/>
	  <point x="129" y="689" type="line"/>
	  <point x="64" y="227" type="line" smooth="yes"/>
	  <point x="44" y="87"/>
	  <point x="117" y="-12"/>
	  <point x="264" y="-12" type="curve" smooth="yes"/>
	  <point x="405" y="-12"/>
	  <point x="505" y="81"/>
	  <point x="525" y="221" type="curve" smooth="yes"/>
	  <point x="591" y="689" type="line"/>
	</contour>
	<contour>
	  <point x="315" y="0" type="move" name="ogonek"/>
	</contour>
	<contour>
	  <point x="420" y="689" type="move" name="top"/>
	</contour>
  </outline>
</glyph>
<glyph name="V" format="2">
  <advance width="600"/>
  <unicode hex="0056"/>
  <outline>
    <contour>
      <point x="142" y="689" type="line"/>
      <point x="237" y="102" type="line"/>
      <point x="500" y="689" type="line"/>
      <point x="598" y="689" type="line"/>
      <point x="274" y="0" type="line"/>
      <point x="172" y="0" type="line"/>
      <point x="42" y="689" type="line"/>
    </contour>
  </outline>
</glyph>
<glyph name="W" format="2">
  <advance width="600"/>
  <unicode hex="0057"/>
  <anchor x="363" y="689" name="Anchor-0"/>
  <outline>
    <contour>
      <point x="512" y="689" type="line"/>
      <point x="599" y="689" type="line"/>
      <point x="400" y="0" type="line"/>
      <point x="280" y="0" type="line"/>
      <point x="277" y="503" type="line"/>
      <point x="273" y="503" type="line"/>
      <point x="127" y="0" type="line"/>
      <point x="4" y="0" type="line"/>
      <point x="7" y="689" type="line"/>
      <point x="101" y="689" type="line"/>
      <point x="84" y="109" type="line"/>
      <point x="88" y="109" type="line"/>
      <point x="238" y="609" type="line"/>
      <point x="348" y="609" type="line"/>
      <point x="351" y="112" type="line"/>
      <point x="355" y="112" type="line"/>
    </contour>
  </outline>
</glyph>
<glyph name="X" format="2">
  <advance width="600"/>
  <unicode hex="0058"/>
  <outline>
    <contour>
      <point x="257" y="367" type="line"/>
      <point x="107" y="689" type="line"/>
      <point x="213" y="689" type="line"/>
      <point x="321" y="429" type="line"/>
      <point x="506" y="689" type="line"/>
      <point x="599" y="689" type="line"/>
      <point x="370" y="372" type="line"/>
      <point x="534" y="0" type="line"/>
      <point x="428" y="0" type="line"/>
      <point x="306" y="306" type="line"/>
      <point x="94" y="0" type="line"/>
      <point x="0" y="0" type="line"/>
    </contour>
  </outline>
</glyph>
<glyph name="Y" format="1">
  <advance width="600"/>
  <unicode hex="0059"/>
  <outline>
	<contour>
	  <point x="641" y="689" type="line"/>
	  <point x="540" y="689" type="line"/>
	  <point x="312" y="349" type="line"/>
	  <point x="184" y="689" type="line"/>
	  <point x="81" y="689" type="line"/>
	  <point x="253" y="264" type="line"/>
	  <point x="215" y="0" type="line"/>
	  <point x="311" y="0" type="line"/>
	  <point x="349" y="265" type="line"/>
	</contour>
	<contour>
	  <point x="423" y="689" type="move" name="top"/>
	</contour>
  </outline>
</glyph>
<glyph name="Z" format="1">
  <advance width="600"/>
  <unicode hex="005A"/>
  <outline>
	<contour>
	  <point x="581" y="612" type="line"/>
	  <point x="591" y="689" type="line"/>
	  <point x="164" y="689" type="line"/>
	  <point x="153" y="609" type="line"/>
	  <point x="476" y="609" type="line"/>
	  <point x="41" y="76" type="line"/>
	  <point x="31" y="0" type="line"/>
	  <point x="483" y="0" type="line"/>
	  <point x="505" y="81" type="line"/>
	  <point x="149" y="81" type="line"/>
	</contour>
	<contour>
	  <point x="438" y="689" type="move" name="top"/>
	</contour>
  </outline>
</glyph>
<glyph name="bracketleft" format="1">
  <advance width="600"/>
  <unicode hex="005B"/>
  <outline>
	<contour>
	  <point x="385" y="-116" type="line"/>
	  <point x="395" y="-40" type="line"/>
	  <point x="225" y="-40" type="line"/>
	  <point x="335" y="739" type="line"/>
	  <point x="505" y="739" type="line"/>
	  <point x="516" y="816" type="line"/>
	  <point x="259" y="816" type="line"/>
	  <point x="128" y="-116" type="line"/>
	</contour>
  </outline>
</glyph>
<glyph name="backslash" format="1">
  <advance width="600"/>
  <unicode hex="005C"/>
  <outline>
	<contour>
	  <point x="425" y="-104" type="line"/>
	  <point x="503" y="-71" type="line"/>
	  <point x="199" y="810" type="line"/>
	  <point x="122" y="775" type="line"/>
	</contour>
  </outline>
</glyph>
<glyph name="bracketright" format="1">
  <advance width="600"/>
  <unicode hex="005D"/>
  <outline>
	<contour>
	  <point x="240" y="816" type="line"/>
	  <point x="229" y="739" type="line"/>
	  <point x="399" y="739" type="line"/>
	  <point x="289" y="-40" type="line"/>
	  <point x="119" y="-40" type="line"/>
	  <point x="109" y="-116" type="line"/>
	  <point x="366" y="-116" type="line"/>
	  <point x="497" y="816" type="line"/>
	</contour>
  </outline>
</glyph>
<glyph name="asciicircum" format="1">
  <advance width="600"/>
  <unicode hex="005E"/>
  <outline>
	<contour>
	  <point x="339" y="840" type="line"/>
	  <point x="106" y="527" type="line"/>
	  <point x="205" y="527" type="line"/>
	  <point x="371" y="760" type="line"/>
	  <point x="470" y="527" type="line"/>
	  <point x="566" y="527" type="line"/>
	  <point x="421" y="840" type="line"/>
	</contour>
  </outline>
</glyph>
<glyph name="underscore" format="2">
  <advance width="600"/>
  <unicode hex="005F"/>
  <outline>
    <contour>
      <point x="587" y="-182" type="line"/>
      <point x="0" y="-182" type="line"/>
      <point x="11" y="-103" type="line"/>
      <point x="598" y="-103" type="line"/>
    </contour>
  </outline>
</glyph>
<glyph name="grave" format="1">
  <advance width="600"/>
  <unicode hex="0060"/>
  <outline>
	<contour>
	  <point x="474" y="672" type="line"/>
	  <point x="302" y="792" type="line"/>
	  <point x="245" y="715" type="line"/>
	  <point x="439" y="622" type="line"/>
	</contour>
	<contour>
	  <point x="374" y="527" type="move" name="_top"/>
	</contour>
  </outline>
</glyph>
<glyph name="a" format="2">
  <advance width="600"/>
  <unicode hex="0061"/>
  <anchor x="461.334" y="0" name="Anchor-18"/>
  <anchor x="461.334" y="0" name="Anchor-17"/>
  <anchor x="1534.22" y="527" name="Anchor-16"/>
  <anchor x="1972.28" y="-12" name="Anchor-15"/>
  <anchor x="1337.42" y="0" name="Anchor-14"/>
  <outline>
    <contour>
      <point x="326.397" y="539" type="curve" smooth="yes"/>
      <point x="395.928" y="539"/>
      <point x="454.21" y="523"/>
      <point x="515.56" y="494" type="curve"/>
      <point x="460.345" y="120" type="line" smooth="yes"/>
      <point x="455.232" y="83"/>
      <point x="459.322" y="64"/>
      <point x="493.065" y="51" type="curve"/>
      <point x="466.48" y="-12" type="line"/>
      <point x="412.287" y="-5"/>
      <point x="378.545" y="19"/>
      <point x="371.388" y="76" type="curve"/>
      <point x="329.465" y="23"/>
      <point x="274.25" y="-12"/>
      <point x="210.855" y="-12" type="curve" smooth="yes"/>
      <point x="100.425" y="-12"/>
      <point x="39.0752" y="69"/>
      <point x="39.0752" y="190" type="curve" smooth="yes"/>
      <point x="39.0752" y="334"/>
      <point x="116.785" y="539"/>
    </contour>
    <contour>
      <point x="328.442" y="466" type="curve" smooth="yes"/>
      <point x="191.428" y="466"/>
      <point x="139.28" y="307"/>
      <point x="139.28" y="189" type="curve" smooth="yes"/>
      <point x="139.28" y="101"/>
      <point x="173.022" y="61"/>
      <point x="230.282" y="61" type="curve" smooth="yes"/>
      <point x="290.61" y="61"/>
      <point x="332.532" y="103"/>
      <point x="374.455" y="158" type="curve"/>
      <point x="416.378" y="449" type="line"/>
      <point x="387.747" y="461"/>
      <point x="364.23" y="466"/>
    </contour>
  </outline>
</glyph>
<glyph name="b" format="1">
  <advance width="600"/>
  <unicode hex="0062"/>
  <outline>
	<contour>
	  <point x="257" y="750" type="line"/>
	  <point x="164" y="739" type="line"/>
	  <point x="60" y="0" type="line"/>
	  <point x="141" y="0" type="line"/>
	  <point x="156" y="56" type="line"/>
	  <point x="185" y="11"/>
	  <point x="229" y="-12"/>
	  <point x="291" y="-12" type="curve" smooth="yes"/>
	  <point x="425" y="-12"/>
	  <point x="512" y="101"/>
	  <point x="534" y="259" type="curve" smooth="yes"/>
	  <point x="558" y="427"/>
	  <point x="515" y="539"/>
	  <point x="373" y="539" type="curve" smooth="yes"/>
	  <point x="315" y="539"/>
	  <point x="261" y="512"/>
	  <point x="216" y="462" type="curve"/>
	</contour>
	<contour>
	  <point x="227" y="61"/>
	  <point x="190" y="84"/>
	  <point x="169" y="125" type="curve"/>
	  <point x="207" y="382" type="line"/>
	  <point x="241" y="424"/>
	  <point x="290" y="466"/>
	  <point x="348" y="466" type="curve" smooth="yes"/>
	  <point x="424" y="466"/>
	  <point x="456" y="404"/>
	  <point x="437" y="269" type="curve" smooth="yes"/>
	  <point x="417" y="129"/>
	  <point x="358" y="61"/>
	  <point x="272" y="61" type="curve" smooth="yes"/>
	</contour>
  </outline>
</glyph>
<glyph name="c" format="1">
  <advance width="600"/>
  <unicode hex="0063"/>
  <outline>
	<contour>
	  <point x="222" y="66"/>
	  <point x="168" y="120"/>
	  <point x="187" y="256" type="curve" smooth="yes"/>
	  <point x="206" y="395"/>
	  <point x="281" y="463"/>
	  <point x="372" y="463" type="curve" smooth="yes"/>
	  <point x="416" y="463"/>
	  <point x="458" y="449"/>
	  <point x="497" y="417" type="curve"/>
	  <point x="547" y="475" type="line"/>
	  <point x="501" y="516"/>
	  <point x="446" y="539"/>
	  <point x="375" y="539" type="curve" smooth="yes"/>
	  <point x="218" y="539"/>
	  <point x="111" y="423"/>
	  <point x="89" y="266" type="curve" smooth="yes"/>
	  <point x="66" y="99"/>
	  <point x="143" y="-12"/>
	  <point x="304" y="-12" type="curve" smooth="yes"/>
	  <point x="366" y="-12"/>
	  <point x="440" y="11"/>
	  <point x="491" y="50" type="curve"/>
	  <point x="452" y="117" type="line"/>
	  <point x="409" y="87"/>
	  <point x="362" y="66"/>
	  <point x="308" y="66" type="curve" smooth="yes"/>
	</contour>
	<contour>
	  <point x="416" y="518" type="move" name="top"/>
	</contour>
	<contour>
	  <point x="265" y="0" type="move" name="bottom"/>
	</contour>
	<contour>
	  <point x="265" y="0" type="move" name="bottomAttach"/>
	</contour>
  </outline>
</glyph>
<glyph name="d" format="1">
  <advance width="600"/>
  <unicode hex="0064"/>
  <outline>
	<contour>
	  <point x="440" y="476" type="line"/>
	  <point x="410" y="516"/>
	  <point x="368" y="539"/>
	  <point x="307" y="539" type="curve" smooth="yes"/>
	  <point x="179" y="539"/>
	  <point x="88" y="425"/>
	  <point x="66" y="268" type="curve" smooth="yes"/>
	  <point x="42" y="102"/>
	  <point x="91" y="-12"/>
	  <point x="230" y="-12" type="curve" smooth="yes"/>
	  <point x="287" y="-12"/>
	  <point x="342" y="12"/>
	  <point x="387" y="66" type="curve"/>
	  <point x="385" y="0" type="line"/>
	  <point x="466" y="0" type="line"/>
	  <point x="570" y="739" type="line"/>
	  <point x="479" y="750" type="line"/>
	</contour>
	<contour>
	  <point x="373" y="466"/>
	  <point x="409" y="444"/>
	  <point x="432" y="403" type="curve"/>
	  <point x="393" y="144" type="line"/>
	  <point x="359" y="101"/>
	  <point x="313" y="61"/>
	  <point x="254" y="61" type="curve" smooth="yes"/>
	  <point x="177" y="61"/>
	  <point x="144" y="124"/>
	  <point x="163" y="258" type="curve" smooth="yes"/>
	  <point x="183" y="397"/>
	  <point x="242" y="466"/>
	  <point x="328" y="466" type="curve" smooth="yes"/>
	</contour>
	<contour>
	  <point x="300" y="264" type="move" name="center"/>
	</contour>
	<contour>
	  <point x="667" y="739" type="move" name="topright"/>
	</contour>
  </outline>
</glyph>
<glyph name="e" format="1">
  <advance width="600"/>
  <unicode hex="0065"/>
  <outline>
	<contour>
	  <point x="519" y="229" type="line"/>
	  <point x="522" y="241"/>
	  <point x="525" y="258"/>
	  <point x="527" y="274" type="curve" smooth="yes"/>
	  <point x="550" y="437"/>
	  <point x="480" y="539"/>
	  <point x="340" y="539" type="curve" smooth="yes"/>
	  <point x="202" y="539"/>
	  <point x="98" y="425"/>
	  <point x="76" y="268" type="curve" smooth="yes"/>
	  <point x="52" y="102"/>
	  <point x="126" y="-12"/>
	  <point x="285" y="-12" type="curve" smooth="yes"/>
	  <point x="351" y="-12"/>
	  <point x="421" y="10"/>
	  <point x="476" y="49" type="curve"/>
	  <point x="439" y="114" type="line"/>
	  <point x="389" y="77"/>
	  <point x="340" y="63"/>
	  <point x="290" y="63" type="curve" smooth="yes"/>
	  <point x="212" y="63"/>
	  <point x="155" y="111"/>
	  <point x="166" y="229" type="curve"/>
	</contour>
	<contour>
	  <point x="417" y="466"/>
	  <point x="456" y="412"/>
	  <point x="443" y="303" type="curve"/>
	  <point x="176" y="297" type="line"/>
	  <point x="199" y="410"/>
	  <point x="263" y="466"/>
	  <point x="338" y="466" type="curve" smooth="yes"/>
	</contour>
	<contour>
	  <point x="339" y="0" type="move" name="ogonek"/>
	</contour>
	<contour>
	  <point x="226" y="0" type="move" name="bottom"/>
	</contour>
	<contour>
	  <point x="384" y="527" type="move" name="top"/>
	</contour>
  </outline>
</glyph>
<glyph name="f" format="2">
  <advance width="600"/>
  <unicode hex="0066"/>
  <anchor x="989.714" y="0" name="Anchor-18"/>
  <anchor x="989.714" y="0" name="Anchor-17"/>
  <anchor x="2540.37" y="739" name="Anchor-16"/>
  <anchor x="989.714" y="0" name="Anchor-15"/>
  <anchor x="1398.57" y="-202" name="Anchor-14"/>
  <outline>
    <contour>
      <point x="454.84" y="676" type="curve" smooth="yes"/>
      <point x="388.17" y="676"/>
      <point x="358.79" y="648"/>
      <point x="350.88" y="597" type="curve" smooth="yes"/>
      <point x="339.58" y="527" type="line"/>
      <point x="483.09" y="527" type="line"/>
      <point x="460.49" y="456" type="line"/>
      <point x="328.28" y="456" type="line"/>
      <point x="260.48" y="29" type="line" smooth="yes"/>
      <point x="236.75" y="-120"/>
      <point x="170.08" y="-163"/>
      <point x="37.8701" y="-213" type="curve"/>
      <point x="8.49023" y="-144" type="line"/>
      <point x="89.8496" y="-112"/>
      <point x="139.57" y="-84"/>
      <point x="157.65" y="29" type="curve" smooth="yes"/>
      <point x="225.45" y="456" type="line"/>
      <point x="120.36" y="456" type="line"/>
      <point x="131.66" y="527" type="line"/>
      <point x="236.75" y="527" type="line"/>
      <point x="248.05" y="602" type="line" smooth="yes"/>
      <point x="261.61" y="690"/>
      <point x="333.93" y="750"/>
      <point x="451.45" y="750" type="curve" smooth="yes"/>
      <point x="509.08" y="750"/>
      <point x="547.5" y="736"/>
      <point x="591.57" y="712" type="curve"/>
      <point x="552.02" y="651" type="line"/>
      <point x="516.99" y="672"/>
      <point x="483.09" y="676"/>
    </contour>
  </outline>
</glyph>
<glyph name="g" format="2">
  <advance width="600"/>
  <unicode hex="0067"/>
  <anchor x="456.809" y="0" name="Anchor-18"/>
  <anchor x="458" y="739" name="Anchor-17"/>
  <anchor x="1289.51" y="527" name="Anchor-16"/>
  <anchor x="456.809" y="0" name="Anchor-15"/>
  <anchor x="984.188" y="-202" name="Anchor-14"/>
  <outline>
    <contour>
      <point x="356" y="539" type="curve" smooth="yes"/>
      <point x="429.14" y="539"/>
      <point x="489.56" y="523"/>
      <point x="553.16" y="494" type="curve"/>
      <point x="475.78" y="12" type="line" smooth="yes"/>
      <point x="449.28" y="-158"/>
      <point x="351.76" y="-216"/>
      <point x="220.32" y="-216" type="curve" smooth="yes"/>
      <point x="153.54" y="-216"/>
      <point x="80.4004" y="-196"/>
      <point x="27.4004" y="-165" type="curve"/>
      <point x="64.5" y="-95" type="line"/>
      <point x="98.4199" y="-114"/>
      <point x="156.72" y="-137"/>
      <point x="215.02" y="-137" type="curve" smooth="yes"/>
      <point x="289.22" y="-137"/>
      <point x="362.36" y="-116"/>
      <point x="381.44" y="13" type="curve" smooth="yes"/>
      <point x="390.98" y="80" type="line"/>
      <point x="349.64" y="33"/>
      <point x="293.46" y="0"/>
      <point x="231.98" y="0" type="curve" smooth="yes"/>
      <point x="119.62" y="0"/>
      <point x="52.8398" y="78"/>
      <point x="52.8398" y="198" type="curve" smooth="yes"/>
      <point x="52.8398" y="355"/>
      <point x="136.58" y="539"/>
    </contour>
    <contour>
      <point x="356" y="466" type="curve" smooth="yes"/>
      <point x="213.96" y="466"/>
      <point x="156.72" y="325"/>
      <point x="156.72" y="197" type="curve" smooth="yes"/>
      <point x="156.72" y="110"/>
      <point x="194.88" y="73"/>
      <point x="252.12" y="73" type="curve" smooth="yes"/>
      <point x="313.6" y="73"/>
      <point x="361.3" y="117"/>
      <point x="404.76" y="172" type="curve"/>
      <point x="450.34" y="449" type="line"/>
      <point x="418.54" y="461"/>
      <point x="394.16" y="466"/>
    </contour>
  </outline>
</glyph>
<glyph name="h" format="1">
  <advance width="600"/>
  <unicode hex="0068"/>
  <outline>
	<contour>
	  <point x="164" y="738" type="line"/>
	  <point x="60" y="0" type="line"/>
	  <point x="152" y="0" type="line"/>
	  <point x="206" y="380" type="line"/>
	  <point x="240" y="421"/>
	  <point x="299" y="467"/>
	  <point x="358" y="467" type="curve" smooth="yes"/>
	  <point x="416" y="467"/>
	  <point x="437" y="443"/>
	  <point x="428" y="380" type="curve" smooth="yes"/>
	  <point x="375" y="0" type="line"/>
	  <point x="467" y="0" type="line"/>
	  <point x="520" y="380" type="line" smooth="yes"/>
	  <point x="534" y="478"/>
	  <point x="495" y="539"/>
	  <point x="391" y="539" type="curve" smooth="yes"/>
	  <point x="331" y="539"/>
	  <point x="265" y="513"/>
	  <point x="215" y="459" type="curve"/>
	  <point x="257" y="748" type="line"/>
	</contour>
	<contour>
	  <point x="300" y="264" type="move" name="center"/>
	</contour>
	<contour>
	  <point x="434" y="739" type="move" name="top"/>
	</contour>
  </outline>
</glyph>
<glyph name="i" format="1">
  <advance width="600"/>
  <unicode hex="0069"/>
  <outline>
	<contour>
	  <point x="159" y="527" type="line"/>
	  <point x="149" y="456" type="line"/>
	  <point x="305" y="456" type="line"/>
	  <point x="251" y="71" type="line"/>
	  <point x="90" y="71" type="line"/>
	  <point x="80" y="0" type="line"/>
	  <point x="480" y="0" type="line"/>
	  <point x="490" y="71" type="line"/>
	  <point x="343" y="71" type="line"/>
	  <point x="407" y="527" type="line"/>
	</contour>
	<contour>
	  <point x="332" y="777"/>
	  <point x="305" y="753"/>
	  <point x="300" y="720" type="curve" smooth="yes"/>
	  <point x="295" y="682"/>
	  <point x="319" y="652"/>
	  <point x="359" y="652" type="curve" smooth="yes"/>
	  <point x="396" y="652"/>
	  <point x="423" y="676"/>
	  <point x="428" y="710" type="curve" smooth="yes"/>
	  <point x="433" y="747"/>
	  <point x="409" y="777"/>
	  <point x="368" y="777" type="curve" smooth="yes"/>
	</contour>
  </outline>
</glyph>
<glyph name="j" format="1">
  <advance width="600"/>
  <unicode hex="006A"/>
  <outline>
	<contour>
	  <point x="177" y="527" type="line"/>
	  <point x="167" y="456" type="line"/>
	  <point x="383" y="456" type="line"/>
	  <point x="331" y="89" type="line" smooth="yes"/>
	  <point x="311" y="-54"/>
	  <point x="194" y="-115"/>
	  <point x="34" y="-142" type="curve"/>
	  <point x="43" y="-213" type="line"/>
	  <point x="264" y="-176"/>
	  <point x="398" y="-93"/>
	  <point x="423" y="89" type="curve" smooth="yes"/>
	  <point x="485" y="527" type="line"/>
	</contour>
	<contour>
	  <point x="399" y="777"/>
	  <point x="372" y="753"/>
	  <point x="367" y="720" type="curve" smooth="yes"/>
	  <point x="362" y="682"/>
	  <point x="386" y="652"/>
	  <point x="426" y="652" type="curve" smooth="yes"/>
	  <point x="463" y="652"/>
	  <point x="490" y="676"/>
	  <point x="495" y="710" type="curve" smooth="yes"/>
	  <point x="500" y="747"/>
	  <point x="476" y="777"/>
	  <point x="435" y="777" type="curve" smooth="yes"/>
	</contour>
	<contour>
	  <point x="442" y="527" type="move" name="top"/>
	</contour>
  </outline>
</glyph>
<glyph name="k" format="2">
  <advance width="600"/>
  <unicode hex="006B"/>
  <anchor x="276.821" y="0" name="Anchor-18"/>
  <anchor x="1206.15" y="739" name="Anchor-17"/>
  <anchor x="1077.43" y="739" name="Anchor-16"/>
  <anchor x="276.821" y="0" name="Anchor-15"/>
  <anchor x="851.067" y="0" name="Anchor-14"/>
  <outline>
    <contour>
      <point x="239.5" y="750" type="line"/>
      <point x="191.1" y="435" type="line"/>
      <point x="246.1" y="506"/>
      <point x="316.5" y="539"/>
      <point x="389.1" y="539" type="curve" smooth="yes"/>
      <point x="471.6" y="539"/>
      <point x="529.9" y="489"/>
      <point x="529.9" y="419" type="curve" smooth="yes"/>
      <point x="529.9" y="336"/>
      <point x="471.6" y="268"/>
      <point x="350.6" y="233" type="curve"/>
      <point x="481.5" y="0" type="line"/>
      <point x="369.3" y="0" type="line"/>
      <point x="230.7" y="257" type="line"/>
      <point x="367.1" y="292"/>
      <point x="423.2" y="336"/>
      <point x="423.2" y="409" type="curve" smooth="yes"/>
      <point x="423.2" y="446"/>
      <point x="400.1" y="466"/>
      <point x="360.5" y="466" type="curve" smooth="yes"/>
      <point x="298.9" y="466"/>
      <point x="221.9" y="419"/>
      <point x="172.4" y="316" type="curve"/>
      <point x="124" y="0" type="line"/>
      <point x="23.9004" y="0" type="line"/>
      <point x="138.3" y="739" type="line"/>
    </contour>
  </outline>
</glyph>
<glyph name="l" format="1">
  <advance width="600"/>
  <unicode hex="006C"/>
  <outline>
	<contour>
	  <point x="124" y="739" type="line"/>
	  <point x="114" y="668" type="line"/>
	  <point x="275" y="668" type="line"/>
	  <point x="201" y="143" type="line" smooth="yes"/>
	  <point x="188" y="48"/>
	  <point x="244" y="-12"/>
	  <point x="343" y="-12" type="curve" smooth="yes"/>
	  <point x="396" y="-12"/>
	  <point x="442" y="0"/>
	  <point x="473" y="15" type="curve"/>
	  <point x="454" y="83" type="line"/>
	  <point x="425" y="72"/>
	  <point x="396" y="64"/>
	  <point x="363" y="64" type="curve" smooth="yes"/>
	  <point x="315" y="64"/>
	  <point x="284" y="80"/>
	  <point x="291" y="131" type="curve" smooth="yes"/>
	  <point x="377" y="739" type="line"/>
	</contour>
	<contour>
	  <point x="595" y="383" type="move" name="center"/>
	</contour>
	<contour>
	  <point x="398" y="739" type="move" name="top"/>
	</contour>
	<contour>
	  <point x="484" y="739" type="move" name="topright"/>
	</contour>
	<contour>
	  <point x="286" y="0" type="move" name="bottom"/>
	</contour>
  </outline>
</glyph>
<glyph name="m" format="2">
  <advance width="600"/>
  <unicode hex="006D"/>
  <outline>
    <contour>
      <point x="350" y="470" type="curve"/>
      <point x="386" y="513"/>
      <point x="423" y="539"/>
      <point x="474" y="539" type="curve" smooth="yes"/>
      <point x="529" y="539"/>
      <point x="577" y="509"/>
      <point x="560" y="389" type="curve" smooth="yes"/>
      <point x="505" y="0" type="line"/>
      <point x="421" y="0" type="line"/>
      <point x="475" y="381" type="line" smooth="yes"/>
      <point x="483" y="444"/>
      <point x="486" y="467"/>
      <point x="452" y="467" type="curve" smooth="yes"/>
      <point x="420" y="467"/>
      <point x="386" y="448"/>
      <point x="352" y="405" type="curve"/>
      <point x="294" y="0" type="line"/>
      <point x="212" y="0" type="line"/>
      <point x="266" y="381" type="line" smooth="yes"/>
      <point x="274" y="444"/>
      <point x="277" y="467"/>
      <point x="243" y="467" type="curve" smooth="yes"/>
      <point x="210" y="467"/>
      <point x="177" y="448"/>
      <point x="143" y="405" type="curve"/>
      <point x="85" y="0" type="line"/>
      <point x="1" y="0" type="line"/>
      <point x="75" y="527" type="line"/>
      <point x="146" y="527" type="line"/>
      <point x="143" y="469" type="line"/>
      <point x="178" y="510"/>
      <point x="214" y="539"/>
      <point x="264" y="539" type="curve" smooth="yes"/>
      <point x="306" y="539"/>
      <point x="342" y="521"/>
    </contour>
  </outline>
</glyph>
<glyph name="n" format="1">
  <advance width="600"/>
  <unicode hex="006E"/>
  <outline>
	<contour>
	  <point x="152" y="0" type="line"/>
	  <point x="206" y="380" type="line"/>
	  <point x="240" y="421"/>
	  <point x="298" y="467"/>
	  <point x="359" y="467" type="curve" smooth="yes"/>
	  <point x="432" y="467"/>
	  <point x="435" y="429"/>
	  <point x="421" y="326" type="curve" smooth="yes"/>
	  <point x="375" y="0" type="line"/>
	  <point x="467" y="0" type="line"/>
	  <point x="520" y="380" type="line" smooth="yes"/>
	  <point x="534" y="478"/>
	  <point x="495" y="539"/>
	  <point x="391" y="539" type="curve" smooth="yes"/>
	  <point x="331" y="539"/>
	  <point x="260" y="511"/>
	  <point x="209" y="457" type="curve"/>
	  <point x="213" y="527" type="line"/>
	  <point x="134" y="527" type="line"/>
	  <point x="60" y="0" type="line"/>
	</contour>
	<contour>
	  <point x="374" y="527" type="move" name="top"/>
	</contour>
	<contour>
	  <point x="227" y="0" type="move" name="bottom"/>
	</contour>
  </outline>
</glyph>
<glyph name="o" format="1">
  <advance width="600"/>
  <unicode hex="006F"/>
  <outline>
	<contour>
	  <point x="188" y="539"/>
	  <point x="93" y="429"/>
	  <point x="71" y="268" type="curve" smooth="yes"/>
	  <point x="47" y="99"/>
	  <point x="113" y="-12"/>
	  <point x="265" y="-12" type="curve" smooth="yes"/>
	  <point x="412" y="-12"/>
	  <point x="507" y="98"/>
	  <point x="529" y="259" type="curve" smooth="yes"/>
	  <point x="553" y="428"/>
	  <point x="488" y="539"/>
	  <point x="336" y="539" type="curve" smooth="yes"/>
	</contour>
	<contour>
	  <point x="418" y="465"/>
	  <point x="452" y="404"/>
	  <point x="433" y="269" type="curve" smooth="yes"/>
	  <point x="413" y="129"/>
	  <point x="358" y="62"/>
	  <point x="268" y="62" type="curve" smooth="yes"/>
	  <point x="182" y="62"/>
	  <point x="148" y="123"/>
	  <point x="167" y="258" type="curve" smooth="yes"/>
	  <point x="187" y="398"/>
	  <point x="243" y="465"/>
	  <point x="333" y="465" type="curve" smooth="yes"/>
	</contour>
	<contour>
	  <point x="374" y="527" type="move" name="top"/>
	</contour>
  </outline>
</glyph>
<glyph name="q" format="2">
  <advance width="599"/>
  <unicode hex="0071"/>
  <anchor x="511.655" y="0" name="Anchor-18"/>
  <anchor x="458" y="739" name="Anchor-17"/>
  <anchor x="1276.3" y="527" name="Anchor-16"/>
  <anchor x="511.655" y="0" name="Anchor-15"/>
  <anchor x="986.662" y="-202" name="Anchor-14"/>
  <outline>
    <contour>
      <point x="340.34" y="-216" type="line"/>
      <point x="381.68" y="64" type="line"/>
      <point x="347.76" y="23"/>
      <point x="290.52" y="-12"/>
      <point x="224.8" y="-12" type="curve" smooth="yes"/>
      <point x="111.38" y="-12"/>
      <point x="46.7197" y="69"/>
      <point x="46.7197" y="190" type="curve" smooth="yes"/>
      <point x="46.7197" y="334"/>
      <point x="127.28" y="539"/>
      <point x="344.58" y="539" type="curve" smooth="yes"/>
      <point x="411.36" y="539"/>
      <point x="469.66" y="528"/>
      <point x="543.86" y="494" type="curve"/>
      <point x="436.8" y="-204" type="line"/>
    </contour>
    <contour>
      <point x="244.94" y="61" type="curve" smooth="yes"/>
      <point x="307.48" y="61"/>
      <point x="350.94" y="103"/>
      <point x="394.4" y="158" type="curve"/>
      <point x="438.92" y="449" type="line"/>
      <point x="408.18" y="461"/>
      <point x="383.8" y="466"/>
      <point x="346.7" y="466" type="curve" smooth="yes"/>
      <point x="204.66" y="466"/>
      <point x="150.6" y="307"/>
      <point x="150.6" y="189" type="curve" smooth="yes"/>
      <point x="150.6" y="101"/>
      <point x="185.58" y="61"/>
    </contour>
  </outline>
</glyph>
<glyph name="r" format="1">
  <advance width="600"/>
  <unicode hex="0072"/>
  <outline>
	<contour>
	  <point x="425" y="71" type="line"/>
	  <point x="278" y="71" type="line"/>
	  <point x="311" y="307" type="line"/>
	  <point x="339" y="380"/>
	  <point x="404" y="449"/>
	  <point x="476" y="449" type="curve" smooth="yes"/>
	  <point x="497" y="449"/>
	  <point x="513" y="447"/>
	  <point x="534" y="441" type="curve"/>
	  <point x="559" y="530" type="line"/>
	  <point x="535" y="536"/>
	  <point x="518" y="539"/>
	  <point x="490" y="539" type="curve" smooth="yes"/>
	  <point x="429" y="539"/>
	  <point x="367" y="502"/>
	  <point x="326" y="428" type="curve"/>
	  <point x="330" y="527" type="line"/>
	  <point x="129" y="527" type="line"/>
	  <point x="119" y="456" type="line"/>
	  <point x="240" y="456" type="line"/>
	  <point x="186" y="71" type="line"/>
	  <point x="65" y="71" type="line"/>
	  <point x="55" y="0" type="line"/>
	  <point x="415" y="0" type="line"/>
	</contour>
	<contour>
	  <point x="384" y="527" type="move" name="top"/>
	</contour>
	<contour>
	  <point x="185" y="0" type="move" name="bottom"/>
	</contour>
  </outline>
</glyph>
<glyph name="s" format="1">
  <advance width="600"/>
  <unicode hex="0073"/>
  <outline>
	<contour>
	  <point x="188" y="62"/>
	  <point x="136" y="83"/>
	  <point x="99" y="117" type="curve"/>
	  <point x="44" y="62" type="line"/>
	  <point x="85" y="22"/>
	  <point x="147" y="-12"/>
	  <point x="245" y="-12" type="curve" smooth="yes"/>
	  <point x="358" y="-12"/>
	  <point x="472" y="31"/>
	  <point x="488" y="142" type="curve" smooth="yes"/>
	  <point x="502" y="243"/>
	  <point x="437" y="281"/>
	  <point x="336" y="309" type="curve" smooth="yes"/>
	  <point x="236" y="338"/>
	  <point x="208" y="352"/>
	  <point x="214" y="395" type="curve" smooth="yes"/>
	  <point x="220" y="436"/>
	  <point x="256" y="466"/>
	  <point x="338" y="466" type="curve" smooth="yes"/>
	  <point x="402" y="466"/>
	  <point x="446" y="447"/>
	  <point x="482" y="420" type="curve"/>
	  <point x="527" y="479" type="line"/>
	  <point x="486" y="512"/>
	  <point x="427" y="539"/>
	  <point x="339" y="539" type="curve" smooth="yes"/>
	  <point x="219" y="539"/>
	  <point x="132" y="485"/>
	  <point x="120" y="398" type="curve" smooth="yes"/>
	  <point x="107" y="304"/>
	  <point x="174" y="268"/>
	  <point x="280" y="241" type="curve" smooth="yes"/>
	  <point x="385" y="213"/>
	  <point x="396" y="191"/>
	  <point x="390" y="147" type="curve" smooth="yes"/>
	  <point x="382" y="96"/>
	  <point x="328" y="62"/>
	  <point x="248" y="62" type="curve" smooth="yes"/>
	</contour>
	<contour>
	  <point x="382" y="527" type="move" name="top"/>
	</contour>
	<contour>
	  <point x="223" y="0" type="move" name="bottom"/>
	</contour>
  </outline>
</glyph>
<glyph name="t" format="1">
  <advance width="600"/>
  <unicode hex="0074"/>
  <outline>
	<contour>
	  <point x="460" y="90" type="line"/>
	  <point x="431" y="75"/>
	  <point x="396" y="64"/>
	  <point x="355" y="64" type="curve" smooth="yes"/>
	  <point x="287" y="64"/>
	  <point x="265" y="91"/>
	  <point x="273" y="149" type="curve" smooth="yes"/>
	  <point x="316" y="457" type="line"/>
	  <point x="486" y="457" type="line"/>
	  <point x="507" y="527" type="line"/>
	  <point x="326" y="527" type="line"/>
	  <point x="344" y="657" type="line"/>
	  <point x="251" y="646" type="line"/>
	  <point x="234" y="527" type="line"/>
	  <point x="114" y="527" type="line"/>
	  <point x="104" y="457" type="line"/>
	  <point x="224" y="457" type="line"/>
	  <point x="182" y="154" type="line" smooth="yes"/>
	  <point x="168" y="58"/>
	  <point x="224" y="-12"/>
	  <point x="342" y="-12" type="curve" smooth="yes"/>
	  <point x="392" y="-12"/>
	  <point x="450" y="2"/>
	  <point x="491" y="26" type="curve"/>
	</contour>
	<contour>
	  <point x="300" y="264" type="move" name="center"/>
	</contour>
	<contour>
	  <point x="296" y="0" type="move" name="bottom"/>
	</contour>
	<contour>
	  <point x="471" y="759" type="move" name="topright"/>
	</contour>
  </outline>
</glyph>
<glyph name="u" format="1">
  <advance width="600"/>
  <unicode hex="0075"/>
  <outline>
	<contour>
	  <point x="134" y="527" type="line"/>
	  <point x="81" y="147" type="line" smooth="yes"/>
	  <point x="67" y="49"/>
	  <point x="110" y="-12"/>
	  <point x="214" y="-12" type="curve" smooth="yes"/>
	  <point x="274" y="-12"/>
	  <point x="342" y="15"/>
	  <point x="391" y="68" type="curve"/>
	  <point x="387" y="0" type="line"/>
	  <point x="466" y="0" type="line"/>
	  <point x="540" y="527" type="line"/>
	  <point x="448" y="527" type="line"/>
	  <point x="393" y="143" type="line"/>
	  <point x="359" y="99"/>
	  <point x="298" y="60"/>
	  <point x="241" y="60" type="curve" smooth="yes"/>
	  <point x="185" y="60"/>
	  <point x="164" y="85"/>
	  <point x="173" y="152" type="curve" smooth="yes"/>
	  <point x="226" y="527" type="line"/>
	</contour>
	<contour>
	  <point x="439" y="0" type="move" name="ogonek"/>
	</contour>
	<contour>
	  <point x="374" y="527" type="move" name="top"/>
	</contour>
  </outline>
</glyph>
<glyph name="v" format="1">
  <advance width="600"/>
  <unicode hex="0076"/>
  <outline>
	<contour>
	  <point x="484" y="527" type="line"/>
	  <point x="275" y="81" type="line"/>
	  <point x="191" y="527" type="line"/>
	  <point x="95" y="527" type="line"/>
	  <point x="210" y="0" type="line"/>
	  <point x="317" y="0" type="line"/>
	  <point x="581" y="527" type="line"/>
	</contour>
  </outline>
</glyph>
<glyph name="w" format="1">
  <advance width="600"/>
  <unicode hex="0077"/>
  <outline>
	<contour>
	  <point x="621" y="527" type="line"/>
	  <point x="533" y="527" type="line"/>
	  <point x="405" y="72" type="line"/>
	  <point x="401" y="72" type="line"/>
	  <point x="384" y="460" type="line"/>
	  <point x="281" y="460" type="line"/>
	  <point x="149" y="70" type="line"/>
	  <point x="145" y="70" type="line"/>
	  <point x="145" y="527" type="line"/>
	  <point x="53" y="527" type="line"/>
	  <point x="73" y="0" type="line"/>
	  <point x="195" y="0" type="line"/>
	  <point x="315" y="373" type="line"/>
	  <point x="319" y="373" type="line"/>
	  <point x="332" y="0" type="line"/>
	  <point x="457" y="0" type="line"/>
	</contour>
	<contour>
	  <point x="374" y="527" type="move" name="top"/>
	</contour>
  </outline>
</glyph>
<glyph name="x" format="1">
  <advance width="600"/>
  <unicode hex="0078"/>
  <outline>
	<contour>
	  <point x="293" y="223" type="line"/>
	  <point x="401" y="0" type="line"/>
	  <point x="510" y="0" type="line"/>
	  <point x="358" y="282" type="line"/>
	  <point x="562" y="527" type="line"/>
	  <point x="456" y="527" type="line"/>
	  <point x="309" y="334" type="line"/>
	  <point x="219" y="527" type="line"/>
	  <point x="113" y="527" type="line"/>
	  <point x="247" y="278" type="line"/>
	  <point x="14" y="0" type="line"/>
	  <point x="120" y="0" type="line"/>
	</contour>
	<contour>
	  <point x="419" y="0" type="move" name="bottomright"/>
	</contour>
  </outline>
</glyph>
<glyph name="y" format="1">
  <advance width="600"/>
  <unicode hex="0079"/>
  <outline>
	<contour>
	  <point x="483" y="527" type="line"/>
	  <point x="274" y="68" type="line"/>
	  <point x="192" y="527" type="line"/>
	  <point x="96" y="527" type="line"/>
	  <point x="204" y="0" type="line"/>
	  <point x="233" y="2" type="line"/>
	  <point x="194" y="-78"/>
	  <point x="155" y="-123"/>
	  <point x="44" y="-141" type="curve"/>
	  <point x="51" y="-213" type="line"/>
	  <point x="195" y="-199"/>
	  <point x="268" y="-116"/>
	  <point x="321" y="-5" type="curve" smooth="yes"/>
	  <point x="580" y="527" type="line"/>
	</contour>
	<contour>
	  <point x="374" y="527" type="move" name="top"/>
	</contour>
  </outline>
</glyph>
<glyph name="z" format="1">
  <advance width="600"/>
  <unicode hex="007A"/>
  <outline>
	<contour>
	  <point x="526" y="457" type="line"/>
	  <point x="535" y="527" type="line"/>
	  <point x="159" y="527" type="line"/>
	  <point x="148" y="449" type="line"/>
	  <point x="413" y="449" type="line"/>
	  <point x="71" y="69" type="line"/>
	  <point x="62" y="0" type="line"/>
	  <point x="453" y="0" type="line"/>
	  <point x="475" y="77" type="line"/>
	  <point x="186" y="77" type="line"/>
	</contour>
	<contour>
	  <point x="384" y="527" type="move" name="top"/>
	</contour>
  </outline>
</glyph>
<glyph name="braceleft" format="1">
  <advance width="600"/>
  <unicode hex="007B"/>
  <outline>
	<contour>
	  <point x="411" y="836"/>
	  <point x="309" y="804"/>
	  <point x="305" y="680" type="curve" smooth="yes"/>
	  <point x="298" y="494" type="line" smooth="yes"/>
	  <point x="296" y="425"/>
	  <point x="260" y="387"/>
	  <point x="131" y="387" type="curve"/>
	  <point x="125" y="313" type="line"/>
	  <point x="254" y="313"/>
	  <point x="275" y="280"/>
	  <point x="259" y="211" type="curve" smooth="yes"/>
	  <point x="213" y="26" type="line" smooth="yes"/>
	  <point x="182" y="-98"/>
	  <point x="279" y="-136"/>
	  <point x="399" y="-136" type="curve"/>
	  <point x="405" y="-65" type="line"/>
	  <point x="333" y="-65"/>
	  <point x="281" y="-51"/>
	  <point x="295" y="10" type="curve" smooth="yes"/>
	  <point x="343" y="209" type="line" smooth="yes"/>
	  <point x="365" y="300"/>
	  <point x="333" y="337"/>
	  <point x="263" y="349" type="curve"/>
	  <point x="339" y="363"/>
	  <point x="379" y="398"/>
	  <point x="382" y="485" type="curve" smooth="yes"/>
	  <point x="390" y="684" type="line" smooth="yes"/>
	  <point x="393" y="744"/>
	  <point x="453" y="765"/>
	  <point x="525" y="765" type="curve"/>
	  <point x="531" y="836" type="line"/>
	</contour>
  </outline>
</glyph>
<glyph name="braceright" format="1">
  <advance width="600"/>
  <unicode hex="007D"/>
  <outline>
	<contour>
	  <point x="219" y="765" type="line"/>
	  <point x="291" y="765"/>
	  <point x="343" y="750"/>
	  <point x="329" y="690" type="curve" smooth="yes"/>
	  <point x="281" y="491" type="line" smooth="yes"/>
	  <point x="260" y="404"/>
	  <point x="293" y="363"/>
	  <point x="371" y="350" type="curve"/>
	  <point x="283" y="337"/>
	  <point x="246" y="306"/>
	  <point x="242" y="215" type="curve" smooth="yes"/>
	  <point x="234" y="16" type="line" smooth="yes"/>
	  <point x="232" y="-45"/>
	  <point x="171" y="-65"/>
	  <point x="99" y="-65" type="curve"/>
	  <point x="93" y="-136" type="line"/>
	  <point x="213" y="-136"/>
	  <point x="315" y="-104"/>
	  <point x="320" y="20" type="curve" smooth="yes"/>
	  <point x="326" y="205" type="line" smooth="yes"/>
	  <point x="328" y="274"/>
	  <point x="374" y="313"/>
	  <point x="493" y="313" type="curve"/>
	  <point x="499" y="387" type="line"/>
	  <point x="380" y="387"/>
	  <point x="349" y="419"/>
	  <point x="366" y="488" type="curve" smooth="yes"/>
	  <point x="412" y="674" type="line" smooth="yes"/>
	  <point x="442" y="798"/>
	  <point x="345" y="836"/>
	  <point x="225" y="836" type="curve"/>
	</contour>
  </outline>
</glyph>
<glyph name="asciitilde" format="1">
  <advance width="600"/>
  <unicode hex="007E"/>
  <outline>
	<contour>
	  <point x="134" y="404"/>
	  <point x="81" y="336"/>
	  <point x="42" y="275" type="curve"/>
	  <point x="102" y="240" type="line"/>
	  <point x="134" y="288"/>
	  <point x="170" y="326"/>
	  <point x="215" y="326" type="curve" smooth="yes"/>
	  <point x="276" y="326"/>
	  <point x="298" y="226"/>
	  <point x="394" y="226" type="curve" smooth="yes"/>
	  <point x="480" y="226"/>
	  <point x="533" y="293"/>
	  <point x="573" y="354" type="curve"/>
	  <point x="513" y="390" type="line"/>
	  <point x="480" y="342"/>
	  <point x="443" y="304"/>
	  <point x="400" y="304" type="curve" smooth="yes"/>
	  <point x="341" y="304"/>
	  <point x="323" y="404"/>
	  <point x="221" y="404" type="curve" smooth="yes"/>
	</contour>
  </outline>
</glyph>
<glyph name="exclamdown" format="1">
  <advance width="600"/>
  <unicode hex="00A1"/>
  <outline>
	<contour>
	  <point x="259" y="258" type="line"/>
	  <point x="182" y="-198" type="line"/>
	  <point x="287" y="-198" type="line"/>
	  <point x="337" y="258" type="line"/>
	</contour>
	<contour>
	  <point x="291" y="500"/>
	  <point x="259" y="472"/>
	  <point x="254" y="435" type="curve" smooth="yes"/>
	  <point x="248" y="395"/>
	  <point x="276" y="361"/>
	  <point x="317" y="361" type="curve" smooth="yes"/>
	  <point x="354" y="361"/>
	  <point x="387" y="389"/>
	  <point x="392" y="425" type="curve" smooth="yes"/>
	  <point x="397" y="466"/>
	  <point x="369" y="500"/>
	  <point x="328" y="500" type="curve" smooth="yes"/>
	</contour>
  </outline>
</glyph>
<glyph name="cent" format="1">
  <advance width="600"/>
  <unicode hex="00A2"/>
  <outline>
	<contour>
	  <point x="356" y="684" type="line"/>
	  <point x="333" y="533" type="line"/>
	  <point x="202" y="514"/>
	  <point x="123" y="408"/>
	  <point x="103" y="266" type="curve" smooth="yes"/>
	  <point x="82" y="114"/>
	  <point x="136" y="11"/>
	  <point x="260" y="-6" type="curve"/>
	  <point x="237" y="-154" type="line"/>
	  <point x="316" y="-154" type="line"/>
	  <point x="339" y="-7" type="line"/>
	  <point x="383" y="-1"/>
	  <point x="426" y="12"/>
	  <point x="468" y="44" type="curve"/>
	  <point x="430" y="112" type="line"/>
	  <point x="382" y="79"/>
	  <point x="347" y="66"/>
	  <point x="306" y="66" type="curve" smooth="yes"/>
	  <point x="224" y="66"/>
	  <point x="182" y="120"/>
	  <point x="201" y="256" type="curve" smooth="yes"/>
	  <point x="220" y="395"/>
	  <point x="283" y="463"/>
	  <point x="370" y="463" type="curve" smooth="yes"/>
	  <point x="406" y="463"/>
	  <point x="438" y="456"/>
	  <point x="477" y="424" type="curve"/>
	  <point x="526" y="480" type="line"/>
	  <point x="492" y="511"/>
	  <point x="453" y="529"/>
	  <point x="411" y="534" type="curve"/>
	  <point x="434" y="684" type="line"/>
	</contour>
	<contour>
	  <point x="257" y="0" type="move" name="bottomAttach"/>
	</contour>
  </outline>
</glyph>
<glyph name="sterling" format="1">
  <advance width="600"/>
  <unicode hex="00A3"/>
  <outline>
	<contour>
	  <point x="284" y="701"/>
	  <point x="204" y="624"/>
	  <point x="189" y="517" type="curve"/>
	  <point x="171" y="389" type="line"/>
	  <point x="90" y="389" type="line"/>
	  <point x="81" y="328" type="line"/>
	  <point x="162" y="328" type="line"/>
	  <point x="145" y="209" type="line" smooth="yes"/>
	  <point x="136" y="146"/>
	  <point x="125" y="99"/>
	  <point x="42" y="74" type="curve"/>
	  <point x="34" y="0" type="line"/>
	  <point x="472" y="0" type="line"/>
	  <point x="494" y="77" type="line"/>
	  <point x="159" y="76" type="line"/>
	  <point x="215" y="105"/>
	  <point x="229" y="152"/>
	  <point x="237" y="206" type="curve" smooth="yes"/>
	  <point x="254" y="328" type="line"/>
	  <point x="458" y="328" type="line"/>
	  <point x="467" y="389" type="line"/>
	  <point x="263" y="389" type="line"/>
	  <point x="279" y="504" type="line" smooth="yes"/>
	  <point x="290" y="582"/>
	  <point x="335" y="625"/>
	  <point x="406" y="625" type="curve" smooth="yes"/>
	  <point x="452" y="625"/>
	  <point x="485" y="610"/>
	  <point x="512" y="569" type="curve"/>
	  <point x="577" y="611" type="line"/>
	  <point x="541" y="673"/>
	  <point x="480" y="701"/>
	  <point x="404" y="701" type="curve" smooth="yes"/>
	</contour>
  </outline>
</glyph>
<glyph name="currency" format="1">
  <advance width="600"/>
  <unicode hex="00A4"/>
  <outline>
	<contour>
	  <point x="75" y="554" type="line"/>
	  <point x="150" y="467" type="line"/>
	  <point x="123" y="434"/>
	  <point x="105" y="393"/>
	  <point x="99" y="347" type="curve" smooth="yes"/>
	  <point x="92" y="296"/>
	  <point x="100" y="253"/>
	  <point x="117" y="219" type="curve"/>
	  <point x="15" y="129" type="line"/>
	  <point x="64" y="73" type="line"/>
	  <point x="166" y="162" type="line"/>
	  <point x="197" y="141"/>
	  <point x="237" y="129"/>
	  <point x="286" y="129" type="curve" smooth="yes"/>
	  <point x="330" y="129"/>
	  <point x="373" y="139"/>
	  <point x="408" y="160" type="curve"/>
	  <point x="484" y="74" type="line"/>
	  <point x="547" y="130" type="line"/>
	  <point x="472" y="214" type="line"/>
	  <point x="500" y="248"/>
	  <point x="520" y="289"/>
	  <point x="526" y="337" type="curve" smooth="yes"/>
	  <point x="533" y="387"/>
	  <point x="525" y="431"/>
	  <point x="507" y="464" type="curve"/>
	  <point x="607" y="553" type="line"/>
	  <point x="558" y="609" type="line"/>
	  <point x="456" y="520" type="line"/>
	  <point x="426" y="542"/>
	  <point x="386" y="554"/>
	  <point x="338" y="554" type="curve" smooth="yes"/>
	  <point x="293" y="554"/>
	  <point x="249" y="543"/>
	  <point x="212" y="522" type="curve"/>
	  <point x="138" y="610" type="line"/>
	</contour>
	<contour>
	  <point x="416" y="482"/>
	  <point x="449" y="432"/>
	  <point x="437" y="347" type="curve" smooth="yes"/>
	  <point x="424" y="257"/>
	  <point x="372" y="202"/>
	  <point x="288" y="202" type="curve" smooth="yes"/>
	  <point x="208" y="202"/>
	  <point x="174" y="251"/>
	  <point x="186" y="337" type="curve" smooth="yes"/>
	  <point x="199" y="426"/>
	  <point x="252" y="482"/>
	  <point x="336" y="482" type="curve" smooth="yes"/>
	</contour>
  </outline>
</glyph>
<glyph name="yen" format="1">
  <advance width="600"/>
  <unicode hex="00A5"/>
  <outline>
	<contour>
	  <point x="526" y="689" type="line"/>
	  <point x="320" y="376" type="line"/>
	  <point x="316" y="376" type="line"/>
	  <point x="198" y="689" type="line"/>
	  <point x="97" y="689" type="line"/>
	  <point x="240" y="346" type="line"/>
	  <point x="125" y="346" type="line"/>
	  <point x="116" y="285" type="line"/>
	  <point x="255" y="285" type="line"/>
	  <point x="243" y="201" type="line"/>
	  <point x="104" y="201" type="line"/>
	  <point x="96" y="140" type="line"/>
	  <point x="235" y="140" type="line"/>
	  <point x="215" y="0" type="line"/>
	  <point x="311" y="0" type="line"/>
	  <point x="331" y="140" type="line"/>
	  <point x="472" y="140" type="line"/>
	  <point x="480" y="201" type="line"/>
	  <point x="339" y="201" type="line"/>
	  <point x="351" y="285" type="line"/>
	  <point x="492" y="285" type="line"/>
	  <point x="501" y="346" type="line"/>
	  <point x="385" y="346" type="line"/>
	  <point x="625" y="689" type="line"/>
	</contour>
	<contour>
	  <point x="498" y="697" type="move" name="top"/>
	</contour>
	<contour>
	  <point x="611" y="705" type="move" name="topright"/>
	</contour>
	<contour>
	  <point x="386" y="705" type="move" name="topleft"/>
	</contour>
	<contour>
	  <point x="300" y="0" type="move" name="bottom"/>
	</contour>
  </outline>
</glyph>
<glyph name="brokenbar" format="1">
  <advance width="600"/>
  <unicode hex="00A6"/>
  <outline>
	<contour>
	  <point x="334" y="807" type="line"/>
	  <point x="284" y="451" type="line"/>
	  <point x="367" y="451" type="line"/>
	  <point x="417" y="807" type="line"/>
	</contour>
	<contour>
	  <point x="257" y="254" type="line"/>
	  <point x="207" y="-102" type="line"/>
	  <point x="290" y="-102" type="line"/>
	  <point x="340" y="254" type="line"/>
	</contour>
  </outline>
</glyph>
<glyph name="section" format="1">
  <advance width="600"/>
  <unicode hex="00A7"/>
  <outline>
	<contour>
	  <point x="269" y="701"/>
	  <point x="179" y="647"/>
	  <point x="166" y="558" type="curve" smooth="yes"/>
	  <point x="160" y="511"/>
	  <point x="179" y="474"/>
	  <point x="210" y="447" type="curve"/>
	  <point x="160" y="418"/>
	  <point x="119" y="376"/>
	  <point x="112" y="324" type="curve" smooth="yes"/>
	  <point x="100" y="242"/>
	  <point x="143" y="202"/>
	  <point x="247" y="167" type="curve" smooth="yes"/>
	  <point x="342" y="133"/>
	  <point x="359" y="117"/>
	  <point x="354" y="75" type="curve" smooth="yes"/>
	  <point x="347" y="31"/>
	  <point x="299" y="2"/>
	  <point x="241" y="2" type="curve" smooth="yes"/>
	  <point x="188" y="2"/>
	  <point x="150" y="16"/>
	  <point x="114" y="44" type="curve"/>
	  <point x="67" y="-14" type="line"/>
	  <point x="107" y="-47"/>
	  <point x="160" y="-71"/>
	  <point x="236" y="-71" type="curve" smooth="yes"/>
	  <point x="349" y="-71"/>
	  <point x="435" y="-18"/>
	  <point x="448" y="71" type="curve" smooth="yes"/>
	  <point x="455" y="120"/>
	  <point x="435" y="156"/>
	  <point x="405" y="182" type="curve"/>
	  <point x="455" y="211"/>
	  <point x="495" y="253"/>
	  <point x="502" y="306" type="curve" smooth="yes"/>
	  <point x="513" y="387"/>
	  <point x="471" y="428"/>
	  <point x="367" y="462" type="curve" smooth="yes"/>
	  <point x="273" y="497"/>
	  <point x="255" y="513"/>
	  <point x="261" y="555" type="curve" smooth="yes"/>
	  <point x="267" y="598"/>
	  <point x="310" y="628"/>
	  <point x="368" y="628" type="curve" smooth="yes"/>
	  <point x="421" y="628"/>
	  <point x="456" y="614"/>
	  <point x="492" y="587" type="curve"/>
	  <point x="540" y="646" type="line"/>
	  <point x="498" y="678"/>
	  <point x="449" y="701"/>
	  <point x="374" y="701" type="curve" smooth="yes"/>
	</contour>
	<contour>
	  <point x="391" y="365"/>
	  <point x="420" y="356"/>
	  <point x="413" y="304" type="curve" smooth="yes"/>
	  <point x="408" y="274"/>
	  <point x="385" y="242"/>
	  <point x="350" y="216" type="curve"/>
	  <point x="223" y="263"/>
	  <point x="194" y="271"/>
	  <point x="202" y="326" type="curve" smooth="yes"/>
	  <point x="206" y="355"/>
	  <point x="228" y="387"/>
	  <point x="264" y="413" type="curve"/>
	</contour>
  </outline>
</glyph>
<glyph name="dieresis" format="1">
  <advance width="600"/>
  <unicode hex="00A8"/>
  <outline>
	<contour>
	  <point x="283" y="647"/>
	  <point x="309" y="668"/>
	  <point x="313" y="698" type="curve" smooth="yes"/>
	  <point x="318" y="733"/>
	  <point x="295" y="760"/>
	  <point x="261" y="760" type="curve" smooth="yes"/>
	  <point x="230" y="760"/>
	  <point x="204" y="739"/>
	  <point x="199" y="708" type="curve" smooth="yes"/>
	  <point x="195" y="674"/>
	  <point x="218" y="647"/>
	  <point x="253" y="647" type="curve" smooth="yes"/>
	</contour>
	<contour>
	  <point x="493" y="647"/>
	  <point x="519" y="668"/>
	  <point x="523" y="698" type="curve" smooth="yes"/>
	  <point x="528" y="733"/>
	  <point x="505" y="760"/>
	  <point x="470" y="760" type="curve" smooth="yes"/>
	  <point x="440" y="760"/>
	  <point x="414" y="739"/>
	  <point x="409" y="708" type="curve" smooth="yes"/>
	  <point x="405" y="674"/>
	  <point x="428" y="647"/>
	  <point x="462" y="647" type="curve" smooth="yes"/>
	</contour>
	<contour>
	  <point x="424" y="702" type="move" name="top"/>
	</contour>
	<contour>
	  <point x="374" y="527" type="move" name="_top"/>
	</contour>
  </outline>
</glyph>
<glyph name="copyright" format="1">
  <advance width="600"/>
  <unicode hex="00A9"/>
  <outline>
	<contour>
	  <point x="193" y="748"/>
	  <point x="76" y="611"/>
	  <point x="52" y="439" type="curve" smooth="yes"/>
	  <point x="27" y="264"/>
	  <point x="109" y="121"/>
	  <point x="285" y="121" type="curve" smooth="yes"/>
	  <point x="456" y="121"/>
	  <point x="572" y="258"/>
	  <point x="596" y="429" type="curve" smooth="yes"/>
	  <point x="621" y="605"/>
	  <point x="540" y="748"/>
	  <point x="365" y="748" type="curve" smooth="yes"/>
	</contour>
	<contour>
	  <point x="266" y="625"/>
	  <point x="184" y="562"/>
	  <point x="167" y="440" type="curve" smooth="yes"/>
	  <point x="149" y="315"/>
	  <point x="209" y="245"/>
	  <point x="307" y="245" type="curve" smooth="yes"/>
	  <point x="360" y="245"/>
	  <point x="401" y="265"/>
	  <point x="433" y="290" type="curve"/>
	  <point x="402" y="344" type="line"/>
	  <point x="377" y="323"/>
	  <point x="348" y="308"/>
	  <point x="311" y="308" type="curve" smooth="yes"/>
	  <point x="259" y="308"/>
	  <point x="229" y="345"/>
	  <point x="241" y="430" type="curve" smooth="yes"/>
	  <point x="255" y="525"/>
	  <point x="302" y="565"/>
	  <point x="355" y="565" type="curve" smooth="yes"/>
	  <point x="379" y="565"/>
	  <point x="403" y="558"/>
	  <point x="426" y="538" type="curve"/>
	  <point x="466" y="583" type="line"/>
	  <point x="434" y="610"/>
	  <point x="405" y="625"/>
	  <point x="352" y="625" type="curve" smooth="yes"/>
	</contour>
	<contour>
	  <point x="508" y="696"/>
	  <point x="560" y="582"/>
	  <point x="540" y="439" type="curve" smooth="yes"/>
	  <point x="519" y="293"/>
	  <point x="430" y="174"/>
	  <point x="284" y="174" type="curve" smooth="yes"/>
	  <point x="141" y="174"/>
	  <point x="89" y="287"/>
	  <point x="109" y="429" type="curve" smooth="yes"/>
	  <point x="130" y="576"/>
	  <point x="219" y="696"/>
	  <point x="366" y="696" type="curve" smooth="yes"/>
	</contour>
  </outline>
</glyph>
<glyph name="ordfeminine" format="1">
  <advance width="600"/>
  <unicode hex="00AA"/>
  <outline>
	<contour>
	  <point x="311" y="750"/>
	  <point x="257" y="743"/>
	  <point x="195" y="721" type="curve"/>
	  <point x="215" y="657" type="line"/>
	  <point x="265" y="674"/>
	  <point x="311" y="682"/>
	  <point x="341" y="682" type="curve" smooth="yes"/>
	  <point x="401" y="682"/>
	  <point x="431" y="664"/>
	  <point x="424" y="609" type="curve" smooth="yes"/>
	  <point x="419" y="578" type="line"/>
	  <point x="359" y="578" type="line" smooth="yes"/>
	  <point x="223" y="578"/>
	  <point x="138" y="532"/>
	  <point x="126" y="445" type="curve" smooth="yes"/>
	  <point x="114" y="363"/>
	  <point x="169" y="307"/>
	  <point x="262" y="307" type="curve" smooth="yes"/>
	  <point x="311" y="307"/>
	  <point x="363" y="326"/>
	  <point x="402" y="366" type="curve"/>
	  <point x="411" y="331"/>
	  <point x="438" y="312"/>
	  <point x="480" y="307" type="curve"/>
	  <point x="505" y="364" type="line"/>
	  <point x="483" y="371"/>
	  <point x="476" y="382"/>
	  <point x="480" y="412" type="curve" smooth="yes"/>
	  <point x="507" y="606" type="line" smooth="yes"/>
	  <point x="520" y="694"/>
	  <point x="471" y="750"/>
	  <point x="354" y="750" type="curve" smooth="yes"/>
	</contour>
	<contour>
	  <point x="79" y="79" type="line"/>
	  <point x="68" y="0" type="line"/>
	  <point x="463" y="0" type="line"/>
	  <point x="474" y="79" type="line"/>
	</contour>
	<contour>
	  <point x="397" y="427" type="line"/>
	  <point x="367" y="393"/>
	  <point x="325" y="370"/>
	  <point x="284" y="370" type="curve" smooth="yes"/>
	  <point x="234" y="370"/>
	  <point x="209" y="392"/>
	  <point x="216" y="439" type="curve" smooth="yes"/>
	  <point x="223" y="489"/>
	  <point x="267" y="519"/>
	  <point x="358" y="519" type="curve" smooth="yes"/>
	  <point x="411" y="519" type="line"/>
	</contour>
  </outline>
</glyph>
<glyph name="guillemotleft" format="1">
  <advance width="600"/>
  <unicode hex="00AB"/>
  <outline>
	<contour>
	  <point x="180" y="293" type="line"/>
	  <point x="342" y="500" type="line"/>
	  <point x="291" y="535" type="line"/>
	  <point x="87" y="325" type="line"/>
	  <point x="80" y="260" type="line"/>
	  <point x="225" y="51" type="line"/>
	  <point x="284" y="86" type="line"/>
	</contour>
	<contour>
	  <point x="391" y="293" type="line"/>
	  <point x="553" y="500" type="line"/>
	  <point x="502" y="535" type="line"/>
	  <point x="297" y="325" type="line"/>
	  <point x="290" y="260" type="line"/>
	  <point x="436" y="51" type="line"/>
	  <point x="495" y="86" type="line"/>
	</contour>
  </outline>
</glyph>
<glyph name="registered" format="1">
  <advance width="600"/>
  <unicode hex="00AE"/>
  <outline>
	<contour>
	  <point x="224" y="748"/>
	  <point x="96" y="636"/>
	  <point x="77" y="496" type="curve" smooth="yes"/>
	  <point x="56" y="352"/>
	  <point x="156" y="236"/>
	  <point x="300" y="236" type="curve" smooth="yes"/>
	  <point x="440" y="236"/>
	  <point x="567" y="346"/>
	  <point x="586" y="486" type="curve" smooth="yes"/>
	  <point x="607" y="630"/>
	  <point x="508" y="748"/>
	  <point x="364" y="748" type="curve" smooth="yes"/>
	</contour>
	<contour>
	  <point x="478" y="699"/>
	  <point x="549" y="609"/>
	  <point x="533" y="496" type="curve" smooth="yes"/>
	  <point x="516" y="379"/>
	  <point x="416" y="285"/>
	  <point x="299" y="285" type="curve" smooth="yes"/>
	  <point x="186" y="285"/>
	  <point x="114" y="373"/>
	  <point x="130" y="486" type="curve" smooth="yes"/>
	  <point x="147" y="603"/>
	  <point x="248" y="699"/>
	  <point x="365" y="699" type="curve" smooth="yes"/>
	</contour>
	<contour>
	  <point x="252" y="636" type="line"/>
	  <point x="213" y="354" type="line"/>
	  <point x="271" y="354" type="line"/>
	  <point x="286" y="462" type="line"/>
	  <point x="315" y="462" type="line"/>
	  <point x="374" y="354" type="line"/>
	  <point x="440" y="354" type="line"/>
	  <point x="373" y="471" type="line"/>
	  <point x="414" y="482"/>
	  <point x="443" y="506"/>
	  <point x="449" y="546" type="curve" smooth="yes"/>
	  <point x="457" y="604"/>
	  <point x="418" y="636"/>
	  <point x="335" y="636" type="curve" smooth="yes"/>
	</contour>
	<contour>
	  <point x="378" y="591"/>
	  <point x="393" y="580"/>
	  <point x="390" y="556" type="curve" smooth="yes"/>
	  <point x="385" y="522"/>
	  <point x="359" y="507"/>
	  <point x="321" y="507" type="curve" smooth="yes"/>
	  <point x="292" y="507" type="line"/>
	  <point x="304" y="591" type="line"/>
	  <point x="335" y="591" type="line" smooth="yes"/>
	</contour>
  </outline>
</glyph>
<glyph name="macron" format="1">
  <advance width="600"/>
  <unicode hex="00AF"/>
  <outline>
	<contour>
	  <point x="503" y="743" type="line"/>
	  <point x="230" y="743" type="line"/>
	  <point x="221" y="674" type="line"/>
	  <point x="494" y="674" type="line"/>
	</contour>
	<contour>
	  <point x="374" y="527" type="move" name="_top"/>
	</contour>
  </outline>
</glyph>
<glyph name="degree" format="1">
  <advance width="600"/>
  <unicode hex="00B0"/>
  <outline>
	<contour>
	  <point x="213" y="750"/>
	  <point x="127" y="696"/>
	  <point x="113" y="598" type="curve" smooth="yes"/>
	  <point x="98" y="494"/>
	  <point x="173" y="434"/>
	  <point x="258" y="434" type="curve" smooth="yes"/>
	  <point x="340" y="434"/>
	  <point x="426" y="488"/>
	  <point x="439" y="587" type="curve" smooth="yes"/>
	  <point x="454" y="690"/>
	  <point x="380" y="750"/>
	  <point x="294" y="750" type="curve" smooth="yes"/>
	</contour>
	<contour>
	  <point x="338" y="687"/>
	  <point x="373" y="659"/>
	  <point x="364" y="597" type="curve" smooth="yes"/>
	  <point x="355" y="531"/>
	  <point x="307" y="497"/>
	  <point x="259" y="497" type="curve" smooth="yes"/>
	  <point x="216" y="497"/>
	  <point x="180" y="525"/>
	  <point x="189" y="588" type="curve" smooth="yes"/>
	  <point x="198" y="654"/>
	  <point x="247" y="687"/>
	  <point x="294" y="687" type="curve" smooth="yes"/>
	</contour>
  </outline>
</glyph>
<glyph name="plusminus" format="1">
  <advance width="600"/>
  <unicode hex="00B1"/>
  <outline>
	<contour>
	  <point x="296" y="540" type="line"/>
	  <point x="275" y="390" type="line"/>
	  <point x="130" y="390" type="line"/>
	  <point x="119" y="314" type="line"/>
	  <point x="264" y="314" type="line"/>
	  <point x="243" y="164" type="line"/>
	  <point x="329" y="164" type="line"/>
	  <point x="350" y="314" type="line"/>
	  <point x="495" y="314" type="line"/>
	  <point x="506" y="390" type="line"/>
	  <point x="361" y="390" type="line"/>
	  <point x="382" y="540" type="line"/>
	</contour>
	<contour>
	  <point x="86" y="78" type="line"/>
	  <point x="75" y="0" type="line"/>
	  <point x="451" y="0" type="line"/>
	  <point x="462" y="78" type="line"/>
	</contour>
  </outline>
</glyph>
<glyph name="acute" format="1">
  <advance width="600"/>
  <unicode hex="00B4"/>
  <outline>
	<contour>
	  <point x="263" y="622" type="line"/>
	  <point x="480" y="714" type="line"/>
	  <point x="443" y="791" type="line"/>
	  <point x="239" y="672" type="line"/>
	</contour>
	<contour>
	  <point x="374" y="527" type="move" name="_top"/>
	</contour>
  </outline>
</glyph>
<glyph name="uni00B5" format="1">
  <advance width="600"/>
  <unicode hex="00B5"/>
  <outline>
	<contour>
	  <point x="433" y="527" type="line"/>
	  <point x="378" y="146" type="line"/>
	  <point x="344" y="105"/>
	  <point x="293" y="67"/>
	  <point x="231" y="67" type="curve" smooth="yes"/>
	  <point x="156" y="67"/>
	  <point x="159" y="125"/>
	  <point x="173" y="228" type="curve" smooth="yes"/>
	  <point x="215" y="527" type="line"/>
	  <point x="123" y="527" type="line"/>
	  <point x="19" y="-213" type="line"/>
	  <point x="112" y="-202" type="line"/>
	  <point x="132" y="-59" type="line" smooth="yes"/>
	  <point x="135" y="-33"/>
	  <point x="135" y="-2"/>
	  <point x="134" y="38" type="curve"/>
	  <point x="155" y="3"/>
	  <point x="178" y="-12"/>
	  <point x="232" y="-12" type="curve" smooth="yes"/>
	  <point x="282" y="-12"/>
	  <point x="341" y="19"/>
	  <point x="379" y="72" type="curve"/>
	  <point x="378" y="49"/>
	  <point x="383" y="8"/>
	  <point x="391" y="-10" type="curve"/>
	  <point x="476" y="-2" type="line"/>
	  <point x="470" y="40"/>
	  <point x="465" y="98"/>
	  <point x="474" y="167" type="curve" smooth="yes"/>
	  <point x="525" y="527" type="line"/>
	</contour>
  </outline>
</glyph>
<glyph name="paragraph" format="1">
  <advance width="600"/>
  <unicode hex="00B6"/>
  <outline>
	<contour>
	  <point x="352" y="689" type="line" smooth="yes"/>
	  <point x="185" y="689"/>
	  <point x="88" y="603"/>
	  <point x="72" y="491" type="curve" smooth="yes"/>
	  <point x="56" y="378"/>
	  <point x="127" y="288"/>
	  <point x="289" y="286" type="curve"/>
	  <point x="217" y="-213" type="line"/>
	  <point x="302" y="-202" type="line"/>
	  <point x="416" y="615" type="line"/>
	  <point x="525" y="615" type="line"/>
	  <point x="409" y="-213" type="line"/>
	  <point x="494" y="-202" type="line"/>
	  <point x="619" y="689" type="line"/>
	</contour>
  </outline>
</glyph>
<glyph name="cedilla" format="1">
  <advance width="600"/>
  <unicode hex="00B8"/>
  <outline>
	<contour>
	  <point x="277" y="-167"/>
	  <point x="250" y="-181"/>
	  <point x="213" y="-181" type="curve" smooth="yes"/>
	  <point x="193" y="-181"/>
	  <point x="167" y="-176"/>
	  <point x="150" y="-166" type="curve"/>
	  <point x="118" y="-215" type="line"/>
	  <point x="143" y="-230"/>
	  <point x="180" y="-241"/>
	  <point x="223" y="-241" type="curve" smooth="yes"/>
	  <point x="288" y="-241"/>
	  <point x="348" y="-210"/>
	  <point x="357" y="-146" type="curve" smooth="yes"/>
	  <point x="363" y="-103"/>
	  <point x="339" y="-62"/>
	  <point x="274" y="-56" type="curve"/>
	  <point x="286" y="16" type="line"/>
	  <point x="225" y="16" type="line"/>
	  <point x="202" y="-99" type="line"/>
	  <point x="256" y="-99"/>
	  <point x="286" y="-103"/>
	  <point x="282" y="-136" type="curve" smooth="yes"/>
	</contour>
	<contour>
	  <point x="226" y="0" type="move" name="_bottom"/>
	</contour>
  </outline>
</glyph>
<glyph name="ordmasculine" format="1">
  <advance width="600"/>
  <unicode hex="00BA"/>
  <outline>
	<contour>
	  <point x="241" y="750"/>
	  <point x="150" y="662"/>
	  <point x="132" y="534" type="curve" smooth="yes"/>
	  <point x="113" y="398"/>
	  <point x="182" y="307"/>
	  <point x="310" y="307" type="curve" smooth="yes"/>
	  <point x="433" y="307"/>
	  <point x="523" y="395"/>
	  <point x="542" y="524" type="curve" smooth="yes"/>
	  <point x="561" y="660"/>
	  <point x="492" y="750"/>
	  <point x="364" y="750" type="curve" smooth="yes"/>
	</contour>
	<contour>
	  <point x="77" y="79" type="line"/>
	  <point x="66" y="0" type="line"/>
	  <point x="461" y="0" type="line"/>
	  <point x="472" y="79" type="line"/>
	</contour>
	<contour>
	  <point x="432" y="682"/>
	  <point x="467" y="637"/>
	  <point x="453" y="534" type="curve" smooth="yes"/>
	  <point x="438" y="426"/>
	  <point x="385" y="375"/>
	  <point x="312" y="375" type="curve" smooth="yes"/>
	  <point x="243" y="375"/>
	  <point x="206" y="420"/>
	  <point x="221" y="524" type="curve" smooth="yes"/>
	  <point x="236" y="631"/>
	  <point x="290" y="682"/>
	  <point x="363" y="682" type="curve" smooth="yes"/>
	</contour>
  </outline>
</glyph>
<glyph name="guillemotright" format="1">
  <advance width="600"/>
  <unicode hex="00BB"/>
  <outline>
	<contour>
	  <point x="264" y="86" type="line"/>
	  <point x="315" y="51" type="line"/>
	  <point x="521" y="260" type="line"/>
	  <point x="528" y="325" type="line"/>
	  <point x="381" y="535" type="line"/>
	  <point x="322" y="500" type="line"/>
	  <point x="426" y="293" type="line"/>
	</contour>
	<contour>
	  <point x="54" y="86" type="line"/>
	  <point x="105" y="51" type="line"/>
	  <point x="310" y="260" type="line"/>
	  <point x="317" y="325" type="line"/>
	  <point x="171" y="535" type="line"/>
	  <point x="112" y="500" type="line"/>
	  <point x="216" y="293" type="line"/>
	</contour>
  </outline>
</glyph>
<glyph name="questiondown" format="1">
  <advance width="600"/>
  <unicode hex="00BF"/>
  <outline>
	<contour>
	  <point x="280" y="258" type="line"/>
	  <point x="276" y="228" type="line" smooth="yes"/>
	  <point x="256" y="85"/>
	  <point x="78" y="106"/>
	  <point x="56" y="-52" type="curve" smooth="yes"/>
	  <point x="44" y="-134"/>
	  <point x="110" y="-213"/>
	  <point x="238" y="-213" type="curve" smooth="yes"/>
	  <point x="319" y="-213"/>
	  <point x="394" y="-183"/>
	  <point x="462" y="-115" type="curve"/>
	  <point x="402" y="-63" type="line"/>
	  <point x="355" y="-113"/>
	  <point x="299" y="-137"/>
	  <point x="250" y="-137" type="curve" smooth="yes"/>
	  <point x="187" y="-137"/>
	  <point x="144" y="-109"/>
	  <point x="151" y="-56" type="curve" smooth="yes"/>
	  <point x="167" y="56"/>
	  <point x="343" y="54"/>
	  <point x="365" y="217" type="curve" smooth="yes"/>
	  <point x="371" y="258" type="line"/>
	</contour>
	<contour>
	  <point x="315" y="500"/>
	  <point x="283" y="472"/>
	  <point x="278" y="435" type="curve" smooth="yes"/>
	  <point x="272" y="395"/>
	  <point x="300" y="361"/>
	  <point x="341" y="361" type="curve" smooth="yes"/>
	  <point x="378" y="361"/>
	  <point x="411" y="389"/>
	  <point x="416" y="425" type="curve" smooth="yes"/>
	  <point x="421" y="466"/>
	  <point x="393" y="500"/>
	  <point x="352" y="500" type="curve" smooth="yes"/>
	</contour>
  </outline>
</glyph>
<glyph name="AE" format="1">
  <advance width="600"/>
  <unicode hex="00C6"/>
  <outline>
	<contour>
	  <point x="326" y="0" type="line"/>
	  <point x="570" y="0" type="line"/>
	  <point x="581" y="75" type="line"/>
	  <point x="412" y="75" type="line"/>
	  <point x="395" y="312" type="line"/>
	  <point x="564" y="312" type="line"/>
	  <point x="574" y="387" type="line"/>
	  <point x="391" y="387" type="line"/>
	  <point x="374" y="614" type="line"/>
	  <point x="604" y="614" type="line"/>
	  <point x="626" y="689" type="line"/>
	  <point x="246" y="689" type="line"/>
	  <point x="-50" y="0" type="line"/>
	  <point x="48" y="0" type="line"/>
	  <point x="118" y="173" type="line"/>
	  <point x="315" y="173" type="line"/>
	</contour>
	<contour>
	  <point x="292" y="616" type="line"/>
	  <point x="310" y="250" type="line"/>
	  <point x="151" y="250" type="line"/>
	</contour>
	<contour>
	  <point x="480" y="689" type="move" name="top"/>
	</contour>
  </outline>
</glyph>
<glyph name="Eth" format="1">
  <advance width="600"/>
  <unicode hex="00D0"/>
  <outline>
	<contour>
	  <point x="202" y="388" type="line"/>
	  <point x="36" y="388" type="line"/>
	  <point x="27" y="318" type="line"/>
	  <point x="98" y="318" type="line"/>
	  <point x="347" y="318" type="line"/>
	  <point x="356" y="388" type="line"/>
	</contour>
	<component base="D" xOffset="-27"/>
  </outline>
</glyph>
<glyph name="multiply" format="1">
  <advance width="600"/>
  <unicode hex="00D7"/>
  <outline>
	<contour>
	  <point x="313" y="363" type="line"/>
	  <point x="208" y="486" type="line"/>
	  <point x="145" y="429" type="line"/>
	  <point x="250" y="307" type="line"/>
	  <point x="111" y="185" type="line"/>
	  <point x="160" y="129" type="line"/>
	  <point x="299" y="251" type="line"/>
	  <point x="404" y="129" type="line"/>
	  <point x="467" y="185" type="line"/>
	  <point x="362" y="307" type="line"/>
	  <point x="501" y="429" type="line"/>
	  <point x="452" y="486" type="line"/>
	</contour>
  </outline>
</glyph>
<glyph name="Oslash" format="1">
  <advance width="600"/>
  <unicode hex="00D8"/>
  <outline>
	<contour>
	  <point x="190" y="701"/>
	  <point x="85" y="556"/>
	  <point x="56" y="348" type="curve" smooth="yes"/>
	  <point x="26" y="132"/>
	  <point x="96" y="-12"/>
	  <point x="265" y="-12" type="curve" smooth="yes"/>
	  <point x="432" y="-12"/>
	  <point x="537" y="131"/>
	  <point x="567" y="339" type="curve" smooth="yes"/>
	  <point x="597" y="555"/>
	  <point x="526" y="701"/>
	  <point x="357" y="701" type="curve" smooth="yes"/>
	</contour>
	<contour>
	  <point x="421" y="689" type="line"/>
	  <point x="402" y="632" type="line"/>
	  <point x="170" y="92" type="line"/>
	  <point x="134" y="38" type="line"/>
	  <point x="77" y="-89" type="line"/>
	  <point x="155" y="-110" type="line"/>
	  <point x="206" y="5" type="line"/>
	  <point x="221" y="57" type="line"/>
	  <point x="456" y="604" type="line"/>
	  <point x="491" y="656" type="line"/>
	  <point x="547" y="782" type="line"/>
	  <point x="470" y="803" type="line"/>
	</contour>
	<contour>
	  <point x="465" y="623"/>
	  <point x="497" y="549"/>
	  <point x="469" y="349" type="curve" smooth="yes"/>
	  <point x="443" y="165"/>
	  <point x="382" y="66"/>
	  <point x="268" y="66" type="curve" smooth="yes"/>
	  <point x="161" y="66"/>
	  <point x="125" y="138"/>
	  <point x="153" y="338" type="curve" smooth="yes"/>
	  <point x="179" y="522"/>
	  <point x="241" y="623"/>
	  <point x="355" y="623" type="curve" smooth="yes"/>
	</contour>
	<contour>
	  <point x="420" y="689" type="move" name="top"/>
	</contour>
  </outline>
</glyph>
<glyph name="Thorn" format="1">
  <advance width="600"/>
  <unicode hex="00DE"/>
  <outline>
	<contour>
	  <point x="162" y="689" type="line"/>
	  <point x="65" y="0" type="line"/>
	  <point x="160" y="0" type="line"/>
	  <point x="178" y="127" type="line"/>
	  <point x="276" y="127" type="line" smooth="yes"/>
	  <point x="432" y="127"/>
	  <point x="548" y="191"/>
	  <point x="570" y="350" type="curve" smooth="yes"/>
	  <point x="591" y="501"/>
	  <point x="500" y="573"/>
	  <point x="332" y="573" type="curve" smooth="yes"/>
	  <point x="240" y="573" type="line"/>
	  <point x="257" y="689" type="line"/>
	</contour>
	<contour>
	  <point x="430" y="499"/>
	  <point x="486" y="460"/>
	  <point x="471" y="358" type="curve" smooth="yes"/>
	  <point x="455" y="239"/>
	  <point x="383" y="202"/>
	  <point x="291" y="202" type="curve" smooth="yes"/>
	  <point x="188" y="202" type="line"/>
	  <point x="230" y="499" type="line"/>
	  <point x="336" y="499" type="line" smooth="yes"/>
	</contour>
  </outline>
</glyph>
<glyph name="germandbls" format="1">
  <advance width="600"/>
  <unicode hex="00DF"/>
  <outline>
	<contour>
	  <point x="234" y="750"/>
	  <point x="150" y="678"/>
	  <point x="130" y="536" type="curve" smooth="yes"/>
	  <point x="55" y="0" type="line"/>
	  <point x="147" y="0" type="line"/>
	  <point x="222" y="536" type="line" smooth="yes"/>
	  <point x="236" y="636"/>
	  <point x="283" y="678"/>
	  <point x="357" y="678" type="curve" smooth="yes"/>
	  <point x="423" y="678"/>
	  <point x="437" y="636"/>
	  <point x="433" y="602" type="curve" smooth="yes"/>
	  <point x="422" y="526"/>
	  <point x="308" y="515"/>
	  <point x="295" y="422" type="curve" smooth="yes"/>
	  <point x="277" y="289"/>
	  <point x="470" y="292"/>
	  <point x="453" y="168" type="curve" smooth="yes"/>
	  <point x="443" y="98"/>
	  <point x="397" y="62"/>
	  <point x="331" y="62" type="curve" smooth="yes"/>
	  <point x="305" y="62"/>
	  <point x="274" y="70"/>
	  <point x="252" y="84" type="curve"/>
	  <point x="210" y="23" type="line"/>
	  <point x="243" y="1"/>
	  <point x="282" y="-12"/>
	  <point x="337" y="-12" type="curve" smooth="yes"/>
	  <point x="437" y="-12"/>
	  <point x="530" y="48"/>
	  <point x="546" y="162" type="curve" smooth="yes"/>
	  <point x="570" y="333"/>
	  <point x="373" y="340"/>
	  <point x="385" y="424" type="curve" smooth="yes"/>
	  <point x="394" y="488"/>
	  <point x="507" y="505"/>
	  <point x="520" y="600" type="curve" smooth="yes"/>
	  <point x="533" y="687"/>
	  <point x="468" y="750"/>
	  <point x="360" y="750" type="curve" smooth="yes"/>
	</contour>
  </outline>
</glyph>
<glyph name="ae" format="1">
  <advance width="600"/>
  <unicode hex="00E6"/>
  <outline>
	<contour>
	  <point x="408" y="539"/>
	  <point x="360" y="508"/>
	  <point x="334" y="453" type="curve"/>
	  <point x="320" y="503"/>
	  <point x="286" y="539"/>
	  <point x="205" y="539" type="curve" smooth="yes"/>
	  <point x="163" y="539"/>
	  <point x="114" y="527"/>
	  <point x="66" y="506" type="curve"/>
	  <point x="86" y="438" type="line"/>
	  <point x="130" y="457"/>
	  <point x="156" y="466"/>
	  <point x="193" y="466" type="curve" smooth="yes"/>
	  <point x="249" y="466"/>
	  <point x="277" y="438"/>
	  <point x="266" y="365" type="curve" smooth="yes"/>
	  <point x="260" y="321" type="line"/>
	  <point x="213" y="321" type="line" smooth="yes"/>
	  <point x="73" y="321"/>
	  <point x="-6" y="264"/>
	  <point x="-21" y="156" type="curve" smooth="yes"/>
	  <point x="-35" y="56"/>
	  <point x="16" y="-12"/>
	  <point x="111" y="-12" type="curve" smooth="yes"/>
	  <point x="176" y="-12"/>
	  <point x="218" y="13"/>
	  <point x="273" y="77" type="curve"/>
	  <point x="297" y="22"/>
	  <point x="339" y="-12"/>
	  <point x="412" y="-12" type="curve" smooth="yes"/>
	  <point x="468" y="-12"/>
	  <point x="514" y="7"/>
	  <point x="558" y="39" type="curve"/>
	  <point x="522" y="103" type="line"/>
	  <point x="486" y="78"/>
	  <point x="457" y="62"/>
	  <point x="417" y="62" type="curve" smooth="yes"/>
	  <point x="350" y="62"/>
	  <point x="326" y="112"/>
	  <point x="333" y="229" type="curve"/>
	  <point x="599" y="229" type="line"/>
	  <point x="602" y="242"/>
	  <point x="605" y="258"/>
	  <point x="607" y="274" type="curve" smooth="yes"/>
	  <point x="631" y="438"/>
	  <point x="591" y="539"/>
	  <point x="469" y="539" type="curve" smooth="yes"/>
	</contour>
	<contour>
	  <point x="246" y="223"/>
	  <point x="246" y="184"/>
	  <point x="250" y="155" type="curve"/>
	  <point x="206" y="91"/>
	  <point x="172" y="57"/>
	  <point x="127" y="57" type="curve" smooth="yes"/>
	  <point x="86" y="57"/>
	  <point x="64" y="88"/>
	  <point x="73" y="151" type="curve" smooth="yes"/>
	  <point x="82" y="216"/>
	  <point x="121" y="260"/>
	  <point x="214" y="260" type="curve" smooth="yes"/>
	  <point x="252" y="263" type="line"/>
	</contour>
	<contour>
	  <point x="527" y="466"/>
	  <point x="539" y="412"/>
	  <point x="526" y="303" type="curve"/>
	  <point x="343" y="297" type="line"/>
	  <point x="368" y="420"/>
	  <point x="403" y="466"/>
	  <point x="463" y="466" type="curve" smooth="yes"/>
	</contour>
	<contour>
	  <point x="382" y="527" type="move" name="top"/>
	</contour>
  </outline>
</glyph>
<glyph name="eth" format="1">
  <advance width="600"/>
  <unicode hex="00F0"/>
  <outline>
	<contour>
	  <point x="268" y="531" type="line"/>
	  <point x="356" y="611" type="line"/>
	  <point x="412" y="566"/>
	  <point x="446" y="500"/>
	  <point x="452" y="415" type="curve"/>
	  <point x="420" y="455"/>
	  <point x="373" y="481"/>
	  <point x="304" y="481" type="curve" smooth="yes"/>
	  <point x="192" y="481"/>
	  <point x="81" y="386"/>
	  <point x="61" y="240" type="curve" smooth="yes"/>
	  <point x="38" y="80"/>
	  <point x="130" y="-12"/>
	  <point x="260" y="-12" type="curve" smooth="yes"/>
	  <point x="404" y="-12"/>
	  <point x="511" y="94"/>
	  <point x="535" y="260" type="curve" smooth="yes"/>
	  <point x="561" y="452"/>
	  <point x="524" y="583"/>
	  <point x="415" y="665" type="curve"/>
	  <point x="487" y="729" type="line"/>
	  <point x="439" y="776" type="line"/>
	  <point x="356" y="701" type="line"/>
	  <point x="319" y="722"/>
	  <point x="272" y="737"/>
	  <point x="215" y="749" type="curve"/>
	  <point x="190" y="681" type="line"/>
	  <point x="233" y="672"/>
	  <point x="269" y="661"/>
	  <point x="299" y="646" type="curve"/>
	  <point x="207" y="563" type="line"/>
	</contour>
	<contour>
	  <point x="424" y="134"/>
	  <point x="355" y="61"/>
	  <point x="262" y="61" type="curve" smooth="yes"/>
	  <point x="184" y="61"/>
	  <point x="138" y="119"/>
	  <point x="154" y="234" type="curve" smooth="yes"/>
	  <point x="171" y="354"/>
	  <point x="242" y="409"/>
	  <point x="315" y="409" type="curve" smooth="yes"/>
	  <point x="375" y="409"/>
	  <point x="424" y="384"/>
	  <point x="450" y="337" type="curve"/>
	  <point x="448" y="314"/>
	  <point x="446" y="293"/>
	  <point x="443" y="271" type="curve" smooth="yes"/>
	</contour>
  </outline>
</glyph>
<glyph name="divide" format="1">
  <advance width="600"/>
  <unicode hex="00F7"/>
  <outline>
	<contour>
	  <point x="124" y="351" type="line"/>
	  <point x="113" y="274" type="line"/>
	  <point x="489" y="274" type="line"/>
	  <point x="500" y="351" type="line"/>
	</contour>
	<contour>
	  <point x="248" y="184"/>
	  <point x="215" y="156"/>
	  <point x="210" y="120" type="curve" smooth="yes"/>
	  <point x="204" y="79"/>
	  <point x="232" y="45"/>
	  <point x="273" y="45" type="curve" smooth="yes"/>
	  <point x="310" y="45"/>
	  <point x="343" y="73"/>
	  <point x="348" y="110" type="curve" smooth="yes"/>
	  <point x="354" y="150"/>
	  <point x="326" y="184"/>
	  <point x="285" y="184" type="curve" smooth="yes"/>
	</contour>
	<contour>
	  <point x="303" y="580"/>
	  <point x="271" y="552"/>
	  <point x="265" y="516" type="curve" smooth="yes"/>
	  <point x="260" y="475"/>
	  <point x="288" y="442"/>
	  <point x="329" y="442" type="curve" smooth="yes"/>
	  <point x="366" y="442"/>
	  <point x="399" y="469"/>
	  <point x="404" y="506" type="curve" smooth="yes"/>
	  <point x="410" y="546"/>
	  <point x="381" y="580"/>
	  <point x="340" y="580" type="curve" smooth="yes"/>
	</contour>
  </outline>
</glyph>
<glyph name="oslash" format="1">
  <advance width="600"/>
  <unicode hex="00F8"/>
  <outline>
	<contour>
	  <point x="188" y="539"/>
	  <point x="93" y="429"/>
	  <point x="71" y="268" type="curve" smooth="yes"/>
	  <point x="47" y="99"/>
	  <point x="118" y="-12"/>
	  <point x="265" y="-12" type="curve" smooth="yes"/>
	  <point x="412" y="-12"/>
	  <point x="507" y="98"/>
	  <point x="529" y="259" type="curve" smooth="yes"/>
	  <point x="553" y="428"/>
	  <point x="483" y="539"/>
	  <point x="336" y="539" type="curve" smooth="yes"/>
	</contour>
	<contour>
	  <point x="382" y="529" type="line"/>
	  <point x="368" y="482" type="line"/>
	  <point x="187" y="82" type="line"/>
	  <point x="152" y="31" type="line"/>
	  <point x="88" y="-109" type="line"/>
	  <point x="161" y="-131" type="line"/>
	  <point x="218" y="0" type="line"/>
	  <point x="239" y="58" type="line"/>
	  <point x="419" y="457" type="line"/>
	  <point x="451" y="500" type="line"/>
	  <point x="513" y="633" type="line"/>
	  <point x="440" y="655" type="line"/>
	</contour>
	<contour>
	  <point x="418" y="465"/>
	  <point x="453" y="414"/>
	  <point x="433" y="269" type="curve" smooth="yes"/>
	  <point x="413" y="129"/>
	  <point x="358" y="62"/>
	  <point x="268" y="62" type="curve" smooth="yes"/>
	  <point x="182" y="62"/>
	  <point x="147" y="113"/>
	  <point x="167" y="258" type="curve" smooth="yes"/>
	  <point x="187" y="398"/>
	  <point x="243" y="465"/>
	  <point x="333" y="465" type="curve" smooth="yes"/>
	</contour>
	<contour>
	  <point x="374" y="527" type="move" name="top"/>
	</contour>
  </outline>
</glyph>
<glyph name="thorn" format="1">
  <advance width="600"/>
  <unicode hex="00FE"/>
  <outline>
	<contour>
	  <point x="164" y="739" type="line"/>
	  <point x="30" y="-213" type="line"/>
	  <point x="124" y="-202" type="line"/>
	  <point x="160" y="50" type="line"/>
	  <point x="189" y="10"/>
	  <point x="233" y="-12"/>
	  <point x="292" y="-12" type="curve" smooth="yes"/>
	  <point x="426" y="-12"/>
	  <point x="507" y="101"/>
	  <point x="529" y="259" type="curve" smooth="yes"/>
	  <point x="553" y="427"/>
	  <point x="516" y="539"/>
	  <point x="374" y="539" type="curve" smooth="yes"/>
	  <point x="317" y="539"/>
	  <point x="261" y="514"/>
	  <point x="216" y="465" type="curve"/>
	  <point x="257" y="750" type="line"/>
	</contour>
	<contour>
	  <point x="425" y="466"/>
	  <point x="452" y="404"/>
	  <point x="433" y="269" type="curve" smooth="yes"/>
	  <point x="413" y="129"/>
	  <point x="359" y="63"/>
	  <point x="273" y="63" type="curve" smooth="yes"/>
	  <point x="227" y="63"/>
	  <point x="190" y="85"/>
	  <point x="169" y="125" type="curve"/>
	  <point x="207" y="382" type="line"/>
	  <point x="241" y="424"/>
	  <point x="290" y="466"/>
	  <point x="348" y="466" type="curve" smooth="yes"/>
	</contour>
  </outline>
</glyph>
<glyph name="dcroat" format="1">
  <advance width="600"/>
  <unicode hex="0111"/>
  <outline>
	<contour>
	  <point x="302" y="667" type="line"/>
	  <point x="292" y="597" type="line"/>
	  <point x="458" y="597" type="line"/>
	  <point x="629" y="597" type="line"/>
	  <point x="639" y="667" type="line"/>
	  <point x="560" y="667" type="line"/>
	</contour>
	<component base="d" xOffset="-37"/>
  </outline>
</glyph>
<glyph name="Hbar" format="1">
  <advance width="600"/>
  <unicode hex="0126"/>
  <outline>
	<contour>
	  <point x="485" y="689" type="line"/>
	  <point x="444" y="401" type="line"/>
	  <point x="194" y="401" type="line"/>
	  <point x="235" y="689" type="line"/>
	  <point x="140" y="689" type="line"/>
	  <point x="43" y="0" type="line"/>
	  <point x="138" y="0" type="line"/>
	  <point x="183" y="323" type="line"/>
	  <point x="433" y="323" type="line"/>
	  <point x="388" y="0" type="line"/>
	  <point x="483" y="0" type="line"/>
	  <point x="580" y="689" type="line"/>
	</contour>
	<contour>
	  <point x="564" y="577" type="line"/>
	  <point x="124" y="577" type="line"/>
	  <point x="46" y="577" type="line"/>
	  <point x="36" y="508" type="line"/>
	  <point x="632" y="508" type="line"/>
	  <point x="642" y="577" type="line"/>
	</contour>
  </outline>
</glyph>
<glyph name="hbar" format="1">
  <advance width="600"/>
  <unicode hex="0127"/>
  <outline>
	<contour>
	  <point x="154" y="667" type="line"/>
	  <point x="75" y="667" type="line"/>
	  <point x="65" y="597" type="line"/>
	  <point x="236" y="597" type="line"/>
	  <point x="402" y="597" type="line"/>
	  <point x="412" y="667" type="line"/>
	</contour>
	<component base="h" xOffset="-37"/>
  </outline>
</glyph>
<glyph name="dotlessi" format="1">
  <advance width="600"/>
  <unicode hex="0131"/>
  <outline>
	<contour>
	  <point x="159" y="527" type="line"/>
	  <point x="149" y="456" type="line"/>
	  <point x="305" y="456" type="line"/>
	  <point x="251" y="71" type="line"/>
	  <point x="90" y="71" type="line"/>
	  <point x="80" y="0" type="line"/>
	  <point x="480" y="0" type="line"/>
	  <point x="490" y="71" type="line"/>
	  <point x="343" y="71" type="line"/>
	  <point x="407" y="527" type="line"/>
	</contour>
	<contour>
	  <point x="306" y="0" type="move" name="ogonek"/>
	</contour>
	<contour>
	  <point x="375" y="527" type="move" name="top"/>
	</contour>
  </outline>
</glyph>
<glyph name="IJ" format="1">
  <advance width="600"/>
  <unicode hex="0132"/>
  <outline>
	<contour>
	  <point x="149" y="-141" type="line"/>
	  <point x="419" y="-115"/>
	  <point x="501" y="24"/>
	  <point x="524" y="183" type="curve" smooth="yes"/>
	  <point x="595" y="689" type="line"/>
	  <point x="71" y="689" type="line"/>
	  <point x="60" y="614" type="line"/>
	  <point x="157" y="614" type="line"/>
	  <point x="82" y="75" type="line"/>
	  <point x="-15" y="75" type="line"/>
	  <point x="-26" y="0" type="line"/>
	  <point x="244" y="0" type="line"/>
	  <point x="255" y="75" type="line"/>
	  <point x="178" y="75" type="line"/>
	  <point x="253" y="614" type="line"/>
	  <point x="489" y="614" type="line"/>
	  <point x="430" y="193" type="line" smooth="yes"/>
	  <point x="409" y="46"/>
	  <point x="348" y="-50"/>
	  <point x="144" y="-71" type="curve"/>
	</contour>
  </outline>
</glyph>
<glyph name="ij" format="1">
  <advance width="600"/>
  <unicode hex="0133"/>
  <outline>
	<contour>
	  <point x="89" y="527" type="line"/>
	  <point x="79" y="458" type="line"/>
	  <point x="165" y="458" type="line"/>
	  <point x="111" y="71" type="line"/>
	  <point x="20" y="71" type="line"/>
	  <point x="10" y="0" type="line"/>
	  <point x="281" y="0" type="line"/>
	  <point x="291" y="71" type="line"/>
	  <point x="200" y="71" type="line"/>
	  <point x="254" y="458" type="line"/>
	  <point x="442" y="458" type="line"/>
	  <point x="386" y="59" type="line" smooth="yes"/>
	  <point x="370" y="-54"/>
	  <point x="262" y="-104"/>
	  <point x="158" y="-141" type="curve"/>
	  <point x="181" y="-214" type="line"/>
	  <point x="332" y="-167"/>
	  <point x="455" y="-93"/>
	  <point x="476" y="59" type="curve" smooth="yes"/>
	  <point x="542" y="527" type="line"/>
	</contour>
	<contour>
	  <point x="216" y="777"/>
	  <point x="189" y="753"/>
	  <point x="184" y="720" type="curve" smooth="yes"/>
	  <point x="179" y="682"/>
	  <point x="203" y="652"/>
	  <point x="243" y="652" type="curve" smooth="yes"/>
	  <point x="279" y="652"/>
	  <point x="307" y="676"/>
	  <point x="312" y="710" type="curve" smooth="yes"/>
	  <point x="317" y="747"/>
	  <point x="292" y="777"/>
	  <point x="252" y="777" type="curve" smooth="yes"/>
	</contour>
	<contour>
	  <point x="481" y="777"/>
	  <point x="454" y="753"/>
	  <point x="449" y="720" type="curve" smooth="yes"/>
	  <point x="444" y="682"/>
	  <point x="468" y="652"/>
	  <point x="508" y="652" type="curve" smooth="yes"/>
	  <point x="544" y="652"/>
	  <point x="572" y="676"/>
	  <point x="577" y="710" type="curve" smooth="yes"/>
	  <point x="582" y="747"/>
	  <point x="557" y="777"/>
	  <point x="517" y="777" type="curve" smooth="yes"/>
	</contour>
  </outline>
</glyph>
<glyph name="kgreenlandic" format="1">
  <advance width="600"/>
  <unicode hex="0138"/>
  <outline>
	<contour>
	  <point x="461" y="527" type="line"/>
	  <point x="201" y="282" type="line"/>
	  <point x="412" y="0" type="line"/>
	  <point x="528" y="0" type="line"/>
	  <point x="311" y="288" type="line"/>
	  <point x="578" y="527" type="line"/>
	</contour>
	<contour>
	  <point x="134" y="527" type="line"/>
	  <point x="60" y="0" type="line"/>
	  <point x="152" y="0" type="line"/>
	  <point x="226" y="527" type="line"/>
	</contour>
  </outline>
</glyph>
<glyph name="Lslash" format="1">
  <advance width="600"/>
  <unicode hex="0141"/>
  <outline>
	<contour>
	  <point x="451" y="446" type="line"/>
	  <point x="419" y="505" type="line"/>
	  <point x="142" y="346" type="line"/>
	  <point x="41" y="289" type="line"/>
	  <point x="71" y="229" type="line"/>
	</contour>
	<component base="L" xOffset="-37"/>
  </outline>
</glyph>
<glyph name="lslash" format="1">
  <advance width="600"/>
  <unicode hex="0142"/>
  <outline>
	<contour>
	  <point x="123" y="319" type="line"/>
	  <point x="154" y="261" type="line"/>
	  <point x="324" y="357" type="line"/>
	  <point x="459" y="434" type="line"/>
	  <point x="428" y="492" type="line"/>
	  <point x="234" y="381" type="line"/>
	</contour>
	<component base="l" xOffset="-37"/>
  </outline>
</glyph>
<glyph name="Eng" format="1">
  <advance width="600"/>
  <unicode hex="014A"/>
  <outline>
	<contour>
	  <point x="580" y="689" type="line"/>
	  <point x="493" y="689" type="line"/>
	  <point x="446" y="356" type="line" smooth="yes"/>
	  <point x="429" y="232"/>
	  <point x="424" y="122"/>
	  <point x="424" y="106" type="curve"/>
	  <point x="418" y="103" type="line"/>
	  <point x="266" y="689" type="line"/>
	  <point x="140" y="689" type="line"/>
	  <point x="43" y="0" type="line"/>
	  <point x="130" y="0" type="line"/>
	  <point x="177" y="333" type="line" smooth="yes"/>
	  <point x="192" y="441"/>
	  <point x="198" y="564"/>
	  <point x="198" y="580" type="curve"/>
	  <point x="204" y="583" type="line"/>
	  <point x="354" y="0" type="line"/>
	  <point x="391" y="3" type="line"/>
	  <point x="382" y="-65"/>
	  <point x="352" y="-105"/>
	  <point x="258" y="-140" type="curve"/>
	  <point x="277" y="-214" type="line"/>
	  <point x="391" y="-176"/>
	  <point x="467" y="-117"/>
	  <point x="483" y="-3" type="curve"/>
	</contour>
  </outline>
</glyph>
<glyph name="eng" format="1">
  <advance width="600"/>
  <unicode hex="014B"/>
  <outline>
	<contour>
	  <point x="520" y="380" type="line" smooth="yes"/>
	  <point x="534" y="478"/>
	  <point x="495" y="539"/>
	  <point x="391" y="539" type="curve" smooth="yes"/>
	  <point x="331" y="539"/>
	  <point x="260" y="511"/>
	  <point x="209" y="457" type="curve"/>
	  <point x="213" y="527" type="line"/>
	  <point x="134" y="527" type="line"/>
	  <point x="60" y="0" type="line"/>
	  <point x="152" y="0" type="line"/>
	  <point x="206" y="380" type="line"/>
	  <point x="240" y="421"/>
	  <point x="299" y="467"/>
	  <point x="358" y="467" type="curve" smooth="yes"/>
	  <point x="433" y="467"/>
	  <point x="435" y="429"/>
	  <point x="421" y="326" type="curve" smooth="yes"/>
	  <point x="379" y="29" type="line" smooth="yes"/>
	  <point x="363" y="-84"/>
	  <point x="323" y="-112"/>
	  <point x="250" y="-144" type="curve"/>
	  <point x="279" y="-213" type="line"/>
	  <point x="391" y="-166"/>
	  <point x="450" y="-123"/>
	  <point x="471" y="29" type="curve" smooth="yes"/>
	</contour>
  </outline>
</glyph>
<glyph name="OE" format="1">
  <advance width="600"/>
  <unicode hex="0152"/>
  <outline>
	<contour>
	  <point x="129" y="701"/>
	  <point x="44" y="576"/>
	  <point x="12" y="348" type="curve" smooth="yes"/>
	  <point x="-21" y="112"/>
	  <point x="32" y="-12"/>
	  <point x="178" y="-12" type="curve" smooth="yes"/>
	  <point x="202" y="-12"/>
	  <point x="225" y="-8"/>
	  <point x="249" y="-1" type="curve"/>
	  <point x="578" y="0" type="line"/>
	  <point x="589" y="75" type="line"/>
	  <point x="329" y="73" type="line"/>
	  <point x="375" y="120"/>
	  <point x="408" y="195"/>
	  <point x="427" y="309" type="curve"/>
	  <point x="578" y="312" type="line"/>
	  <point x="588" y="387" type="line"/>
	  <point x="438" y="384" type="line"/>
	  <point x="448" y="494"/>
	  <point x="436" y="568"/>
	  <point x="407" y="612" type="curve"/>
	  <point x="645" y="614" type="line"/>
	  <point x="667" y="689" type="line"/>
	  <point x="345" y="688" type="line"/>
	  <point x="321" y="696"/>
	  <point x="298" y="701"/>
	  <point x="270" y="701" type="curve" smooth="yes"/>
	</contour>
	<contour>
	  <point x="349" y="625"/>
	  <point x="370" y="549"/>
	  <point x="342" y="349" type="curve" smooth="yes"/>
	  <point x="313" y="145"/>
	  <point x="264" y="63"/>
	  <point x="181" y="63" type="curve" smooth="yes"/>
	  <point x="107" y="63"/>
	  <point x="80" y="138"/>
	  <point x="108" y="338" type="curve" smooth="yes"/>
	  <point x="137" y="542"/>
	  <point x="187" y="625"/>
	  <point x="268" y="625" type="curve" smooth="yes"/>
	</contour>
  </outline>
</glyph>
<glyph name="oe" format="1">
  <advance width="600"/>
  <unicode hex="0153"/>
  <outline>
	<contour>
	  <point x="411" y="539"/>
	  <point x="365" y="498"/>
	  <point x="332" y="438" type="curve"/>
	  <point x="318" y="497"/>
	  <point x="286" y="539"/>
	  <point x="203" y="539" type="curve" smooth="yes"/>
	  <point x="85" y="539"/>
	  <point x="20" y="429"/>
	  <point x="-2" y="268" type="curve" smooth="yes"/>
	  <point x="-26" y="99"/>
	  <point x="13" y="-12"/>
	  <point x="133" y="-12" type="curve" smooth="yes"/>
	  <point x="208" y="-12"/>
	  <point x="251" y="26"/>
	  <point x="285" y="87" type="curve"/>
	  <point x="303" y="26"/>
	  <point x="348" y="-12"/>
	  <point x="423" y="-12" type="curve" smooth="yes"/>
	  <point x="478" y="-12"/>
	  <point x="522" y="7"/>
	  <point x="566" y="39" type="curve"/>
	  <point x="530" y="103" type="line"/>
	  <point x="494" y="78"/>
	  <point x="467" y="62"/>
	  <point x="428" y="62" type="curve" smooth="yes"/>
	  <point x="362" y="62"/>
	  <point x="340" y="112"/>
	  <point x="347" y="229" type="curve"/>
	  <point x="607" y="229" type="line"/>
	  <point x="610" y="242"/>
	  <point x="613" y="258"/>
	  <point x="615" y="274" type="curve" smooth="yes"/>
	  <point x="639" y="438"/>
	  <point x="602" y="539"/>
	  <point x="483" y="539" type="curve" smooth="yes"/>
	</contour>
	<contour>
	  <point x="270" y="466"/>
	  <point x="283" y="405"/>
	  <point x="264" y="269" type="curve" smooth="yes"/>
	  <point x="243" y="119"/>
	  <point x="211" y="62"/>
	  <point x="146" y="62" type="curve" smooth="yes"/>
	  <point x="85" y="62"/>
	  <point x="71" y="118"/>
	  <point x="90" y="258" type="curve" smooth="yes"/>
	  <point x="110" y="398"/>
	  <point x="145" y="466"/>
	  <point x="210" y="466" type="curve" smooth="yes"/>
	</contour>
	<contour>
	  <point x="538" y="466"/>
	  <point x="547" y="412"/>
	  <point x="534" y="303" type="curve"/>
	  <point x="357" y="297" type="line"/>
	  <point x="382" y="420"/>
	  <point x="417" y="466"/>
	  <point x="477" y="466" type="curve" smooth="yes"/>
	</contour>
  </outline>
</glyph>
<glyph name="Tbar" format="1">
  <advance width="600"/>
  <unicode hex="0166"/>
  <outline>
	<contour>
	  <point x="488" y="346" type="line"/>
	  <point x="497" y="416" type="line"/>
	  <point x="272" y="416" type="line"/>
	  <point x="143" y="416" type="line"/>
	  <point x="134" y="346" type="line"/>
	  <point x="358" y="346" type="line"/>
	</contour>
	<component base="T" xOffset="-37"/>
  </outline>
</glyph>
<glyph name="tbar" format="1">
  <advance width="600"/>
  <unicode hex="0167"/>
  <outline>
	<contour>
	  <point x="210" y="353" type="line"/>
	  <point x="101" y="353" type="line"/>
	  <point x="91" y="285" type="line"/>
	  <point x="292" y="285" type="line"/>
	  <point x="463" y="285" type="line"/>
	  <point x="473" y="353" type="line"/>
	</contour>
	<component base="t" xOffset="-37"/>
  </outline>
</glyph>
<glyph name="florin" format="1">
  <advance width="600"/>
  <unicode hex="0192"/>
  <outline>
	<contour>
	  <point x="329" y="750"/>
	  <point x="265" y="689"/>
	  <point x="252" y="601" type="curve" smooth="yes"/>
	  <point x="242" y="527" type="line"/>
	  <point x="158" y="527" type="line"/>
	  <point x="148" y="456" type="line"/>
	  <point x="232" y="456" type="line"/>
	  <point x="172" y="29" type="line" smooth="yes"/>
	  <point x="156" y="-84"/>
	  <point x="117" y="-112"/>
	  <point x="44" y="-145" type="curve"/>
	  <point x="72" y="-213" type="line"/>
	  <point x="188" y="-165"/>
	  <point x="242" y="-120"/>
	  <point x="264" y="39" type="curve" smooth="yes"/>
	  <point x="323" y="456" type="line"/>
	  <point x="441" y="456" type="line"/>
	  <point x="462" y="527" type="line"/>
	  <point x="333" y="527" type="line"/>
	  <point x="343" y="596" type="line" smooth="yes"/>
	  <point x="350" y="648"/>
	  <point x="377" y="676"/>
	  <point x="437" y="676" type="curve" smooth="yes"/>
	  <point x="462" y="676"/>
	  <point x="492" y="672"/>
	  <point x="523" y="657" type="curve"/>
	  <point x="559" y="721" type="line"/>
	  <point x="519" y="740"/>
	  <point x="486" y="750"/>
	  <point x="434" y="750" type="curve" smooth="yes"/>
	</contour>
  </outline>
</glyph>
<glyph name="dotlessj" format="1">
  <advance width="600"/>
  <unicode hex="0237"/>
  <outline>
	<contour>
	  <point x="177" y="527" type="line"/>
	  <point x="167" y="456" type="line"/>
	  <point x="383" y="456" type="line"/>
	  <point x="331" y="89" type="line" smooth="yes"/>
	  <point x="311" y="-54"/>
	  <point x="194" y="-115"/>
	  <point x="34" y="-142" type="curve"/>
	  <point x="43" y="-213" type="line"/>
	  <point x="264" y="-176"/>
	  <point x="398" y="-93"/>
	  <point x="423" y="89" type="curve" smooth="yes"/>
	  <point x="485" y="527" type="line"/>
	</contour>
	<contour>
	  <point x="442" y="527" type="move" name="top"/>
	</contour>
  </outline>
</glyph>
<glyph name="uni02BC" format="1">
  <advance width="600"/>
  <unicode hex="02BC"/>
  <outline>
	<contour>
	  <point x="327" y="750"/>
	  <point x="300" y="729"/>
	  <point x="296" y="699" type="curve" smooth="yes"/>
	  <point x="293" y="678"/>
	  <point x="303" y="661"/>
	  <point x="315" y="649" type="curve"/>
	  <point x="268" y="531" type="line"/>
	  <point x="322" y="531" type="line"/>
	  <point x="375" y="615" type="line" smooth="yes"/>
	  <point x="402" y="659"/>
	  <point x="408" y="674"/>
	  <point x="410" y="689" type="curve" smooth="yes"/>
	  <point x="415" y="723"/>
	  <point x="391" y="750"/>
	  <point x="357" y="750" type="curve" smooth="yes"/>
	</contour>
	<contour>
	  <point x="357" y="527" type="move" name="_topleft"/>
	</contour>
  </outline>
</glyph>
<glyph name="caron" format="1">
  <advance width="600"/>
  <unicode hex="02C7"/>
  <outline>
	<contour>
	  <point x="361" y="701" type="line"/>
	  <point x="249" y="792" type="line"/>
	  <point x="202" y="748" type="line"/>
	  <point x="322" y="627" type="line"/>
	  <point x="383" y="627" type="line"/>
	  <point x="534" y="748" type="line"/>
	  <point x="499" y="792" type="line"/>
	</contour>
	<contour>
	  <point x="374" y="527" type="move" name="_top"/>
	</contour>
  </outline>
</glyph>
<glyph name="firsttonechinese" format="1">
  <advance width="600"/>
  <unicode hex="02C9"/>
  <outline>
	<contour>
	  <point x="505" y="751" type="line"/>
	  <point x="232" y="751" type="line"/>
	  <point x="222" y="682" type="line"/>
	  <point x="495" y="682" type="line"/>
	</contour>
  </outline>
</glyph>
<glyph name="breve" format="1">
  <advance width="600"/>
  <unicode hex="02D8"/>
  <outline>
	<contour>
	  <point x="445" y="628"/>
	  <point x="504" y="701"/>
	  <point x="521" y="765" type="curve"/>
	  <point x="462" y="783" type="line"/>
	  <point x="441" y="733"/>
	  <point x="405" y="697"/>
	  <point x="355" y="697" type="curve" smooth="yes"/>
	  <point x="310" y="697"/>
	  <point x="287" y="729"/>
	  <point x="280" y="779" type="curve"/>
	  <point x="219" y="771" type="line"/>
	  <point x="218" y="707"/>
	  <point x="258" y="628"/>
	  <point x="353" y="628" type="curve" smooth="yes"/>
	</contour>
	<contour>
	  <point x="374" y="527" type="move" name="_top"/>
	</contour>
  </outline>
</glyph>
<glyph name="dotaccent" format="1">
  <advance width="600"/>
  <unicode hex="02D9"/>
  <outline>
	<contour>
	  <point x="331" y="777"/>
	  <point x="304" y="753"/>
	  <point x="299" y="720" type="curve" smooth="yes"/>
	  <point x="294" y="682"/>
	  <point x="318" y="652"/>
	  <point x="358" y="652" type="curve" smooth="yes"/>
	  <point x="395" y="652"/>
	  <point x="422" y="676"/>
	  <point x="427" y="710" type="curve" smooth="yes"/>
	  <point x="432" y="747"/>
	  <point x="408" y="777"/>
	  <point x="367" y="777" type="curve" smooth="yes"/>
	</contour>
	<contour>
	  <point x="427" y="716" type="move" name="_center"/>
	</contour>
	<contour>
	  <point x="374" y="527" type="move" name="_top"/>
	</contour>
  </outline>
</glyph>
<glyph name="ring" format="1">
  <advance width="600"/>
  <unicode hex="02DA"/>
  <outline>
	<contour>
	  <point x="310" y="828"/>
	  <point x="259" y="784"/>
	  <point x="251" y="727" type="curve" smooth="yes"/>
	  <point x="243" y="667"/>
	  <point x="285" y="617"/>
	  <point x="354" y="617" type="curve" smooth="yes"/>
	  <point x="419" y="617"/>
	  <point x="470" y="661"/>
	  <point x="478" y="717" type="curve" smooth="yes"/>
	  <point x="486" y="778"/>
	  <point x="444" y="828"/>
	  <point x="375" y="828" type="curve" smooth="yes"/>
	</contour>
	<contour>
	  <point x="407" y="778"/>
	  <point x="423" y="760"/>
	  <point x="418" y="727" type="curve" smooth="yes"/>
	  <point x="413" y="690"/>
	  <point x="388" y="666"/>
	  <point x="353" y="666" type="curve" smooth="yes"/>
	  <point x="323" y="666"/>
	  <point x="306" y="684"/>
	  <point x="311" y="717" type="curve" smooth="yes"/>
	  <point x="316" y="754"/>
	  <point x="342" y="778"/>
	  <point x="376" y="778" type="curve" smooth="yes"/>
	</contour>
	<contour>
	  <point x="374" y="527" type="move" name="_top"/>
	</contour>
  </outline>
</glyph>
<glyph name="ogonek" format="1">
  <advance width="600"/>
  <unicode hex="02DB"/>
  <outline>
	<contour>
	  <point x="218" y="-4"/>
	  <point x="153" y="-54"/>
	  <point x="143" y="-126" type="curve" smooth="yes"/>
	  <point x="135" y="-186"/>
	  <point x="178" y="-232"/>
	  <point x="257" y="-232" type="curve" smooth="yes"/>
	  <point x="281" y="-232"/>
	  <point x="299" y="-230"/>
	  <point x="319" y="-226" type="curve"/>
	  <point x="334" y="-154" type="line"/>
	  <point x="310" y="-159"/>
	  <point x="293" y="-162"/>
	  <point x="270" y="-162" type="curve" smooth="yes"/>
	  <point x="231" y="-162"/>
	  <point x="220" y="-147"/>
	  <point x="224" y="-119" type="curve" smooth="yes"/>
	  <point x="230" y="-81"/>
	  <point x="258" y="-45"/>
	  <point x="366" y="-1" type="curve"/>
	  <point x="352" y="34" type="line"/>
	</contour>
	<contour>
	  <point x="337" y="0" type="move" name="_ogonek"/>
	</contour>
  </outline>
</glyph>
<glyph name="tilde" format="1">
  <advance width="600"/>
  <unicode hex="02DC"/>
  <outline>
	<contour>
	  <point x="465" y="650"/>
	  <point x="506" y="690"/>
	  <point x="533" y="737" type="curve"/>
	  <point x="478" y="766" type="line"/>
	  <point x="458" y="738"/>
	  <point x="441" y="720"/>
	  <point x="417" y="720" type="curve" smooth="yes"/>
	  <point x="388" y="720"/>
	  <point x="376" y="768"/>
	  <point x="314" y="768" type="curve" smooth="yes"/>
	  <point x="259" y="768"/>
	  <point x="218" y="729"/>
	  <point x="192" y="682" type="curve"/>
	  <point x="247" y="652" type="line"/>
	  <point x="267" y="680"/>
	  <point x="283" y="698"/>
	  <point x="307" y="698" type="curve" smooth="yes"/>
	  <point x="336" y="698"/>
	  <point x="350" y="650"/>
	  <point x="410" y="650" type="curve" smooth="yes"/>
	</contour>
	<contour>
	  <point x="374" y="527" type="move" name="_top"/>
	</contour>
  </outline>
</glyph>
<glyph name="hungarumlaut" format="1">
  <advance width="600"/>
  <unicode hex="02DD"/>
  <outline>
	<contour>
	  <point x="246" y="635" type="line"/>
	  <point x="369" y="801" type="line"/>
	  <point x="295" y="838" type="line"/>
	  <point x="191" y="662" type="line"/>
	</contour>
	<contour>
	  <point x="408" y="633" type="line"/>
	  <point x="540" y="798" type="line"/>
	  <point x="468" y="838" type="line"/>
	  <point x="355" y="662" type="line"/>
	</contour>
	<contour>
	  <point x="334" y="527" type="move" name="_top"/>
	</contour>
  </outline>
</glyph>
<glyph name="acutecomb" format="1">
  <advance width="600"/>
  <unicode hex="0301"/>
  <outline>
	<contour>
	  <point x="237" y="668" type="line"/>
	  <point x="255" y="619" type="line"/>
	  <point x="480" y="698" type="line"/>
	  <point x="451" y="775" type="line"/>
	</contour>
	<contour>
	  <point x="374" y="527" type="move" name="_top"/>
	</contour>
  </outline>
</glyph>
<glyph name="uni0302" format="1">
  <advance width="600"/>
  <unicode hex="0302"/>
  <outline>
	<contour>
	  <point x="338" y="752" type="line"/>
	  <point x="187" y="642" type="line"/>
	  <point x="222" y="597" type="line"/>
	  <point x="359" y="678" type="line"/>
	  <point x="475" y="597" type="line"/>
	  <point x="519" y="642" type="line"/>
	  <point x="399" y="752" type="line"/>
	</contour>
	<contour>
	  <point x="374" y="527" type="move" name="_top"/>
	</contour>
  </outline>
</glyph>
<glyph name="uni0306" format="1">
  <advance width="600"/>
  <unicode hex="0306"/>
  <outline>
	<contour>
	  <point x="427" y="586"/>
	  <point x="496" y="632"/>
	  <point x="514" y="706" type="curve"/>
	  <point x="455" y="724" type="line"/>
	  <point x="435" y="684"/>
	  <point x="399" y="656"/>
	  <point x="349" y="656" type="curve" smooth="yes"/>
	  <point x="304" y="656"/>
	  <point x="281" y="680"/>
	  <point x="272" y="720" type="curve"/>
	  <point x="211" y="712" type="line"/>
	  <point x="209" y="638"/>
	  <point x="265" y="586"/>
	  <point x="347" y="586" type="curve" smooth="yes"/>
	</contour>
	<contour>
	  <point x="374" y="527" type="move" name="_top"/>
	</contour>
  </outline>
</glyph>
<glyph name="uni0307" format="1">
  <advance width="600"/>
  <unicode hex="0307"/>
  <outline>
	<component base="dotaccent" xOffset="-43" yOffset="-52"/>
	<contour>
	  <point x="374" y="527" type="move" name="_top"/>
	</contour>
  </outline>
</glyph>
<glyph name="uni030C" format="1">
  <advance width="600"/>
  <unicode hex="030C"/>
  <outline>
	<contour>
	  <point x="354" y="656" type="line"/>
	  <point x="240" y="737" type="line"/>
	  <point x="194" y="692" type="line"/>
	  <point x="316" y="582" type="line"/>
	  <point x="377" y="582" type="line"/>
	  <point x="526" y="692" type="line"/>
	  <point x="493" y="737" type="line"/>
	</contour>
	<contour>
	  <point x="374" y="527" type="move" name="_top"/>
	</contour>
  </outline>
</glyph>
<glyph name="uni0326" format="1">
  <advance width="600"/>
  <unicode hex="0326"/>
  <outline>
	<contour>
	  <point x="222" y="-70"/>
	  <point x="196" y="-91"/>
	  <point x="192" y="-121" type="curve" smooth="yes"/>
	  <point x="189" y="-142"/>
	  <point x="197" y="-160"/>
	  <point x="210" y="-171" type="curve"/>
	  <point x="162" y="-290" type="line"/>
	  <point x="217" y="-290" type="line"/>
	  <point x="283" y="-186" type="line" smooth="yes"/>
	  <point x="296" y="-162"/>
	  <point x="302" y="-147"/>
	  <point x="305" y="-131" type="curve" smooth="yes"/>
	  <point x="309" y="-97"/>
	  <point x="286" y="-70"/>
	  <point x="252" y="-70" type="curve" smooth="yes"/>
	</contour>
	<contour>
	  <point x="226" y="0" type="move" name="_bottom"/>
	</contour>
  </outline>
</glyph>
<glyph name="strokeshortoverlay" format="1">
  <advance width="600"/>
  <unicode hex="0335"/>
  <outline>
	<contour>
	  <point x="486" y="348" type="line"/>
	  <point x="137" y="348" type="line"/>
	  <point x="127" y="278" type="line"/>
	  <point x="476" y="278" type="line"/>
	</contour>
  </outline>
</glyph>
<glyph name="strokelongoverlay" format="1">
  <advance width="600"/>
  <unicode hex="0336"/>
  <outline>
	<contour>
	  <point x="639" y="348" type="line"/>
	  <point x="-14" y="348" type="line"/>
	  <point x="-24" y="278" type="line"/>
	  <point x="629" y="278" type="line"/>
	</contour>
  </outline>
</glyph>
<glyph name="tonos" format="1">
  <advance width="600"/>
  <unicode hex="0384"/>
  <outline>
	<contour>
	  <point x="347" y="589" type="line"/>
	  <point x="445" y="794" type="line"/>
	  <point x="346" y="812" type="line"/>
	  <point x="278" y="601" type="line"/>
	</contour>
	<contour>
	  <point x="344" y="527" type="move" name="_top"/>
	</contour>
  </outline>
</glyph>
<glyph name="dieresistonos" format="1">
  <advance width="600"/>
  <unicode hex="0385"/>
  <outline>
	<contour>
	  <point x="330" y="727" type="line"/>
	  <point x="398" y="717" type="line"/>
	  <point x="484" y="888" type="line"/>
	  <point x="384" y="906" type="line"/>
	</contour>
	<contour>
	  <point x="215" y="725"/>
	  <point x="189" y="704"/>
	  <point x="185" y="673" type="curve" smooth="yes"/>
	  <point x="180" y="639"/>
	  <point x="203" y="612"/>
	  <point x="238" y="612" type="curve" smooth="yes"/>
	  <point x="268" y="612"/>
	  <point x="294" y="633"/>
	  <point x="298" y="663" type="curve" smooth="yes"/>
	  <point x="303" y="698"/>
	  <point x="280" y="725"/>
	  <point x="246" y="725" type="curve" smooth="yes"/>
	</contour>
	<contour>
	  <point x="445" y="725"/>
	  <point x="419" y="704"/>
	  <point x="415" y="673" type="curve" smooth="yes"/>
	  <point x="410" y="639"/>
	  <point x="433" y="612"/>
	  <point x="467" y="612" type="curve" smooth="yes"/>
	  <point x="498" y="612"/>
	  <point x="524" y="633"/>
	  <point x="528" y="663" type="curve" smooth="yes"/>
	  <point x="533" y="698"/>
	  <point x="510" y="725"/>
	  <point x="475" y="725" type="curve" smooth="yes"/>
	</contour>
  </outline>
</glyph>
<glyph name="Theta" format="1">
  <advance width="600"/>
  <unicode hex="0398"/>
  <outline>
	<contour>
	  <point x="417" y="389" type="line"/>
	  <point x="218" y="389" type="line"/>
	  <point x="207" y="315" type="line"/>
	  <point x="406" y="315" type="line"/>
	</contour>
	<contour>
	  <point x="597" y="555"/>
	  <point x="528" y="701"/>
	  <point x="357" y="701" type="curve" smooth="yes"/>
	  <point x="190" y="701"/>
	  <point x="85" y="556"/>
	  <point x="56" y="348" type="curve" smooth="yes"/>
	  <point x="26" y="132"/>
	  <point x="94" y="-12"/>
	  <point x="265" y="-12" type="curve" smooth="yes"/>
	  <point x="432" y="-12"/>
	  <point x="537" y="131"/>
	  <point x="567" y="339" type="curve" smooth="yes"/>
	</contour>
	<contour>
	  <point x="443" y="165"/>
	  <point x="382" y="66"/>
	  <point x="268" y="66" type="curve" smooth="yes"/>
	  <point x="161" y="66"/>
	  <point x="128" y="158"/>
	  <point x="153" y="338" type="curve" smooth="yes"/>
	  <point x="179" y="522"/>
	  <point x="241" y="623"/>
	  <point x="355" y="623" type="curve" smooth="yes"/>
	  <point x="465" y="623"/>
	  <point x="494" y="529"/>
	  <point x="469" y="349" type="curve" smooth="yes"/>
	</contour>
  </outline>
</glyph>
<glyph name="Lambda" format="1">
  <advance width="600"/>
  <unicode hex="039B"/>
  <outline>
	<contour>
	  <point x="299" y="689" type="line"/>
	  <point x="-17" y="0" type="line"/>
	  <point x="81" y="0" type="line"/>
	  <point x="347" y="604" type="line"/>
	  <point x="442" y="0" type="line"/>
	  <point x="540" y="0" type="line"/>
	  <point x="419" y="689" type="line"/>
	</contour>
  </outline>
</glyph>
<glyph name="Xi" format="1">
  <advance width="600"/>
  <unicode hex="039E"/>
  <outline>
	<contour>
	  <point x="49" y="87" type="line"/>
	  <point x="37" y="0" type="line"/>
	  <point x="489" y="0" type="line"/>
	  <point x="501" y="87" type="line"/>
	</contour>
	<contour>
	  <point x="143" y="392" type="line"/>
	  <point x="131" y="307" type="line"/>
	  <point x="472" y="307" type="line"/>
	  <point x="484" y="392" type="line"/>
	</contour>
	<contour>
	  <point x="134" y="689" type="line"/>
	  <point x="122" y="604" type="line"/>
	  <point x="552" y="604" type="line"/>
	  <point x="577" y="689" type="line"/>
	</contour>
  </outline>
</glyph>
<glyph name="Sigma" format="1">
  <advance width="600"/>
  <unicode hex="03A3"/>
  <outline>
	<contour>
	  <point x="421" y="377" type="line"/>
	  <point x="228" y="611" type="line"/>
	  <point x="578" y="611" type="line"/>
	  <point x="589" y="689" type="line"/>
	  <point x="131" y="689" type="line"/>
	  <point x="121" y="610" type="line"/>
	  <point x="332" y="344" type="line"/>
	  <point x="44" y="78" type="line"/>
	  <point x="34" y="0" type="line"/>
	  <point x="492" y="0" type="line"/>
	  <point x="503" y="78" type="line"/>
	  <point x="156" y="78" type="line"/>
	  <point x="414" y="315" type="line"/>
	</contour>
  </outline>
</glyph>
<glyph name="Phi" format="1">
  <advance width="600"/>
  <unicode hex="03A6"/>
  <outline>
	<contour>
	  <point x="316" y="689" type="line"/>
	  <point x="303" y="610" type="line"/>
	  <point x="134" y="602"/>
	  <point x="45" y="516"/>
	  <point x="22" y="352" type="curve" smooth="yes"/>
	  <point x="-2" y="178"/>
	  <point x="74" y="86"/>
	  <point x="232" y="81" type="curve"/>
	  <point x="219" y="0" type="line"/>
	  <point x="307" y="0" type="line"/>
	  <point x="320" y="81" type="line"/>
	  <point x="480" y="86"/>
	  <point x="577" y="172"/>
	  <point x="601" y="342" type="curve" smooth="yes"/>
	  <point x="625" y="511"/>
	  <point x="557" y="602"/>
	  <point x="391" y="610" type="curve"/>
	  <point x="404" y="689" type="line"/>
	</contour>
	<contour>
	  <point x="240" y="148" type="line"/>
	  <point x="132" y="154"/>
	  <point x="96" y="209"/>
	  <point x="115" y="342" type="curve" smooth="yes"/>
	  <point x="136" y="488"/>
	  <point x="194" y="541"/>
	  <point x="299" y="543" type="curve"/>
	</contour>
	<contour>
	  <point x="487" y="542"/>
	  <point x="529" y="495"/>
	  <point x="508" y="352" type="curve" smooth="yes"/>
	  <point x="489" y="216"/>
	  <point x="434" y="154"/>
	  <point x="324" y="148" type="curve"/>
	  <point x="383" y="543" type="line"/>
	</contour>
  </outline>
</glyph>
<glyph name="Psi" format="1">
  <advance width="600"/>
  <unicode hex="03A8"/>
  <outline>
	<contour>
	  <point x="311" y="0" type="line"/>
	  <point x="340" y="192" type="line"/>
	  <point x="505" y="207"/>
	  <point x="592" y="297"/>
	  <point x="610" y="426" type="curve" smooth="yes"/>
	  <point x="647" y="689" type="line"/>
	  <point x="553" y="689" type="line"/>
	  <point x="517" y="436" type="line" smooth="yes"/>
	  <point x="504" y="339"/>
	  <point x="455" y="280"/>
	  <point x="345" y="269" type="curve"/>
	  <point x="406" y="689" type="line"/>
	  <point x="315" y="689" type="line"/>
	  <point x="254" y="268" type="line"/>
	  <point x="143" y="279"/>
	  <point x="117" y="333"/>
	  <point x="130" y="430" type="curve" smooth="yes"/>
	  <point x="167" y="689" type="line"/>
	  <point x="73" y="689" type="line"/>
	  <point x="37" y="432" type="line" smooth="yes"/>
	  <point x="19" y="303"/>
	  <point x="81" y="205"/>
	  <point x="245" y="191" type="curve"/>
	  <point x="216" y="0" type="line"/>
	</contour>
  </outline>
</glyph>
<glyph name="Omega" format="1">
  <advance width="600"/>
  <unicode hex="03A9"/>
  <outline>
	<contour>
	  <point x="455" y="623"/>
	  <point x="497" y="549"/>
	  <point x="470" y="357" type="curve" smooth="yes"/>
	  <point x="448" y="197"/>
	  <point x="391" y="111"/>
	  <point x="305" y="71" type="curve"/>
	  <point x="297" y="0" type="line"/>
	  <point x="508" y="0" type="line"/>
	  <point x="519" y="75" type="line"/>
	  <point x="405" y="75" type="line"/>
	  <point x="407" y="78" type="line"/>
	  <point x="491" y="120"/>
	  <point x="548" y="204"/>
	  <point x="568" y="347" type="curve" smooth="yes"/>
	  <point x="599" y="570"/>
	  <point x="516" y="701"/>
	  <point x="357" y="701" type="curve" smooth="yes"/>
	  <point x="202" y="701"/>
	  <point x="88" y="576"/>
	  <point x="57" y="357" type="curve" smooth="yes"/>
	  <point x="36" y="210"/>
	  <point x="71" y="120"/>
	  <point x="143" y="80" type="curve"/>
	  <point x="140" y="75" type="line"/>
	  <point x="29" y="75" type="line"/>
	  <point x="18" y="0" type="line"/>
	  <point x="230" y="0" type="line"/>
	  <point x="238" y="69" type="line"/>
	  <point x="163" y="109"/>
	  <point x="133" y="191"/>
	  <point x="155" y="347" type="curve" smooth="yes"/>
	  <point x="182" y="543"/>
	  <point x="250" y="623"/>
	  <point x="355" y="623" type="curve" smooth="yes"/>
	</contour>
	<contour>
	  <point x="420" y="689" type="move" name="top"/>
	</contour>
  </outline>
</glyph>
<glyph name="alpha" format="1">
  <advance width="600"/>
  <unicode hex="03B1"/>
  <outline>
	<contour>
	  <point x="161" y="539"/>
	  <point x="79" y="425"/>
	  <point x="56" y="264" type="curve" smooth="yes"/>
	  <point x="30" y="81"/>
	  <point x="91" y="-12"/>
	  <point x="213" y="-12" type="curve" smooth="yes"/>
	  <point x="300" y="-12"/>
	  <point x="356" y="53"/>
	  <point x="395" y="136" type="curve"/>
	  <point x="397" y="85" type="line" smooth="yes"/>
	  <point x="397" y="28"/>
	  <point x="435" y="-6"/>
	  <point x="478" y="-13" type="curve"/>
	  <point x="518" y="62" type="line"/>
	  <point x="488" y="73"/>
	  <point x="481" y="86"/>
	  <point x="480" y="113" type="curve" smooth="yes"/>
	  <point x="473" y="250" type="line"/>
	  <point x="567" y="527" type="line"/>
	  <point x="483" y="527" type="line"/>
	  <point x="433" y="373" type="line"/>
	  <point x="430" y="494"/>
	  <point x="381" y="539"/>
	  <point x="289" y="539" type="curve" smooth="yes"/>
	</contour>
	<contour>
	  <point x="356" y="466"/>
	  <point x="391" y="427"/>
	  <point x="396" y="272" type="curve"/>
	  <point x="339" y="97"/>
	  <point x="276" y="61"/>
	  <point x="226" y="61" type="curve" smooth="yes"/>
	  <point x="160" y="61"/>
	  <point x="134" y="119"/>
	  <point x="153" y="254" type="curve" smooth="yes"/>
	  <point x="172" y="391"/>
	  <point x="223" y="466"/>
	  <point x="294" y="466" type="curve" smooth="yes"/>
	</contour>
	<contour>
	  <point x="351" y="527" type="move" name="top"/>
	</contour>
  </outline>
</glyph>
<glyph name="beta" format="1">
  <advance width="600"/>
  <unicode hex="03B2"/>
  <outline>
	<contour>
	  <point x="231" y="750"/>
	  <point x="145" y="675"/>
	  <point x="126" y="544" type="curve" smooth="yes"/>
	  <point x="20" y="-214" type="line"/>
	  <point x="114" y="-201" type="line"/>
	  <point x="218" y="538" type="line" smooth="yes"/>
	  <point x="231" y="631"/>
	  <point x="278" y="678"/>
	  <point x="354" y="678" type="curve" smooth="yes"/>
	  <point x="419" y="678"/>
	  <point x="462" y="645"/>
	  <point x="451" y="567" type="curve" smooth="yes"/>
	  <point x="438" y="474"/>
	  <point x="377" y="433"/>
	  <point x="311" y="433" type="curve" smooth="yes"/>
	  <point x="264" y="433" type="line"/>
	  <point x="244" y="363" type="line"/>
	  <point x="298" y="363" type="line" smooth="yes"/>
	  <point x="409" y="363"/>
	  <point x="462" y="312"/>
	  <point x="447" y="209" type="curve" smooth="yes"/>
	  <point x="434" y="113"/>
	  <point x="362" y="62"/>
	  <point x="283" y="62" type="curve" smooth="yes"/>
	  <point x="221" y="62"/>
	  <point x="178" y="78"/>
	  <point x="147" y="119" type="curve"/>
	  <point x="125" y="64" type="line"/>
	  <point x="168" y="15"/>
	  <point x="226" y="-12"/>
	  <point x="292" y="-12" type="curve" smooth="yes"/>
	  <point x="408" y="-12"/>
	  <point x="522" y="68"/>
	  <point x="540" y="198" type="curve" smooth="yes"/>
	  <point x="561" y="351"/>
	  <point x="456" y="394"/>
	  <point x="366" y="403" type="curve"/>
	  <point x="452" y="416"/>
	  <point x="523" y="465"/>
	  <point x="538" y="566" type="curve" smooth="yes"/>
	  <point x="553" y="679"/>
	  <point x="469" y="750"/>
	  <point x="355" y="750" type="curve" smooth="yes"/>
	</contour>
  </outline>
</glyph>
<glyph name="gamma" format="1">
  <advance width="600"/>
  <unicode hex="03B3"/>
  <outline>
	<contour>
	  <point x="281" y="108" type="line"/>
	  <point x="270" y="295"/>
	  <point x="226" y="455"/>
	  <point x="170" y="536" type="curve"/>
	  <point x="75" y="507" type="line"/>
	  <point x="146" y="426"/>
	  <point x="200" y="210"/>
	  <point x="219" y="24" type="curve"/>
	  <point x="178" y="-56"/>
	  <point x="168" y="-146"/>
	  <point x="192" y="-211" type="curve"/>
	  <point x="266" y="-205" type="line"/>
	  <point x="262" y="-118"/>
	  <point x="272" y="-53"/>
	  <point x="310" y="16" type="curve" smooth="yes"/>
	  <point x="597" y="518" type="line"/>
	  <point x="505" y="539" type="line"/>
	</contour>
  </outline>
</glyph>
<glyph name="delta" format="1">
  <advance width="600"/>
  <unicode hex="03B4"/>
  <outline>
	<contour>
	  <point x="273" y="750"/>
	  <point x="189" y="702"/>
	  <point x="176" y="615" type="curve" smooth="yes"/>
	  <point x="168" y="558"/>
	  <point x="190" y="518"/>
	  <point x="255" y="482" type="curve"/>
	  <point x="158" y="445"/>
	  <point x="79" y="365"/>
	  <point x="63" y="248" type="curve" smooth="yes"/>
	  <point x="43" y="105"/>
	  <point x="116" y="-12"/>
	  <point x="268" y="-12" type="curve" smooth="yes"/>
	  <point x="415" y="-12"/>
	  <point x="519" y="104"/>
	  <point x="538" y="239" type="curve" smooth="yes"/>
	  <point x="559" y="392"/>
	  <point x="501" y="461"/>
	  <point x="369" y="516" type="curve" smooth="yes"/>
	  <point x="291" y="552"/>
	  <point x="264" y="565"/>
	  <point x="270" y="608" type="curve" smooth="yes"/>
	  <point x="277" y="652"/>
	  <point x="318" y="680"/>
	  <point x="377" y="680" type="curve" smooth="yes"/>
	  <point x="420" y="680"/>
	  <point x="455" y="672"/>
	  <point x="495" y="638" type="curve"/>
	  <point x="545" y="688" type="line"/>
	  <point x="503" y="726"/>
	  <point x="456" y="750"/>
	  <point x="382" y="750" type="curve" smooth="yes"/>
	</contour>
	<contour>
	  <point x="428" y="403"/>
	  <point x="456" y="364"/>
	  <point x="440" y="249" type="curve" smooth="yes"/>
	  <point x="423" y="128"/>
	  <point x="361" y="62"/>
	  <point x="271" y="62" type="curve" smooth="yes"/>
	  <point x="185" y="62"/>
	  <point x="145" y="127"/>
	  <point x="160" y="238" type="curve" smooth="yes"/>
	  <point x="174" y="338"/>
	  <point x="220" y="406"/>
	  <point x="320" y="451" type="curve"/>
	</contour>
  </outline>
</glyph>
<glyph name="epsilon" format="1">
  <advance width="600"/>
  <unicode hex="03B5"/>
  <outline>
	<contour>
	  <point x="412" y="311" type="line"/>
	  <point x="314" y="311" type="line" smooth="yes"/>
	  <point x="244" y="311"/>
	  <point x="207" y="338"/>
	  <point x="214" y="383" type="curve" smooth="yes"/>
	  <point x="222" y="439"/>
	  <point x="274" y="467"/>
	  <point x="354" y="467" type="curve" smooth="yes"/>
	  <point x="405" y="467"/>
	  <point x="458" y="457"/>
	  <point x="499" y="430" type="curve"/>
	  <point x="549" y="484" type="line"/>
	  <point x="498" y="522"/>
	  <point x="421" y="539"/>
	  <point x="351" y="539" type="curve" smooth="yes"/>
	  <point x="235" y="539"/>
	  <point x="134" y="494"/>
	  <point x="122" y="403" type="curve" smooth="yes"/>
	  <point x="113" y="344"/>
	  <point x="146" y="299"/>
	  <point x="217" y="283" type="curve"/>
	  <point x="127" y="270"/>
	  <point x="77" y="235"/>
	  <point x="66" y="157" type="curve" smooth="yes"/>
	  <point x="51" y="49"/>
	  <point x="143" y="-12"/>
	  <point x="277" y="-12" type="curve" smooth="yes"/>
	  <point x="377" y="-12"/>
	  <point x="464" y="17"/>
	  <point x="522" y="56" type="curve"/>
	  <point x="479" y="119" type="line"/>
	  <point x="425" y="85"/>
	  <point x="363" y="62"/>
	  <point x="286" y="62" type="curve" smooth="yes"/>
	  <point x="201" y="62"/>
	  <point x="156" y="96"/>
	  <point x="164" y="151" type="curve" smooth="yes"/>
	  <point x="172" y="210"/>
	  <point x="215" y="239"/>
	  <point x="302" y="239" type="curve" smooth="yes"/>
	  <point x="391" y="239" type="line"/>
	</contour>
	<contour>
	  <point x="390" y="527" type="move" name="top"/>
	</contour>
	<contour>
	  <point x="237" y="0" type="move" name="bottom"/>
	</contour>
  </outline>
</glyph>
<glyph name="zeta" format="1">
  <advance width="600"/>
  <unicode hex="03B6"/>
  <outline>
	<contour>
	  <point x="228" y="739" type="line"/>
	  <point x="206" y="665" type="line"/>
	  <point x="353" y="665" type="line" smooth="yes"/>
	  <point x="398" y="665"/>
	  <point x="477" y="666"/>
	  <point x="503" y="679" type="curve"/>
	  <point x="245" y="511"/>
	  <point x="127" y="393"/>
	  <point x="108" y="257" type="curve" smooth="yes"/>
	  <point x="89" y="120"/>
	  <point x="155" y="71"/>
	  <point x="290" y="23" type="curve" smooth="yes"/>
	  <point x="365" y="-6"/>
	  <point x="389" y="-14"/>
	  <point x="384" y="-48" type="curve" smooth="yes"/>
	  <point x="377" y="-99"/>
	  <point x="330" y="-129"/>
	  <point x="269" y="-158" type="curve"/>
	  <point x="301" y="-224" type="line"/>
	  <point x="415" y="-176"/>
	  <point x="473" y="-122"/>
	  <point x="483" y="-48" type="curve" smooth="yes"/>
	  <point x="494" y="32"/>
	  <point x="437" y="57"/>
	  <point x="335" y="91" type="curve" smooth="yes"/>
	  <point x="232" y="129"/>
	  <point x="194" y="156"/>
	  <point x="207" y="250" type="curve" smooth="yes"/>
	  <point x="225" y="380"/>
	  <point x="353" y="494"/>
	  <point x="594" y="676" type="curve"/>
	  <point x="589" y="739" type="line"/>
	</contour>
  </outline>
</glyph>
<glyph name="eta" format="1">
  <advance width="600"/>
  <unicode hex="03B7"/>
  <outline>
	<contour>
	  <point x="331" y="539"/>
	  <point x="260" y="511"/>
	  <point x="206" y="451" type="curve"/>
	  <point x="208" y="475"/>
	  <point x="202" y="519"/>
	  <point x="194" y="537" type="curve"/>
	  <point x="109" y="529" type="line"/>
	  <point x="115" y="487"/>
	  <point x="120" y="429"/>
	  <point x="111" y="360" type="curve" smooth="yes"/>
	  <point x="60" y="0" type="line"/>
	  <point x="152" y="0" type="line"/>
	  <point x="206" y="380" type="line"/>
	  <point x="240" y="421"/>
	  <point x="299" y="467"/>
	  <point x="358" y="467" type="curve" smooth="yes"/>
	  <point x="433" y="467"/>
	  <point x="435" y="429"/>
	  <point x="421" y="326" type="curve" smooth="yes"/>
	  <point x="345" y="-213" type="line"/>
	  <point x="439" y="-202" type="line"/>
	  <point x="520" y="380" type="line" smooth="yes"/>
	  <point x="534" y="478"/>
	  <point x="495" y="539"/>
	  <point x="391" y="539" type="curve" smooth="yes"/>
	</contour>
	<contour>
	  <point x="374" y="527" type="move" name="top"/>
	</contour>
  </outline>
</glyph>
<glyph name="theta" format="1">
  <advance width="600"/>
  <unicode hex="03B8"/>
  <outline>
	<contour>
	  <point x="217" y="750"/>
	  <point x="118" y="608"/>
	  <point x="86" y="376" type="curve" smooth="yes"/>
	  <point x="52" y="136"/>
	  <point x="113" y="-12"/>
	  <point x="265" y="-12" type="curve" smooth="yes"/>
	  <point x="412" y="-12"/>
	  <point x="512" y="135"/>
	  <point x="545" y="367" type="curve" smooth="yes"/>
	  <point x="578" y="607"/>
	  <point x="517" y="750"/>
	  <point x="365" y="750" type="curve" smooth="yes"/>
	</contour>
	<contour>
	  <point x="412" y="145"/>
	  <point x="357" y="62"/>
	  <point x="268" y="62" type="curve" smooth="yes"/>
	  <point x="183" y="62"/>
	  <point x="153" y="139"/>
	  <point x="175" y="334" type="curve"/>
	  <point x="445" y="340" type="line"/>
	</contour>
	<contour>
	  <point x="449" y="675"/>
	  <point x="478" y="600"/>
	  <point x="456" y="410" type="curve"/>
	  <point x="185" y="404" type="line"/>
	  <point x="215" y="594"/>
	  <point x="272" y="675"/>
	  <point x="363" y="675" type="curve" smooth="yes"/>
	</contour>
  </outline>
</glyph>
<glyph name="iota" format="1">
  <advance width="600"/>
  <unicode hex="03B9"/>
  <outline>
	<contour>
	  <point x="219" y="145" type="line" smooth="yes"/>
	  <point x="206" y="48"/>
	  <point x="262" y="-12"/>
	  <point x="361" y="-12" type="curve" smooth="yes"/>
	  <point x="409" y="-12"/>
	  <point x="464" y="1"/>
	  <point x="491" y="15" type="curve"/>
	  <point x="472" y="83" type="line"/>
	  <point x="443" y="72"/>
	  <point x="411" y="64"/>
	  <point x="381" y="64" type="curve" smooth="yes"/>
	  <point x="333" y="64"/>
	  <point x="302" y="80"/>
	  <point x="309" y="131" type="curve" smooth="yes"/>
	  <point x="365" y="527" type="line"/>
	  <point x="107" y="527" type="line"/>
	  <point x="86" y="451" type="line"/>
	  <point x="262" y="451" type="line"/>
	</contour>
	<contour>
	  <point x="359" y="527" type="move" name="top"/>
	</contour>
  </outline>
</glyph>
<glyph name="kappa" format="1">
  <advance width="600"/>
  <unicode hex="03BA"/>
  <outline>
	<contour>
	  <point x="207" y="282" type="line"/>
	  <point x="370" y="72" type="line" smooth="yes"/>
	  <point x="404" y="26"/>
	  <point x="436" y="-4"/>
	  <point x="494" y="-12" type="curve"/>
	  <point x="534" y="62" type="line"/>
	  <point x="494" y="71"/>
	  <point x="471" y="87"/>
	  <point x="436" y="130" type="curve" smooth="yes"/>
	  <point x="316" y="285" type="line"/>
	  <point x="563" y="489" type="line"/>
	  <point x="492" y="539" type="line"/>
	</contour>
	<contour>
	  <point x="121" y="529" type="line"/>
	  <point x="129" y="469"/>
	  <point x="129" y="412"/>
	  <point x="119" y="344" type="curve" smooth="yes"/>
	  <point x="71" y="0" type="line"/>
	  <point x="163" y="0" type="line"/>
	  <point x="208" y="323" type="line" smooth="yes"/>
	  <point x="217" y="385"/>
	  <point x="222" y="463"/>
	  <point x="209" y="525" type="curve"/>
	</contour>
  </outline>
</glyph>
<glyph name="lambda" format="1">
  <advance width="600"/>
  <unicode hex="03BB"/>
  <outline>
	<contour>
	  <point x="9" y="7" type="line"/>
	  <point x="97" y="-13" type="line"/>
	  <point x="326" y="460" type="line"/>
	  <point x="337" y="234"/>
	  <point x="371" y="83"/>
	  <point x="431" y="-10" type="curve"/>
	  <point x="527" y="20" type="line"/>
	  <point x="458" y="102"/>
	  <point x="432" y="258"/>
	  <point x="408" y="489" type="curve" smooth="yes"/>
	  <point x="392" y="658"/>
	  <point x="336" y="729"/>
	  <point x="180" y="752" type="curve"/>
	  <point x="160" y="681" type="line"/>
	  <point x="266" y="664"/>
	  <point x="297" y="621"/>
	  <point x="312" y="529" type="curve"/>
	  <point x="274" y="527" type="line"/>
	</contour>
  </outline>
</glyph>
<glyph name="nu" format="1">
  <advance width="600"/>
  <unicode hex="03BD"/>
  <outline>
	<contour>
	  <point x="308" y="0" type="line"/>
	  <point x="587" y="518" type="line"/>
	  <point x="496" y="539" type="line"/>
	  <point x="268" y="76" type="line"/>
	  <point x="255" y="266"/>
	  <point x="222" y="448"/>
	  <point x="158" y="536" type="curve"/>
	  <point x="65" y="507" type="line"/>
	  <point x="139" y="432"/>
	  <point x="179" y="194"/>
	  <point x="196" y="3" type="curve"/>
	</contour>
  </outline>
</glyph>
<glyph name="xi" format="1">
  <advance width="600"/>
  <unicode hex="03BE"/>
  <outline>
	<contour>
	  <point x="302" y="750"/>
	  <point x="194" y="690"/>
	  <point x="179" y="586" type="curve" smooth="yes"/>
	  <point x="168" y="506"/>
	  <point x="224" y="468"/>
	  <point x="282" y="445" type="curve"/>
	  <point x="214" y="433"/>
	  <point x="113" y="386"/>
	  <point x="97" y="270" type="curve" smooth="yes"/>
	  <point x="76" y="118"/>
	  <point x="181" y="69"/>
	  <point x="329" y="20" type="curve" smooth="yes"/>
	  <point x="394" y="-4"/>
	  <point x="410" y="-13"/>
	  <point x="406" y="-45" type="curve" smooth="yes"/>
	  <point x="398" y="-96"/>
	  <point x="354" y="-129"/>
	  <point x="290" y="-158" type="curve"/>
	  <point x="322" y="-224" type="line"/>
	  <point x="435" y="-176"/>
	  <point x="494" y="-122"/>
	  <point x="504" y="-48" type="curve" smooth="yes"/>
	  <point x="515" y="31"/>
	  <point x="469" y="60"/>
	  <point x="356" y="96" type="curve" smooth="yes"/>
	  <point x="230" y="140"/>
	  <point x="181" y="162"/>
	  <point x="195" y="264" type="curve" smooth="yes"/>
	  <point x="206" y="339"/>
	  <point x="271" y="401"/>
	  <point x="361" y="401" type="curve" smooth="yes"/>
	  <point x="475" y="401" type="line"/>
	  <point x="497" y="480" type="line"/>
	  <point x="376" y="480" type="line" smooth="yes"/>
	  <point x="302" y="480"/>
	  <point x="264" y="512"/>
	  <point x="273" y="576" type="curve" smooth="yes"/>
	  <point x="282" y="643"/>
	  <point x="338" y="680"/>
	  <point x="423" y="680" type="curve" smooth="yes"/>
	  <point x="471" y="680"/>
	  <point x="524" y="667"/>
	  <point x="565" y="638" type="curve"/>
	  <point x="613" y="690" type="line"/>
	  <point x="562" y="730"/>
	  <point x="497" y="750"/>
	  <point x="421" y="750" type="curve" smooth="yes"/>
	</contour>
  </outline>
</glyph>
<glyph name="pi" format="1">
  <advance width="600"/>
  <unicode hex="03C0"/>
  <outline>
	<contour>
	  <point x="141" y="468" type="line"/>
	  <point x="75" y="0" type="line"/>
	  <point x="167" y="0" type="line"/>
	  <point x="233" y="468" type="line"/>
	</contour>
	<contour>
	  <point x="415" y="468" type="line"/>
	  <point x="368" y="133" type="line" smooth="yes"/>
	  <point x="356" y="49"/>
	  <point x="383" y="8"/>
	  <point x="458" y="-11" type="curve"/>
	  <point x="498" y="61" type="line"/>
	  <point x="462" y="70"/>
	  <point x="453" y="86"/>
	  <point x="460" y="138" type="curve" smooth="yes"/>
	  <point x="507" y="468" type="line"/>
	</contour>
	<contour>
	  <point x="169" y="527" type="line" smooth="yes"/>
	  <point x="113" y="527"/>
	  <point x="75" y="526"/>
	  <point x="39" y="510" type="curve"/>
	  <point x="54" y="439" type="line"/>
	  <point x="87" y="448"/>
	  <point x="100" y="451"/>
	  <point x="153" y="452" type="curve" smooth="yes"/>
	  <point x="586" y="452" type="line"/>
	  <point x="597" y="527" type="line"/>
	</contour>
  </outline>
</glyph>
<glyph name="rho" format="1">
  <advance width="600"/>
  <unicode hex="03C1"/>
  <outline>
	<contour>
	  <point x="202" y="539"/>
	  <point x="117" y="449"/>
	  <point x="92" y="274" type="curve" smooth="yes"/>
	  <point x="24" y="-213" type="line"/>
	  <point x="118" y="-202" type="line"/>
	  <point x="154" y="50" type="line"/>
	  <point x="183" y="10"/>
	  <point x="228" y="-12"/>
	  <point x="287" y="-12" type="curve" smooth="yes"/>
	  <point x="423" y="-12"/>
	  <point x="507" y="112"/>
	  <point x="527" y="259" type="curve" smooth="yes"/>
	  <point x="552" y="437"/>
	  <point x="498" y="539"/>
	  <point x="342" y="539" type="curve" smooth="yes"/>
	</contour>
	<contour>
	  <point x="420" y="467"/>
	  <point x="449" y="405"/>
	  <point x="430" y="269" type="curve" smooth="yes"/>
	  <point x="411" y="136"/>
	  <point x="354" y="63"/>
	  <point x="268" y="63" type="curve" smooth="yes"/>
	  <point x="222" y="63"/>
	  <point x="184" y="84"/>
	  <point x="163" y="125" type="curve"/>
	  <point x="182" y="253" type="line" smooth="yes"/>
	  <point x="201" y="389"/>
	  <point x="245" y="467"/>
	  <point x="338" y="467" type="curve" smooth="yes"/>
	</contour>
  </outline>
</glyph>
<glyph name="sigma1" format="1">
  <advance width="600"/>
  <unicode hex="03C2"/>
  <outline>
	<contour>
	  <point x="242" y="539"/>
	  <point x="124" y="443"/>
	  <point x="101" y="277" type="curve"/>
	  <point x="81" y="138"/>
	  <point x="142" y="78"/>
	  <point x="264" y="33" type="curve" smooth="yes"/>
	  <point x="355" y="-4"/>
	  <point x="374" y="-12"/>
	  <point x="369" y="-50" type="curve" smooth="yes"/>
	  <point x="362" y="-100"/>
	  <point x="315" y="-127"/>
	  <point x="255" y="-150" type="curve"/>
	  <point x="290" y="-216" type="line"/>
	  <point x="403" y="-169"/>
	  <point x="458" y="-123"/>
	  <point x="468" y="-50" type="curve" smooth="yes"/>
	  <point x="479" y="31"/>
	  <point x="423" y="62"/>
	  <point x="326" y="98" type="curve" smooth="yes"/>
	  <point x="208" y="145"/>
	  <point x="184" y="171"/>
	  <point x="197" y="267" type="curve"/>
	  <point x="216" y="396"/>
	  <point x="299" y="463"/>
	  <point x="385" y="463" type="curve" smooth="yes"/>
	  <point x="440" y="463"/>
	  <point x="471" y="451"/>
	  <point x="509" y="423" type="curve"/>
	  <point x="559" y="480" type="line"/>
	  <point x="508" y="521"/>
	  <point x="461" y="539"/>
	  <point x="384" y="539" type="curve" smooth="yes"/>
	</contour>
  </outline>
</glyph>
<glyph name="sigma" format="1">
  <advance width="600"/>
  <unicode hex="03C3"/>
  <outline>
	<contour>
	  <point x="197" y="533"/>
	  <point x="93" y="429"/>
	  <point x="71" y="268" type="curve" smooth="yes"/>
	  <point x="47" y="99"/>
	  <point x="116" y="-12"/>
	  <point x="265" y="-12" type="curve" smooth="yes"/>
	  <point x="409" y="-12"/>
	  <point x="508" y="97"/>
	  <point x="527" y="259" type="curve" smooth="yes"/>
	  <point x="541" y="370"/>
	  <point x="507" y="440"/>
	  <point x="454" y="468" type="curve"/>
	  <point x="386" y="471" type="line"/>
	  <point x="425" y="439"/>
	  <point x="446" y="380"/>
	  <point x="431" y="269" type="curve" smooth="yes"/>
	  <point x="411" y="129"/>
	  <point x="356" y="62"/>
	  <point x="268" y="62" type="curve" smooth="yes"/>
	  <point x="183" y="62"/>
	  <point x="148" y="123"/>
	  <point x="167" y="258" type="curve" smooth="yes"/>
	  <point x="192" y="433"/>
	  <point x="283" y="467"/>
	  <point x="404" y="464" type="curve"/>
	  <point x="447" y="463" type="line"/>
	  <point x="588" y="453" type="line"/>
	  <point x="596" y="527" type="line"/>
	  <point x="529" y="530"/>
	  <point x="435" y="533"/>
	  <point x="354" y="533" type="curve"/>
	</contour>
  </outline>
</glyph>
<glyph name="tau" format="1">
  <advance width="600"/>
  <unicode hex="03C4"/>
  <outline>
	<contour>
	  <point x="224" y="527" type="line"/>
	  <point x="165" y="527"/>
	  <point x="116" y="523"/>
	  <point x="69" y="507" type="curve"/>
	  <point x="78" y="434" type="line"/>
	  <point x="132" y="448"/>
	  <point x="160" y="452"/>
	  <point x="207" y="452" type="curve" smooth="yes"/>
	  <point x="536" y="452" type="line"/>
	  <point x="547" y="527" type="line"/>
	</contour>
	<contour>
	  <point x="253" y="468" type="line"/>
	  <point x="207" y="145" type="line" smooth="yes"/>
	  <point x="194" y="48"/>
	  <point x="249" y="-12"/>
	  <point x="348" y="-12" type="curve" smooth="yes"/>
	  <point x="396" y="-12"/>
	  <point x="451" y="1"/>
	  <point x="478" y="15" type="curve"/>
	  <point x="459" y="83" type="line"/>
	  <point x="430" y="72"/>
	  <point x="398" y="64"/>
	  <point x="368" y="64" type="curve" smooth="yes"/>
	  <point x="320" y="64"/>
	  <point x="290" y="80"/>
	  <point x="297" y="131" type="curve" smooth="yes"/>
	  <point x="345" y="468" type="line"/>
	</contour>
  </outline>
</glyph>
<glyph name="upsilon" format="1">
  <advance width="600"/>
  <unicode hex="03C5"/>
  <outline>
	<contour>
	  <point x="446" y="530" type="line"/>
	  <point x="452" y="431"/>
	  <point x="446" y="341"/>
	  <point x="436" y="268" type="curve" smooth="yes"/>
	  <point x="413" y="109"/>
	  <point x="330" y="62"/>
	  <point x="259" y="62" type="curve" smooth="yes"/>
	  <point x="198" y="62"/>
	  <point x="167" y="94"/>
	  <point x="178" y="168" type="curve" smooth="yes"/>
	  <point x="228" y="527" type="line"/>
	  <point x="136" y="527" type="line"/>
	  <point x="85" y="166" type="line" smooth="yes"/>
	  <point x="69" y="49"/>
	  <point x="141" y="-12"/>
	  <point x="252" y="-12" type="curve" smooth="yes"/>
	  <point x="372" y="-12"/>
	  <point x="500" y="65"/>
	  <point x="526" y="250" type="curve" smooth="yes"/>
	  <point x="541" y="355"/>
	  <point x="542" y="437"/>
	  <point x="539" y="524" type="curve"/>
	</contour>
	<contour>
	  <point x="374" y="527" type="move" name="top"/>
	</contour>
  </outline>
</glyph>
<glyph name="phi" format="1">
  <advance width="600"/>
  <unicode hex="03C6"/>
  <outline>
	<contour>
	  <point x="326" y="539"/>
	  <point x="278" y="460"/>
	  <point x="258" y="322" type="curve" smooth="yes"/>
	  <point x="219" y="59" type="line"/>
	  <point x="120" y="73"/>
	  <point x="103" y="137"/>
	  <point x="120" y="255" type="curve" smooth="yes"/>
	  <point x="131" y="332"/>
	  <point x="161" y="415"/>
	  <point x="214" y="525" type="curve"/>
	  <point x="123" y="529" type="line"/>
	  <point x="86" y="457"/>
	  <point x="46" y="364"/>
	  <point x="29" y="244" type="curve" smooth="yes"/>
	  <point x="8" y="93"/>
	  <point x="65" y="3"/>
	  <point x="214" y="-10" type="curve"/>
	  <point x="183" y="-213" type="line"/>
	  <point x="269" y="-202" type="line"/>
	  <point x="298" y="-10" type="line"/>
	  <point x="442" y="3"/>
	  <point x="542" y="80"/>
	  <point x="568" y="263" type="curve" smooth="yes"/>
	  <point x="594" y="445"/>
	  <point x="555" y="539"/>
	  <point x="437" y="539" type="curve" smooth="yes"/>
	</contour>
	<contour>
	  <point x="491" y="469"/>
	  <point x="498" y="413"/>
	  <point x="478" y="273" type="curve" smooth="yes"/>
	  <point x="460" y="140"/>
	  <point x="413" y="71"/>
	  <point x="303" y="58" type="curve"/>
	  <point x="339" y="301" type="line" smooth="yes"/>
	  <point x="352" y="391"/>
	  <point x="366" y="469"/>
	  <point x="434" y="469" type="curve" smooth="yes"/>
	</contour>
  </outline>
</glyph>
<glyph name="chi" format="1">
  <advance width="600"/>
  <unicode hex="03C7"/>
  <outline>
	<contour>
	  <point x="85" y="507" type="line"/>
	  <point x="149" y="432"/>
	  <point x="186" y="370"/>
	  <point x="242" y="184" type="curve"/>
	  <point x="288" y="118" type="line"/>
	  <point x="395" y="-213" type="line"/>
	  <point x="490" y="-202" type="line"/>
	  <point x="348" y="186" type="line"/>
	  <point x="303" y="240" type="line"/>
	  <point x="266" y="395"/>
	  <point x="230" y="471"/>
	  <point x="177" y="536" type="curve"/>
	</contour>
	<contour>
	  <point x="303" y="242" type="line"/>
	  <point x="239" y="182" type="line"/>
	  <point x="-12" y="-202" type="line"/>
	  <point x="82" y="-211" type="line"/>
	  <point x="288" y="118" type="line"/>
	  <point x="351" y="186" type="line"/>
	  <point x="575" y="527" type="line"/>
	  <point x="479" y="535" type="line" smooth="yes"/>
	</contour>
  </outline>
</glyph>
<glyph name="psi" format="1">
  <advance width="600"/>
  <unicode hex="03C8"/>
  <outline>
	<contour>
	  <point x="296" y="527" type="line"/>
	  <point x="229" y="66" type="line"/>
	  <point x="134" y="77"/>
	  <point x="108" y="116"/>
	  <point x="120" y="198" type="curve" smooth="yes"/>
	  <point x="166" y="527" type="line"/>
	  <point x="77" y="527" type="line"/>
	  <point x="31" y="197" type="line" smooth="yes"/>
	  <point x="16" y="95"/>
	  <point x="69" y="5"/>
	  <point x="223" y="-7" type="curve"/>
	  <point x="192" y="-213" type="line"/>
	  <point x="278" y="-202" type="line"/>
	  <point x="307" y="-7" type="line"/>
	  <point x="468" y="8"/>
	  <point x="547" y="100"/>
	  <point x="568" y="249" type="curve" smooth="yes"/>
	  <point x="583" y="355"/>
	  <point x="584" y="437"/>
	  <point x="581" y="524" type="curve"/>
	  <point x="491" y="530" type="line"/>
	  <point x="495" y="432"/>
	  <point x="491" y="340"/>
	  <point x="480" y="267" type="curve" smooth="yes"/>
	  <point x="464" y="147"/>
	  <point x="430" y="80"/>
	  <point x="313" y="66" type="curve"/>
	  <point x="380" y="527" type="line"/>
	</contour>
  </outline>
</glyph>
<glyph name="omega" format="1">
  <advance width="600"/>
  <unicode hex="03C9"/>
  <outline>
	<contour>
	  <point x="480" y="529" type="line"/>
	  <point x="500" y="417"/>
	  <point x="496" y="338"/>
	  <point x="486" y="265" type="curve" smooth="yes"/>
	  <point x="468" y="137"/>
	  <point x="441" y="62"/>
	  <point x="381" y="62" type="curve" smooth="yes"/>
	  <point x="326" y="62"/>
	  <point x="323" y="126"/>
	  <point x="337" y="228" type="curve"/>
	  <point x="357" y="367" type="line"/>
	  <point x="271" y="355" type="line"/>
	  <point x="254" y="234" type="line" smooth="yes"/>
	  <point x="241" y="143"/>
	  <point x="214" y="62"/>
	  <point x="155" y="62" type="curve" smooth="yes"/>
	  <point x="99" y="62"/>
	  <point x="95" y="131"/>
	  <point x="113" y="255" type="curve" smooth="yes"/>
	  <point x="124" y="332"/>
	  <point x="142" y="413"/>
	  <point x="193" y="525" type="curve"/>
	  <point x="111" y="529" type="line"/>
	  <point x="76" y="461"/>
	  <point x="39" y="364"/>
	  <point x="22" y="244" type="curve" smooth="yes"/>
	  <point x="-1" y="80"/>
	  <point x="37" y="-12"/>
	  <point x="141" y="-12" type="curve" smooth="yes"/>
	  <point x="204" y="-12"/>
	  <point x="250" y="26"/>
	  <point x="277" y="103" type="curve"/>
	  <point x="277" y="29"/>
	  <point x="316" y="-12"/>
	  <point x="387" y="-12" type="curve" smooth="yes"/>
	  <point x="486" y="-12"/>
	  <point x="549" y="79"/>
	  <point x="571" y="234" type="curve" smooth="yes"/>
	  <point x="588" y="358"/>
	  <point x="575" y="456"/>
	  <point x="560" y="525" type="curve"/>
	</contour>
	<contour>
	  <point x="374" y="527" type="move" name="top"/>
	</contour>
  </outline>
</glyph>
<glyph name="uni0402" format="1">
  <advance width="600"/>
  <unicode hex="0402"/>
  <outline>
	<contour>
	  <point x="455" y="612" type="line"/>
	  <point x="476" y="689" type="line"/>
	  <point x="55" y="689" type="line"/>
	  <point x="44" y="612" type="line"/>
	  <point x="203" y="612" type="line"/>
	  <point x="117" y="0" type="line"/>
	  <point x="211" y="0" type="line"/>
	  <point x="258" y="319" type="line"/>
	  <point x="286" y="342"/>
	  <point x="326" y="372"/>
	  <point x="387" y="372" type="curve" smooth="yes"/>
	  <point x="462" y="372"/>
	  <point x="484" y="338"/>
	  <point x="472" y="246" type="curve" smooth="yes"/>
	  <point x="451" y="99" type="line" smooth="yes"/>
	  <point x="438" y="10"/>
	  <point x="411" y="-29"/>
	  <point x="319" y="-64" type="curve"/>
	  <point x="337" y="-140" type="line"/>
	  <point x="451" y="-103"/>
	  <point x="524" y="-49"/>
	  <point x="544" y="93" type="curve" smooth="yes"/>
	  <point x="565" y="244" type="line" smooth="yes"/>
	  <point x="584" y="378"/>
	  <point x="534" y="452"/>
	  <point x="412" y="452" type="curve" smooth="yes"/>
	  <point x="355" y="452"/>
	  <point x="305" y="428"/>
	  <point x="265" y="396" type="curve"/>
	  <point x="297" y="612" type="line"/>
	</contour>
  </outline>
</glyph>
<glyph name="uni0404" format="1">
  <advance width="600"/>
  <unicode hex="0404"/>
  <outline>
	<contour>
	  <point x="250" y="701"/>
	  <point x="99" y="580"/>
	  <point x="67" y="350" type="curve" smooth="yes"/>
	  <point x="34" y="116"/>
	  <point x="143" y="-12"/>
	  <point x="319" y="-12" type="curve" smooth="yes"/>
	  <point x="417" y="-12"/>
	  <point x="490" y="23"/>
	  <point x="539" y="63" type="curve"/>
	  <point x="495" y="127" type="line"/>
	  <point x="457" y="97"/>
	  <point x="404" y="66"/>
	  <point x="326" y="66" type="curve" smooth="yes"/>
	  <point x="218" y="66"/>
	  <point x="143" y="136"/>
	  <point x="160" y="312" type="curve"/>
	  <point x="461" y="315" type="line"/>
	  <point x="472" y="393" type="line"/>
	  <point x="173" y="390" type="line"/>
	  <point x="210" y="560"/>
	  <point x="309" y="625"/>
	  <point x="414" y="625" type="curve" smooth="yes"/>
	  <point x="465" y="625"/>
	  <point x="512" y="611"/>
	  <point x="549" y="576" type="curve"/>
	  <point x="606" y="631" type="line"/>
	  <point x="557" y="674"/>
	  <point x="502" y="701"/>
	  <point x="410" y="701" type="curve" smooth="yes"/>
	</contour>
  </outline>
</glyph>
<glyph name="uni0409" format="1">
  <advance width="600"/>
  <unicode hex="0409"/>
  <outline>
	<contour>
	  <point x="155" y="689" type="line"/>
	  <point x="74" y="317" type="line" smooth="yes"/>
	  <point x="31" y="122"/>
	  <point x="4" y="84"/>
	  <point x="-31" y="51" type="curve"/>
	  <point x="9" y="-14" type="line"/>
	  <point x="76" y="32"/>
	  <point x="108" y="63"/>
	  <point x="160" y="307" type="curve" smooth="yes"/>
	  <point x="225" y="614" type="line"/>
	  <point x="315" y="614" type="line"/>
	  <point x="229" y="0" type="line"/>
	  <point x="328" y="0" type="line" smooth="yes"/>
	  <point x="474" y="0"/>
	  <point x="572" y="61"/>
	  <point x="594" y="218" type="curve" smooth="yes"/>
	  <point x="615" y="367"/>
	  <point x="540" y="436"/>
	  <point x="378" y="436" type="curve"/>
	  <point x="416" y="689" type="line"/>
	</contour>
	<contour>
	  <point x="475" y="365"/>
	  <point x="514" y="329"/>
	  <point x="500" y="227" type="curve" smooth="yes"/>
	  <point x="483" y="108"/>
	  <point x="428" y="74"/>
	  <point x="342" y="74" type="curve" smooth="yes"/>
	  <point x="329" y="74" type="line"/>
	  <point x="370" y="365" type="line"/>
	  <point x="387" y="365" type="line" smooth="yes"/>
	</contour>
  </outline>
</glyph>
<glyph name="uni040A" format="1">
  <advance width="600"/>
  <unicode hex="040A"/>
  <outline>
	<contour>
	  <point x="326" y="689" type="line"/>
	  <point x="287" y="416" type="line"/>
	  <point x="151" y="416" type="line"/>
	  <point x="190" y="689" type="line"/>
	  <point x="100" y="689" type="line"/>
	  <point x="3" y="0" type="line"/>
	  <point x="93" y="0" type="line"/>
	  <point x="142" y="346" type="line"/>
	  <point x="278" y="346" type="line"/>
	  <point x="229" y="0" type="line"/>
	  <point x="328" y="0" type="line" smooth="yes"/>
	  <point x="474" y="0"/>
	  <point x="571" y="55"/>
	  <point x="592" y="209" type="curve" smooth="yes"/>
	  <point x="612" y="351"/>
	  <point x="537" y="416"/>
	  <point x="375" y="416" type="curve"/>
	  <point x="416" y="689" type="line"/>
	</contour>
	<contour>
	  <point x="473" y="346"/>
	  <point x="512" y="316"/>
	  <point x="499" y="218" type="curve" smooth="yes"/>
	  <point x="482" y="101"/>
	  <point x="428" y="73"/>
	  <point x="342" y="73" type="curve" smooth="yes"/>
	  <point x="329" y="73" type="line"/>
	  <point x="368" y="346" type="line"/>
	  <point x="385" y="346" type="line" smooth="yes"/>
	</contour>
  </outline>
</glyph>
<glyph name="uni040B" format="1">
  <advance width="600"/>
  <unicode hex="040B"/>
  <outline>
	<contour>
	  <point x="55" y="689" type="line"/>
	  <point x="44" y="612" type="line"/>
	  <point x="203" y="612" type="line"/>
	  <point x="117" y="0" type="line"/>
	  <point x="211" y="0" type="line"/>
	  <point x="258" y="319" type="line"/>
	  <point x="286" y="342"/>
	  <point x="326" y="372"/>
	  <point x="387" y="372" type="curve" smooth="yes"/>
	  <point x="462" y="372"/>
	  <point x="484" y="338"/>
	  <point x="472" y="246" type="curve" smooth="yes"/>
	  <point x="437" y="0" type="line"/>
	  <point x="531" y="0" type="line"/>
	  <point x="565" y="244" type="line" smooth="yes"/>
	  <point x="584" y="378"/>
	  <point x="534" y="452"/>
	  <point x="412" y="452" type="curve" smooth="yes"/>
	  <point x="353" y="452"/>
	  <point x="305" y="430"/>
	  <point x="265" y="396" type="curve"/>
	  <point x="297" y="612" type="line"/>
	  <point x="455" y="612" type="line"/>
	  <point x="476" y="689" type="line"/>
	</contour>
  </outline>
</glyph>
<glyph name="uni0411" format="1">
  <advance width="600"/>
  <unicode hex="0411"/>
  <outline>
	<contour>
	  <point x="156" y="689" type="line"/>
	  <point x="59" y="0" type="line"/>
	  <point x="243" y="0" type="line" smooth="yes"/>
	  <point x="399" y="0"/>
	  <point x="516" y="56"/>
	  <point x="538" y="211" type="curve" smooth="yes"/>
	  <point x="558" y="358"/>
	  <point x="463" y="423"/>
	  <point x="296" y="423" type="curve" smooth="yes"/>
	  <point x="213" y="423" type="line"/>
	  <point x="240" y="611" type="line"/>
	  <point x="526" y="611" type="line"/>
	  <point x="546" y="689" type="line"/>
	</contour>
	<contour>
	  <point x="394" y="349"/>
	  <point x="453" y="316"/>
	  <point x="440" y="220" type="curve" smooth="yes"/>
	  <point x="424" y="106"/>
	  <point x="351" y="76"/>
	  <point x="258" y="76" type="curve" smooth="yes"/>
	  <point x="165" y="76" type="line"/>
	  <point x="203" y="349" type="line"/>
	  <point x="300" y="349" type="line" smooth="yes"/>
	</contour>
  </outline>
</glyph>
<glyph name="uni0413" format="1">
  <advance width="600"/>
  <unicode hex="0413"/>
  <outline>
	<contour>
	  <point x="191" y="689" type="line"/>
	  <point x="94" y="0" type="line"/>
	  <point x="189" y="0" type="line"/>
	  <point x="274" y="607" type="line"/>
	  <point x="584" y="607" type="line"/>
	  <point x="606" y="689" type="line"/>
	</contour>
	<contour>
	  <point x="467" y="689" type="move" name="top"/>
	</contour>
	<contour>
	  <point x="162" y="0" type="move" name="bottomright"/>
	</contour>
  </outline>
</glyph>
<glyph name="uni0414" format="1">
  <advance width="600"/>
  <unicode hex="0414"/>
  <outline>
	<contour>
	  <point x="225" y="689" type="line"/>
	  <point x="171" y="492" type="line" smooth="yes"/>
	  <point x="95" y="204"/>
	  <point x="76" y="133"/>
	  <point x="14" y="80" type="curve"/>
	  <point x="53" y="0" type="line"/>
	  <point x="440" y="0" type="line"/>
	  <point x="490" y="78" type="line"/>
	  <point x="575" y="689" type="line"/>
	</contour>
	<contour>
	  <point x="394" y="78" type="line"/>
	  <point x="106" y="76" type="line"/>
	  <point x="174" y="131"/>
	  <point x="195" y="210"/>
	  <point x="265" y="482" type="curve" smooth="yes"/>
	  <point x="297" y="611" type="line"/>
	  <point x="469" y="611" type="line"/>
	</contour>
	<component base="descStraight-cy.case" xOffset="170"/>
	<component base="descStraight-cy.case" xOffset="321" xScale="-1"/>
  </outline>
</glyph>
